<svg id="777b0f5b-ccab-4a05-b384-8eaa94c40657" data-name="Layer 1" xmlns="http://www.w3.org/2000/svg" viewBox="0 0 24 24"><defs><style>.\35 5bb4ced-3553-4573-bbae-674e06e513ad{fill:#eb6200}</style></defs><path class="55bb4ced-3553-4573-bbae-674e06e513ad" d="M4.07 13H0v-2h4.07A8.26 8.26 0 004 12a8.26 8.26 0 00.07 1zm3-7.31L4.22 2.81 2.81 4.22 5.69 7.1A7.84 7.84 0 017.1 5.69zM18.31 7.1l2.88-2.88-1.41-1.41-2.88 2.88a7.84 7.84 0 011.41 1.41zM12 4a8.26 8.26 0 011 .07V0h-2v4.07A8.26 8.26 0 0112 4zm0 16a8.26 8.26 0 01-1-.07V24h2v-4.07a8.26 8.26 0 01-1 .07zm7.93-9a8.26 8.26 0 01.07 1 8.26 8.26 0 01-.07 1H24v-2zm-3 7.31l2.88 2.88 1.41-1.41-2.91-2.88a7.84 7.84 0 01-1.41 1.41zM5.69 16.9l-2.88 2.88 1.41 1.41 2.88-2.88a7.84 7.84 0 01-1.41-1.41zM8 12a4 4 0 104-4 4 4 0 00-4 4zm10 0a6 6 0 11-6-6 6 6 0 016 6z"/></svg>