<svg id="6211e0fa-d14d-4b8c-8343-9eaccb874274" data-name="Layer 1" xmlns="http://www.w3.org/2000/svg" viewBox="0 0 24 24"><defs><style>.\33 7724af1-08d6-44d7-b37c-b87d07a708f0{fill:#eb8900}</style></defs><path class="37724af1-08d6-44d7-b37c-b87d07a708f0" d="M12 6a6 6 0 000 12 6.26 6.26 0 002.7-.6C12.9 17 10 15.7 10 12a5.51 5.51 0 014.7-5.4A6.6 6.6 0 0012 6zm2.7 3.9a2.25 2.25 0 011.5 1.5 2.25 2.25 0 011.5-1.5 2.25 2.25 0 01-1.5-1.5 2.48 2.48 0 01-1.5 1.5zM12 13.6a2.1 2.1 0 011.3 1.3 2.1 2.1 0 011.3-1.3 2.1 2.1 0 01-1.3-1.3 1.72 1.72 0 01-1.3 1.3zM12 0a3.07 3.07 0 01-2 2 3.07 3.07 0 012 2 3.07 3.07 0 012-2 3.07 3.07 0 01-2-2zm12 12a3 3 0 01-2-2.1 3 3 0 01-2.1 2 3 3 0 012 2.1 3.45 3.45 0 012.1-2zm-9.9 10a3 3 0 01-2-2.1 3 3 0 01-2.1 2 3 3 0 012 2.1 3 3 0 012.1-2zm-10-10a3 3 0 01-2-2.1 3 3 0 01-2.1 2A3 3 0 012 14a3.46 3.46 0 012.1-2zM1.3 2.8a2.1 2.1 0 011.3 1.3 2 2 0 011.2-1.3 2 2 0 01-1.2-1.3 2.1 2.1 0 01-1.3 1.3zM19.5 21a2.1 2.1 0 011.3 1.3 2.1 2.1 0 011.3-1.3 2.1 2.1 0 01-1.3-1.3 2.37 2.37 0 01-1.3 1.3zM3.8 19.2a2.1 2.1 0 011.3 1.3 2.1 2.1 0 011.3-1.3 2.1 2.1 0 01-1.3-1.3 1.89 1.89 0 01-1.3 1.3zM18.7 4.7A2.1 2.1 0 0120 6a2.1 2.1 0 011.3-1.3A2.1 2.1 0 0120 3.4a1.89 1.89 0 01-1.3 1.3z"/></svg>