<svg xmlns="http://www.w3.org/2000/svg" xmlns:xlink="http://www.w3.org/1999/xlink" viewBox="0 0 223.72 257.19"><defs><radialGradient id="4cdf0ea1-1000-430f-95e1-d0ee9b7d4b92" cx="-259.04" cy="-539.23" r="13.43" gradientTransform="rotate(46.4 -889.503 216.46) skewX(.4)" gradientUnits="userSpaceOnUse"><stop offset=".07" stop-color="#c56c37"/><stop offset=".34" stop-color="#c26b37"/><stop offset=".51" stop-color="#ba6735"/><stop offset=".65" stop-color="#ac6033"/><stop offset=".77" stop-color="#985730"/><stop offset=".88" stop-color="#7e4a2c"/><stop offset=".89" stop-color="#7b492c"/></radialGradient><radialGradient id="369c29a1-3208-4bb0-8083-b9535f08fdeb" cx="239.97" cy="-161.25" r="10.66" gradientTransform="translate(-146.19 315.71)" xlink:href="#4cdf0ea1-1000-430f-95e1-d0ee9b7d4b92"/><radialGradient id="47850cad-e9b5-4102-bab0-0091d1458111" cx="-255.07" cy="-530.9" r="15.57" xlink:href="#4cdf0ea1-1000-430f-95e1-d0ee9b7d4b92"/><radialGradient id="b6646f9a-5d21-419f-a416-5c993a72a805" cx="-266.31" cy="-542.11" r="15.56" xlink:href="#4cdf0ea1-1000-430f-95e1-d0ee9b7d4b92"/><radialGradient id="a669b1bd-b21f-4862-99ab-0717dc332cbc" cx="-1159.78" cy="184.22" fx="-1204.385" fy="113.322" r="92.01" gradientTransform="scale(-1 1) rotate(34 -493.54 1844.604)" gradientUnits="userSpaceOnUse"><stop offset="0" stop-color="#9dc900"/><stop offset=".38" stop-color="#75ae00"/><stop offset=".54" stop-color="#62a200"/><stop offset=".58" stop-color="#5ba000"/><stop offset=".65" stop-color="#499b00"/><stop offset=".69" stop-color="#399700"/><stop offset=".87" stop-color="#027f00"/><stop offset=".87" stop-color="#007e00"/></radialGradient><radialGradient id="d41f8bdc-94aa-4681-94f0-d8ca4ca2b9d9" cx="-1169.73" cy="167.85" fx="-1180.063" fy="151.416" r="21.32" gradientTransform="scale(-1 1) rotate(34 -493.54 1844.604)" gradientUnits="userSpaceOnUse"><stop offset="0" stop-color="#9dc900"/><stop offset=".41" stop-color="#75ae00"/><stop offset=".58" stop-color="#62a200"/><stop offset=".62" stop-color="#5ba000"/><stop offset=".66" stop-color="#499b00"/><stop offset=".69" stop-color="#399700"/><stop offset=".97" stop-color="#027f00"/><stop offset=".98" stop-color="#007e00"/></radialGradient><radialGradient id="0f265eec-2a7d-4341-afb3-da3a5527992a" cx="-1169.95" cy="183.71" fx="-1169.946" fy="175.489" r="10.67" xlink:href="#d41f8bdc-94aa-4681-94f0-d8ca4ca2b9d9"/><radialGradient id="d47b5d47-26b6-4c79-8e17-972ba4bde865" cx="-1183.24" cy="200.76" fx="-1183.236" fy="200.764" r="5.33" xlink:href="#d41f8bdc-94aa-4681-94f0-d8ca4ca2b9d9"/><radialGradient id="206d48a2-bdc3-4c9d-8b33-f37c3a777224" cx="-1136.31" cy="156.67" fx="-1136.31" fy="156.665" r="7.19" xlink:href="#d41f8bdc-94aa-4681-94f0-d8ca4ca2b9d9"/><radialGradient id="2e2183c6-6ac9-4c54-a84d-288126dbd350" cx="-1161.1" cy="201.38" fx="-1161.099" fy="201.378" r="57.12" xlink:href="#d41f8bdc-94aa-4681-94f0-d8ca4ca2b9d9"/><radialGradient id="1a211e07-6467-4440-9c19-7c8ed06deb08" cx="-1140.75" cy="180.94" fx="-1140.754" fy="180.938" r="78.42" xlink:href="#d41f8bdc-94aa-4681-94f0-d8ca4ca2b9d9"/><radialGradient id="5d5f71cf-d6cb-479e-8298-f1782af4a040" cx="-99.09" cy="-326.42" r="9.28" gradientTransform="rotate(42.3 -653.448 243.383)" xlink:href="#4cdf0ea1-1000-430f-95e1-d0ee9b7d4b92"/><radialGradient id="4c05f1c4-881f-4d27-ac73-3ffd4fb4c6e5" cx="201.59" cy="102.12" r="7.3" gradientTransform="translate(-65.42 102.95)" xlink:href="#4cdf0ea1-1000-430f-95e1-d0ee9b7d4b92"/><radialGradient id="64a299c5-0d3e-43c9-a5dc-b954964a2aa7" cx="-96.35" cy="-320.68" r="10.74" gradientTransform="rotate(42.3 -653.448 243.383)" xlink:href="#4cdf0ea1-1000-430f-95e1-d0ee9b7d4b92"/><radialGradient id="5952b0fe-ec8f-46ea-a131-8446777ccf5c" cx="-104.11" cy="-328.42" r="10.73" gradientTransform="rotate(42.3 -653.448 243.383)" xlink:href="#4cdf0ea1-1000-430f-95e1-d0ee9b7d4b92"/><radialGradient id="5f90871f-d951-4eaa-a117-13586598b074" cx="-353.31" cy="-311.74" fx="-393.792" fy="-376.099" r="83.51" gradientTransform="matrix(.58 .81 -.81 .58 75.12 608.63)" gradientUnits="userSpaceOnUse"><stop offset="0" stop-color="#95c12c"/><stop offset=".41" stop-color="#6da61a"/><stop offset=".58" stop-color="#5a9a12"/><stop offset=".62" stop-color="#539813"/><stop offset=".66" stop-color="#419318"/><stop offset=".69" stop-color="#318f1b"/><stop offset=".98" stop-color="#007630"/></radialGradient><radialGradient id="c9fc739c-2b58-4a82-b0ab-591202190e0f" cx="-353.87" cy="-336.65" fx="-361.012" fy="-348.001" r="14.73" gradientTransform="matrix(.58 .81 -.81 .58 75.12 608.63)" gradientUnits="userSpaceOnUse"><stop offset=".77" stop-color="#fcffbf"/><stop offset="1"/></radialGradient><radialGradient id="450b72e9-6920-49d9-9e57-1868990cfea0" cx="-350.01" cy="-321.41" fx="-350.011" fy="-321.405" r="7.38" xlink:href="#c9fc739c-2b58-4a82-b0ab-591202190e0f"/><radialGradient id="a9f742ff-b27a-457c-9ba7-53b144c1f7fe" cx="-359.2" cy="-309.62" fx="-359.199" fy="-309.623" r="3.68" xlink:href="#5f90871f-d951-4eaa-a117-13586598b074"/><radialGradient id="66ec57c5-ddb7-4509-96d9-73f38b3d8737" cx="-326.75" cy="-340.1" fx="-326.753" fy="-340.098" r="4.96" xlink:href="#5f90871f-d951-4eaa-a117-13586598b074"/><radialGradient id="6c5cc6af-e149-4897-b60d-867de9523401" cx="-316.33" cy="-353.98" fx="-316.333" fy="-353.982" r="56.28" xlink:href="#5f90871f-d951-4eaa-a117-13586598b074"/><radialGradient id="058a28d3-49d4-4a7c-ab7c-d31e8729d67e" cx="-307.31" cy="-333.26" fx="-307.315" fy="-333.259" r="27.47" xlink:href="#5f90871f-d951-4eaa-a117-13586598b074"/><radialGradient id="b5be998e-c6d6-4d82-a2bc-bec727abfbfe" cx="-783.75" cy="514.81" fx="-791.154" fy="503.039" r="15.28" gradientTransform="matrix(-.91 .42 .41 .91 -859.89 -24.07)" xlink:href="#d41f8bdc-94aa-4681-94f0-d8ca4ca2b9d9"/><radialGradient id="de8f879f-2192-4620-a3c7-d355dda450e9" cx="-787.1" cy="527.41" fx="-787.096" fy="527.411" r="7.63" gradientTransform="matrix(-.91 .42 .41 .91 -859.89 -24.07)" xlink:href="#d41f8bdc-94aa-4681-94f0-d8ca4ca2b9d9"/><linearGradient id="bfd29249-cbb3-4906-b591-fc095919c202" x1="-104.66" y1="-426.96" x2="-84.88" y2="-457.84" gradientTransform="matrix(.86 .5 -.5 .86 -69.02 562.57)" gradientUnits="userSpaceOnUse"><stop offset=".03" stop-color="#2e8f00"/><stop offset=".58" stop-color="#dcf58f"/></linearGradient><linearGradient id="e5c22c3e-a4be-4a11-8243-a9c3e3945e4c" x1="63.92" y1="-145.67" x2="88.04" y2="-168.77" gradientTransform="rotate(14.42 -1196.585 185.59)" gradientUnits="userSpaceOnUse"><stop offset=".19" stop-color="#519918"/><stop offset=".74" stop-color="#fff"/></linearGradient><linearGradient id="498af2c1-4e26-4a6a-9de3-c92e4f98d805" x1="31.14" y1="162.61" x2="56.76" y2="253.35" gradientTransform="rotate(5.95 110.122 396.359)" gradientUnits="userSpaceOnUse"><stop offset="0" stop-color="#6d6f22"/><stop offset=".3" stop-color="#4a4117"/><stop offset=".7" stop-color="#2f2f19"/><stop offset="1" stop-color="#062838"/></linearGradient><linearGradient id="f3b3bf5a-9ccb-4a56-b9e8-dfa8e3af6718" x1="54.44" y1="215.12" x2="23.61" y2="124.26" gradientTransform="rotate(5.95 110.122 396.359)" gradientUnits="userSpaceOnUse"><stop offset="0" stop-color="#074623"/><stop offset=".71" stop-color="#233972"/><stop offset="1" stop-color="#024063"/></linearGradient><linearGradient id="03d4376d-95b8-45c5-8590-207fecbc6843" x1="42.97" y1="118.57" x2="37.27" y2="160.84" gradientTransform="rotate(5.95 110.122 396.359)" gradientUnits="userSpaceOnUse"><stop offset="0" stop-color="#e5e244"/><stop offset=".99" stop-color="#003e31"/></linearGradient><linearGradient id="aacf6603-187b-4a89-a7c4-916a081ecec0" x1="36.31" y1="150.39" x2="26.98" y2="185.45" xlink:href="#03d4376d-95b8-45c5-8590-207fecbc6843"/><linearGradient id="ce0b3d42-3278-43b4-b2fb-cd68f2d02aa7" x1="43.57" y1="166.94" x2="39.23" y2="183.28" xlink:href="#03d4376d-95b8-45c5-8590-207fecbc6843"/><linearGradient id="0cf43347-8a14-411b-8dfb-9a2e846abb22" x1="1.06" y1="148.67" x2="-3.29" y2="165.01" xlink:href="#03d4376d-95b8-45c5-8590-207fecbc6843"/><clipPath id="7cc5f621-3c80-4497-9c04-edfe037f2bbb"><path class="55e0a24f-61a4-4881-94d9-2266e6ce3cfa" d="M116.62 186l-.29-3.56h-.43c-.34 1.2-1.48 3.66-3.2 2.65s.06-3.28.06-3.28l.15-.8-3 3.49s-9.82 8.67-13.26 12.9c0 0 .77 8.28 11.14 11a15 15 0 0013.21-3.23s-4.09-11.02-4.38-19.17z"/></clipPath><style>.\35 5e0a24f-61a4-4881-94d9-2266e6ce3cfa{fill:none}.\35 cf6ef64-59c2-4261-8eb1-2d8dfefee1ed{fill:url(#4cdf0ea1-1000-430f-95e1-d0ee9b7d4b92)}.d3dae9eb-ddaa-41a1-9d83-ec8b162efdbd{opacity:0.2}.\30 4698f8f-53a7-48b4-9e23-ae95f9e5c2dc,.\32 3044d61-3162-4c0f-a9dc-113570292a95,.\33 2bdcc59-e9e5-45c0-b654-acbd3c786f41,.\34 1b12965-a1ef-4425-93b1-b31a4707afa3,.\36 554e30b-5e01-4009-b4cd-bce3c9f2e650,.\38 4d8cba2-e92b-45d6-bd22-18703f3601aa,.\38 9ab13cd-9cae-497c-8a33-a4eda94e37cc,.\39 1f487f5-8873-4962-a350-ac96975804a5,.d3dae9eb-ddaa-41a1-9d83-ec8b162efdbd{mix-blend-mode:multiply}.\36 554e30b-5e01-4009-b4cd-bce3c9f2e650,.\36 74d5b86-8ba3-4ede-a632-85221440699a,.\36 9b75fdb-85ae-4768-87c1-574c3bb3e6c3,.\38 4d8cba2-e92b-45d6-bd22-18703f3601aa,.\38 9ab13cd-9cae-497c-8a33-a4eda94e37cc{opacity:0.4}.\38 4d8cba2-e92b-45d6-bd22-18703f3601aa{fill:url(#47850cad-e9b5-4102-bab0-0091d1458111)}.\36 554e30b-5e01-4009-b4cd-bce3c9f2e650{fill:url(#b6646f9a-5d21-419f-a416-5c993a72a805)}.\32 1dc57c6-8f43-4d57-83e0-d54b1f104046{fill:#62a200}.\32 2461949-d33a-46bb-be2c-f6663ef26a4e,.\32 5b7dc4e-d89f-4895-a5a8-5d61f862e857,.\38 c6a79aa-03f3-4d9e-9232-ee0b4ec13c94{opacity:0.7}.\38 c6a79aa-03f3-4d9e-9232-ee0b4ec13c94{fill:url(#a669b1bd-b21f-4862-99ab-0717dc332cbc)}.\30 238fb92-8440-44bf-8783-1c73906d7ded,.\31 eca780a-0dc8-4250-b3a0-37443600d0a7,.\34 719081c-724c-42ff-a181-0f4e0717143e,.\35 b1a051a-dcaf-4cc4-bf6d-bf81e75de0a3,.\36 11580a6-78a6-4666-85af-70ddeb8183c9,.\36 d2d41f5-0005-455e-8924-1ca35a201a2f,.\38 3fcba25-c0dd-4403-9dfc-10b9552c61fe,.\39 ff0846e-ee6c-478a-9291-4d77213dd18b{opacity:0.3}.\30 238fb92-8440-44bf-8783-1c73906d7ded,.\31 eca780a-0dc8-4250-b3a0-37443600d0a7,.\34 719081c-724c-42ff-a181-0f4e0717143e,.\36 11580a6-78a6-4666-85af-70ddeb8183c9,.\36 74d5b86-8ba3-4ede-a632-85221440699a,.\36 9b75fdb-85ae-4768-87c1-574c3bb3e6c3,.\36 d2d41f5-0005-455e-8924-1ca35a201a2f,.\38 3fcba25-c0dd-4403-9dfc-10b9552c61fe,.\39 ff0846e-ee6c-478a-9291-4d77213dd18b{mix-blend-mode:screen}.\39 ff0846e-ee6c-478a-9291-4d77213dd18b{fill:url(#d41f8bdc-94aa-4681-94f0-d8ca4ca2b9d9)}.\36 d2d41f5-0005-455e-8924-1ca35a201a2f{fill:url(#d47b5d47-26b6-4c79-8e17-972ba4bde865)}.\30 238fb92-8440-44bf-8783-1c73906d7ded{fill:url(#206d48a2-bdc3-4c9d-8b33-f37c3a777224)}.\32 5b7dc4e-d89f-4895-a5a8-5d61f862e857{fill:url(#1a211e07-6467-4440-9c19-7c8ed06deb08)}.\34 73012c8-5865-4e3b-972b-7817071b6021{fill:url(#5d5f71cf-d6cb-479e-8298-f1782af4a040)}.\38 9ab13cd-9cae-497c-8a33-a4eda94e37cc{fill:url(#64a299c5-0d3e-43c9-a5dc-b954964a2aa7)}.\36 e0d5565-61ba-41f2-8d0e-cb42426d188f{fill:#c3d82b}.\34 1b12965-a1ef-4425-93b1-b31a4707afa3{opacity:0.5}.\38 6fb4c32-661b-4eca-9e24-b1d8b74d9cd5{fill:url(#5f90871f-d951-4eaa-a117-13586598b074)}.\36 74d5b86-8ba3-4ede-a632-85221440699a{fill:url(#c9fc739c-2b58-4a82-b0ab-591202190e0f)}.\36 11580a6-78a6-4666-85af-70ddeb8183c9{fill:url(#a9f742ff-b27a-457c-9ba7-53b144c1f7fe)}.\32 2461949-d33a-46bb-be2c-f6663ef26a4e{fill:url(#058a28d3-49d4-4a7c-ab7c-d31e8729d67e)}.\33 2bdcc59-e9e5-45c0-b654-acbd3c786f41{opacity:0.8;fill:url(#e5c22c3e-a4be-4a11-8243-a9c3e3945e4c)}.\33 3007da5-ca1c-406e-91ec-5bfb6d4733af{fill:url(#498af2c1-4e26-4a6a-9de3-c92e4f98d805)}.\31 6f7020a-d0db-4180-bbd4-1c21a0cc4160{fill:#1c7933}.\35 b1a051a-dcaf-4cc4-bf6d-bf81e75de0a3{fill:url(#f3b3bf5a-9ccb-4a56-b9e8-dfa8e3af6718)}.\36 9b75fdb-85ae-4768-87c1-574c3bb3e6c3{fill:url(#03d4376d-95b8-45c5-8590-207fecbc6843)}.\31 eca780a-0dc8-4250-b3a0-37443600d0a7{fill:url(#b5be998e-c6d6-4d82-a2bc-bec727abfbfe)}.\38 3fcba25-c0dd-4403-9dfc-10b9552c61fe{fill:url(#aacf6603-187b-4a89-a7c4-916a081ecec0)}.\34 719081c-724c-42ff-a181-0f4e0717143e{fill:url(#ce0b3d42-3278-43b4-b2fb-cd68f2d02aa7)}.\34 e04a0e9-42e1-456e-8576-260db2dc246a{fill:#d4dd4d}.\32 3044d61-3162-4c0f-a9dc-113570292a95{fill:#65913f;opacity:0.55}.\32 4f1f38f-c75d-46ac-b600-4461ff36a5bc{fill:#f487bc}.c2747a8c-ff80-49ac-b755-5cfd513f187b{fill:#f8e893}.\31 546749b-3828-4657-943a-57b62edc8f36{fill:#6db85b}.b1ca37c3-856f-43ae-bf4d-5bc64861a255{fill:#0a0a0a}.\36 4a8079c-0cfb-4ab8-a2e8-82d37342a9f8{fill:#9e3265}.\38 0f5d09d-f5a2-4d78-9f2f-793aff5167c1{fill:#a85802}.\38 738e301-020f-4634-9ad7-700a720b93b1{fill:#683c32}.d36ee9b7-ee6f-43d4-bea4-635d6c29c127{fill:#7d4a3f}.\39 9393cd7-514d-40b2-b85c-94e7b28c8a4b{fill:#fff331}.\37 0578aae-f05f-4ba9-9035-e577b6323f39{fill:#898033}.\31 63b77b7-f1f4-47fb-9485-5ed8d05f6cd8{fill:#d92231}.\31 0fb08dd-018e-47a1-b59e-2be918fa426a{fill:#d76b2a}.\39 b23db8d-a837-40c0-b458-6850d7803ac9{fill:#f9d8b7}.faff6b6e-f797-48cc-84c5-0b2904d1302f{fill:#87d7d2}.d60e6c00-2464-4eab-a29c-21029c9f5153{fill:#fff90a}.\39 2a9e6d9-41a2-4ed5-8173-6c2e3e8ca1e9{fill:#7286c7}.\34 804e690-67ca-446c-b400-dbe7d409ab58{fill:#ecd3eb}.ecc72a6b-2b28-469a-b42b-92740906f234{fill:#fffc0d}.\39 1f487f5-8873-4962-a350-ac96975804a5{opacity:0.49}.\37 5e46cbf-b7d0-4671-b717-5f15aeae61f6{fill:#ffe00a}.\31 de4667c-8321-4140-a867-cfc6c3a01fef{fill:#fa607e}.\32 1a3016e-6202-439e-b34b-b61b02fc71a7{fill:#23121a}.\37 ac6561a-6e94-4f57-b880-d9b0d21e43ab{fill:#fa6582}.d443b733-cc9f-4082-803c-3cb915bb1879{fill:#f72252}.e5a59f2e-2788-4a44-a6e6-597a04c47f15{fill:#0e0a0a}.c911755c-5886-42dd-a39a-defa94dadfe2{opacity:0.34}.\32 af0966c-bd98-420b-b504-7ae6e5ad51dc{fill:#fcffd4}</style></defs><g style="isolation:isolate"><g id="52e77ae8-3868-40cf-a95b-0495780af44c" data-name="Enfants_mobile_dark"><path class="5cf6ef64-59c2-4261-8eb1-2d8dfefee1ed" d="M100.45 140.8s-.8 25.21-4.86 33.58L107 174s-5.4-11.18-2.47-33.41z"/><g class="d3dae9eb-ddaa-41a1-9d83-ec8b162efdbd"><path class="5cf6ef64-59c2-4261-8eb1-2d8dfefee1ed" d="M107 174s-5.4-11.18-2.47-33.41l-4.07.23s-.14 4.2-.57 9.74.64-3 1.6-3 .75 2.28.63 8.9c-.17 9.5-2.23 14-4.24 10.24a33.57 33.57 0 01-2.27 7.72z"/></g><path d="M103.33 160.62a6.22 6.22 0 01-.38 2.62 5.87 5.87 0 01-.23-2.63 6.22 6.22 0 01.38-2.62 5.91 5.91 0 01.23 2.63z" style="mix-blend-mode:multiply" fill="url(#369c29a1-3208-4bb0-8083-b9535f08fdeb)" opacity=".4"/><path class="84d8cba2-e92b-45d6-bd22-18703f3601aa" d="M102.7 165.62c0 .73-.18 1.31-.35 1.31s-.28-.6-.26-1.33.17-1.3.35-1.3.28.6.26 1.32z"/><path class="6554e30b-5e01-4009-b4cd-bce3c9f2e650" d="M103.1 149.8c0 .72-.17 1.3-.34 1.3s-.28-.6-.26-1.32.17-1.31.34-1.31.28.6.26 1.33z"/><path class="21dc57c6-8f43-4d57-83e0-d54b1f104046" d="M59.34 149.46a16.8 16.8 0 007.2-.91 15.54 15.54 0 0011.86 6.93 15.85 15.85 0 0011.29-3.21 10.56 10.56 0 0014.7 2.82 10.42 10.42 0 001.3-1.07 7.9 7.9 0 001.08 2.3 8 8 0 0014.58-4.15 8 8 0 0012.19-7.83 16.73 16.73 0 0012.17-1.13c7.62-3.71 11.29-11.89 8.19-18.27a11.32 11.32 0 00-5.65-5.39 6.54 6.54 0 00-3.54-9.47 15.35 15.35 0 00-14.11-26 6.56 6.56 0 00-9.07-5.79 15.3 15.3 0 00-28.09-3.5c-3.27-3.32-8.79-3.78-13.11-.85a11.28 11.28 0 00-3.76 4.34 17 17 0 00-15.25 2.12c-7.43 5.06-9.72 14.72-5.37 22a13.94 13.94 0 00-9 9.44 14.14 14.14 0 004.56 14.33 12.13 12.13 0 00-5.84 9.14c-.61 7.07 5.49 13.41 13.67 14.15z"/><path class="8c6a79aa-03f3-4d9e-9232-ee0b4ec13c94" d="M45.71 135.28a12.16 12.16 0 015.84-9.14A14.1 14.1 0 0147 111.82a13.92 13.92 0 019-9.45c-4.35-7.24-2.06-16.91 5.36-22a17.43 17.43 0 015.92-2.59c-3.45 1.41-8.68 4.65-9.06 11.31-.64 11 11.25 10.89 11.25 10.89a8.44 8.44 0 00-3.6 9.46c1.37 5.5 7.88 4.28 7.88 4.28s-5.63 8.16 2.57 15.37c9.06 8 17.24.19 17.24.19s-.24 8.48 5.8 8.43c8.36-.06 8.65-7 8.65-7a9.38 9.38 0 0011.56 4.42c6.76-2.11 6.86-9 6.65-11.54.36 2.17 1.86 7 7.89 2.89 0 0-1.33 9.87 9.64 11 4.67.46 9.16-1.32 11.13-5.49a16.19 16.19 0 01-9.09 11.29 16.7 16.7 0 01-12.16 1.13 8 8 0 01-12.2 7.83 8 8 0 01-14.58 4.16 8.19 8.19 0 01-1.07-2.31 9.7 9.7 0 01-1.31 1.07 10.57 10.57 0 01-14.7-2.82 15.85 15.85 0 01-11.3 3.21 15.54 15.54 0 01-11.85-6.93 16.67 16.67 0 01-7.21.92c-8.24-.82-14.35-7.16-13.7-14.26z"/><path class="9ff0846e-ee6c-478a-9291-4d77213dd18b" d="M102.21 82a6.95 6.95 0 101.84-9.68 6.94 6.94 0 00-1.84 9.68z"/><path d="M115.45 91.17a3.48 3.48 0 10.92-4.83 3.47 3.47 0 00-.92 4.83z" style="mix-blend-mode:screen" fill="url(#0f265eec-2a7d-4341-afb3-da3a5527992a)" opacity=".3"/><path class="6d2d41f5-0005-455e-8924-1ca35a201a2f" d="M138.06 95.91a1.73 1.73 0 002.41.47 1.76 1.76 0 00.47-2.42 1.74 1.74 0 10-2.88 2z"/><path class="0238fb92-8440-44bf-8783-1c73906d7ded" d="M73.92 86.45a2.34 2.34 0 10.62-3.26 2.34 2.34 0 00-.62 3.26z"/><path d="M125.27 142.23a2.35 2.35 0 10.63-3.26 2.35 2.35 0 00-.63 3.26z" fill="url(#2e2183c6-6ac9-4c54-a84d-288126dbd350)" opacity=".7"/><path class="25b7dc4e-d89f-4895-a5a8-5d61f862e857" d="M98.19 149.91a3.21 3.21 0 10.85-4.48 3.21 3.21 0 00-.85 4.48z"/><path d="M91.19 147.28c-4.1 5.11-12.51 4.58-13.89-1.55s3.47-7.94 3.47-7.94a16.77 16.77 0 01-13.53-7.89c-3-4.74.57-11 .57-11a1.07 1.07 0 01.2-.11c-.7.29-3.68 1.11-6-3.35-3.13-6 2.24-11.31 2.24-11.31-3.46 1.19-6.66-.75-8.57-3.37a15.7 15.7 0 001 2 13.92 13.92 0 00-9 9.44 14.1 14.1 0 004.56 14.31 12.24 12.24 0 00-5.85 9.15c-.42 4.75 2.19 9.17 6.42 11.79a16.83 16.83 0 0013.73 1.08c.11.17.25.33.36.5.11 0 .23-.06.34-.09a14.48 14.48 0 004.58 4.5 16.68 16.68 0 006.58 2 16.18 16.18 0 003.19 0l-.09.44a15.41 15.41 0 008.89-3.25v.05a10.56 10.56 0 0010.94 4.42c-11.6-2.18-10.14-9.82-10.14-9.82z" style="mix-blend-mode:multiply" fill="url(#bfd29249-cbb3-4906-b591-fc095919c202)"/><path class="473012c8-5865-4e3b-972b-7817071b6021" d="M140.91 180.61s.8 17.41-1.54 23.4l7.82-.88s-4.31-7.42-3.49-22.89z"/><g class="d3dae9eb-ddaa-41a1-9d83-ec8b162efdbd"><path class="473012c8-5865-4e3b-972b-7817071b6021" d="M147.19 203.13s-4.31-7.42-3.49-22.89l-2.79.37s.14 2.91.13 6.74.29-2.07 1-2.17.63 1.54.9 6.11c.39 6.56-.79 9.78-2.38 7.28a23.42 23.42 0 01-1.14 5.44z"/></g><path d="M144 194.12a4 4 0 01-.12 1.82 3.89 3.89 0 01-.29-1.8 4.08 4.08 0 01.12-1.83 4.38 4.38 0 01.29 1.81z" style="mix-blend-mode:multiply" fill="url(#4c05f1c4-881f-4d27-ac73-3ffd4fb4c6e5)" opacity=".4"/><path class="89ab13cd-9cae-497c-8a33-a4eda94e37cc" d="M143.79 197.6c0 .5 0 .92-.17.92s-.23-.4-.25-.9 0-.91.17-.92.22.4.25.9z"/><path d="M143.22 186.67c0 .5-.06.91-.16.91s-.24-.4-.26-.89 0-.91.17-.92.23.4.25.9z" style="mix-blend-mode:multiply" fill="url(#5952b0fe-ec8f-46ea-a131-8446777ccf5c)" opacity=".4"/><path class="6e0d5565-61ba-41f2-8d0e-cb42426d188f" d="M170.58 184.25c.71-2.56-.79-4.71-2.4-6.85 3.46-1.3 6.88-4.86 7.23-8.65a9.66 9.66 0 00-3.54-8.29c4.57-3.65 5.57-8.3 2-13.38a11.82 11.82 0 00-9.41-5 7.63 7.63 0 00-1.4-3.7 7.11 7.11 0 00-8.69-2.65 10.6 10.6 0 00-16.6-7 11.07 11.07 0 00-2.44 2.44 4.51 4.51 0 00-5.71-.39 4.65 4.65 0 00-1.55 1.94 10.6 10.6 0 00-15.4 13.41 4.47 4.47 0 00-2.74.83 4.55 4.55 0 00-1.84 4.45 7.85 7.85 0 00-5 2.11c-3.54 3.39-3.13 9.58.91 13.82a11.6 11.6 0 007.6 3.68 5.53 5.53 0 006 8 5.52 5.52 0 008.44 6.23 6.12 6.12 0 001.25-1.24 8.49 8.49 0 00.58 1 7.31 7.31 0 0010.21 1.73c1.34 2.22 3 3 5.88 3.87 4.57 1.35 7.46-1 9.87-2.82a11.46 11.46 0 004.44 2.34c5.54 1.5 11.02-1.13 12.31-5.88z"/><path class="86fb4c32-661b-4eca-9e24-b1d8b74d9cd5" d="M168.18 177.4c3.46-1.3 6.88-4.86 7.23-8.65a9.66 9.66 0 00-3.54-8.29c4.57-3.65 5.57-8.3 2-13.38l-.64-.83a.86.86 0 01-.13-.14c-.23-.26-.47-.52-.72-.76-.26-.26-.53-.49-.82-.73-.29-.23-.59-.44-.89-.64 1.9 1.76 4.51 5.12 3.16 9.53-2.25 7.27-9.17 5.42-9.17 5.42a5.83 5.83 0 01.07 7c-2.22 3.23-6.14.86-6.14.86s4.69 9.81-5.17 12-10.77-7.47-10.77-7.47a5.7 5.7 0 01-7.19 3.76 5.09 5.09 0 01-3.91-6.65s-3.51 2.26-8.18-1.37c-3.86-3-1.6-6.91-.86-8.49 0 0-6.38-2-4-8.08a9.28 9.28 0 012.26-3.81s-10.6-1.51-7.07-11.28a10.67 10.67 0 00-1 10.79 4.47 4.47 0 00-2.74.83 4.55 4.55 0 00-1.84 4.45 7.85 7.85 0 00-5 2.11 7.76 7.76 0 00-2.25 4.3 8.85 8.85 0 00-.14 1.78v.05a9.2 9.2 0 00.17 1.72l.06.26c0 .23.11.47.17.7s.09.29.14.43.09.27.13.39.13.34.2.49.08.19.11.29.24.49.37.73a2.07 2.07 0 00.15.25c.13.22.26.45.4.67l.07.11c.17.25.35.5.54.74.06.06.1.12.16.19.2.24.4.48.63.72a11.6 11.6 0 007.6 3.68 5.53 5.53 0 006 8 5.52 5.52 0 008.44 6.23 6.12 6.12 0 001.25-1.24 8.49 8.49 0 00.58 1 7.31 7.31 0 0010.21 1.73c1.34 2.22 3.07 3.15 5.88 3.87 4.45 1.15 7.46-1 9.87-2.82a11.46 11.46 0 004.44 2.34c5.48 1.49 11-1.14 12.25-5.89.74-2.61-.76-4.76-2.37-6.9z" opacity=".5"/><path class="674d5b86-8ba3-4ede-a632-85221440699a" d="M146.55 137.31a4.81 4.81 0 111.13-6.7 4.8 4.8 0 01-1.13 6.7z"/><path d="M136.19 141a2.41 2.41 0 11.57-3.35 2.41 2.41 0 01-.57 3.35z" style="mix-blend-mode:screen" fill="url(#450b72e9-6920-49d9-9e57-1868990cfea0)" opacity=".2"/><path class="611580a6-78a6-4666-85af-70ddeb8183c9" d="M120.41 138.54a1.2 1.2 0 11.28-1.67 1.2 1.2 0 01-.28 1.67z"/><path d="M164.23 147.94a1.62 1.62 0 11.38-2.25 1.62 1.62 0 01-.38 2.25z" style="mix-blend-mode:screen" fill="url(#66ec57c5-ddb7-4509-96d9-73f38b3d8737)" opacity=".3"/><path d="M166.69 173.68a2.3 2.3 0 11.55-3.23 2.32 2.32 0 01-.55 3.23z" fill="url(#6c5cc6af-e149-4897-b60d-867de9523401)" opacity=".7"/><path class="22461949-d33a-46bb-be2c-f6663ef26a4e" d="M162.05 178.89a1.13 1.13 0 11-1.31-1.83 1.13 1.13 0 111.31 1.83z"/><path class="32bdcc59-e9e5-45c0-b654-acbd3c786f41" d="M138.57 183.36s-2.67 3.3-7.59.38c-5.28-3.13-2.77-9.39-2.77-9.39s-3.43.76-7.3-2.36a6.75 6.75 0 01-2.66-7 8.12 8.12 0 011.25-4.64s-7.76-2.14-4.08-10.87a18.1 18.1 0 01-3-3.76l.18.42a4.47 4.47 0 00-2.74.83 4.55 4.55 0 00-1.84 4.45 7.85 7.85 0 00-5 2.11 7.76 7.76 0 00-2.25 4.3c0 .27-.08.53-.11.8v.18a5.35 5.35 0 000 .8V160.59c0 .26.06.53.11.79l.06.25c0 .23.11.46.17.69 0 .14.09.3.14.43s.09.27.13.39.13.34.2.49l.12.31c.11.24.23.47.36.71a1.34 1.34 0 01.06.12 1.46 1.46 0 01.09.13c.13.22.26.45.4.67l.07.11c.17.25.35.5.54.74.06.06.1.12.16.19.2.24.4.48.63.72a11.6 11.6 0 007.6 3.68 5.53 5.53 0 006 8 5.52 5.52 0 008.44 6.23 6.12 6.12 0 001.25-1.24 8.49 8.49 0 00.58 1 7.31 7.31 0 0010.21 1.73c.11.17.21.31.32.46l.1.1a1.63 1.63 0 00.25.27.52.52 0 00.11.1 2.06 2.06 0 00.33.27c.13.09.27.17.41.25h.08l.36.16h.11l.42.14a4.39 4.39 0 00.52.13l.54.11c-2.09-1.19-2.96-5.36-2.96-5.36z"/><path class="33007da5-ca1c-406e-91ec-5bfb6d4733af" d="M80.25 163.48l-8.44 6.6c0-1.41-.09-4.63-.21-7.91-.11-3.11-.77-.33-.77-.33l-.58 9.45-10.08 7.87v-1.14s2.92-12.23 4.93-20.92c1.13-.62 5.05-2.81 8.13-4.85 2.58-1.71-.12-.82-.12-.82l-7.6 3.87c.81-3.52 1.39-6.17 1.44-6.62.17-1.63-.49-.47-.49-.47l-8.57 27.66L54 156.44c1.06-1.67 3.24-5.95 4.91-8.95 1.4-2.51-.46-.73-.46-.73l-4.82 7.81-1.8-9c-.87-1.08-1 .44-1 .44l1.59 9.56-7.68-5.71c-1.58-.56-.64.89-.64.89l8.61 7.16c1.13 4.87 3.08 18.67 3.08 18.67S52.68 174 49.24 171c0-2.74-.15-7.56-.32-11.13-.11-2.13-.92-.5-.92-.5l-.27 10.34c-3.69-3.14-7.36-6.23-7.83-6.47-1-.52-.91.92-.91.92l8.7 8.25s-9.69-.79-11.69-.8-.57 1-.57 1l15.18 2.68 6.33 6.91s2 33.39.35 41.11l6.39-.82c-2.23-11-3.13-32.31-3.41-40.8 3.91-3.34 19.24-16.44 20.15-17.51 1.04-1.27-.17-.7-.17-.7z"/><path class="16f7020a-d0db-4180-bbd4-1c21a0cc4160" d="M30.08 139s-12.23-3.73-16.39 8.89 6.16 19 12 18c0 0-7.18 2.52-5.65 11.24S32.2 189 38.87 183.54a7 7 0 004.81 8.66c6.67 2.34 11.35.38 13.7-2.65 0 0 3.12 5.23 12.19 4.14a13.26 13.26 0 0011.16-9.44s3.16 4.82 9.49 2.62 4.64-9.31 4.64-9.31a11.28 11.28 0 0010.57-3.79c4.61-5.22 5.12-14.14-.66-17.2 0 0 4.59-8.9.52-16.67s-13.11-7.08-13.11-7.08 5-6.93-3.08-13.38a12.65 12.65 0 00-15.83-.44s.83-8.07-10.43-9.25S46.16 117.4 48 122.9c0 0-9.69-4.68-15.81 3.24S30.08 139 30.08 139z"/><path class="5b1a051a-dcaf-4cc4-bf6d-bf81e75de0a3" d="M104.77 156.57s4.41-8.58.71-16.25c3.06 11.2-6.14 15-6.14 15s5.76 3.32 1.59 10.77c-4.5 8.05-10.83 2.4-10.83 2.4s3.32 7.15-2.14 10.11-10.54-3-10.54-3 3.29 10.15-8 11.68-11.7-7.47-11.7-7.47-.47 7-9.5 5.25-6.95-8.88-6.95-8.88c-5.69 5.12-11.33-.65-10.94-4.4s6.36-3.7 6.36-3.7c-6.88-1.81-4.89-7.85-4.89-7.85s-5.33 4.34-13.42-1.4a10.27 10.27 0 01-3.46-13.69h-.06a17.24 17.24 0 00-1.17 2.73c-4.16 12.62 6.16 19 12 18 0 0-7.18 2.52-5.65 11.24S32.2 189 38.87 183.54a7 7 0 004.81 8.66c6.67 2.34 11.35.38 13.7-2.65 0 0 3.12 5.23 12.19 4.14a13.26 13.26 0 0011.16-9.44s3.16 4.82 9.49 2.62 4.64-9.31 4.64-9.31a11.28 11.28 0 0010.57-3.79c4.57-5.22 5.12-14.14-.66-17.2z"/><path class="69b75fdb-85ae-4768-87c1-574c3bb3e6c3" d="M89.76 134.7a12.6 12.6 0 00-11-12.73 13.22 13.22 0 00-6.35.63 11 11 0 00-21.72-1.74A10.29 10.29 0 0051 125a11.9 11.9 0 00-1.81-.41 12.53 12.53 0 00-14.4 10.32c-.18 1.22 1.18 4.75 1.36 5.91A6.46 6.46 0 0028 147.3a8.34 8.34 0 0011.19 7.3 8.56 8.56 0 00.65 3.78c2 4.91 8.21 7 13.78 4.68a12.42 12.42 0 003-1.77 9.68 9.68 0 0018 1.46 7.63 7.63 0 004.19.91 7.71 7.71 0 007.19-6.89c6.82.82 13-3.27 13.85-9.29.84-5.86-3.61-11.4-10.09-12.78z"/><path class="1eca780a-0dc8-4250-b3a0-37443600d0a7" d="M57.41 123a5 5 0 102.46-6.61 5 5 0 00-2.46 6.61z"/><path class="83fcba25-c0dd-4403-9dfc-10b9552c61fe" d="M47.1 173.89a5 5 0 102.46-6.61 5 5 0 00-2.46 6.61z"/><path class="4719081c-724c-42ff-a181-0f4e0717143e" d="M60.66 175.18a2.32 2.32 0 104.22-1.93 2.3 2.3 0 00-3.07-1.15 2.34 2.34 0 00-1.15 3.08z"/><path d="M20.28 152.6a2.32 2.32 0 101.14-3.09 2.32 2.32 0 00-1.14 3.09z" style="mix-blend-mode:screen" fill="url(#0cf43347-8a14-411b-8dfb-9a2e846abb22)" opacity=".3"/><path d="M69.08 130.9a2.48 2.48 0 101.23-3.3 2.49 2.49 0 00-1.23 3.3z" style="mix-blend-mode:screen" fill="url(#de8f879f-2192-4620-a3c7-d355dda450e9)" opacity=".3"/><ellipse class="4e04a0e9-42e1-456e-8576-260db2dc246a" cx="101.69" cy="223.07" rx="83.85" ry="26.36"/><path class="23044d61-3162-4c0f-a9dc-113570292a95" d="M162.65 217.74s-3.07-1-.83-1.62a2.53 2.53 0 013.07 1.17 5.47 5.47 0 015.3 0c2.52 1.61-2.68 1-2.68 1s3.17.46.71 1.27-2.94-.82-2.94-.82-.07 1.71-2.66 1.46-.61-1.28-.61-1.28-2.45.68-2.83-.53 3.47-.65 3.47-.65z"/><path class="24f1f38f-c75d-46ac-b600-4461ff36a5bc" d="M162.5 217.18s-3.07-1-.83-1.64a2.52 2.52 0 013.07 1.18 5.46 5.46 0 015.3 0c2.52 1.61-2.67 1-2.67 1s3.16.46.71 1.28-3-.82-3-.82-.06 1.71-2.66 1.46-.59-1.28-.59-1.28-2.46.68-2.84-.54 3.51-.64 3.51-.64z"/><path class="c2747a8c-ff80-49ac-b755-5cfd513f187b" d="M166.23 217.48c0 .24-.67.44-1.51.45s-1.52-.17-1.53-.41.67-.43 1.51-.44 1.52.17 1.53.4z"/><path class="23044d61-3162-4c0f-a9dc-113570292a95" d="M159.58 231.9s-2.35-.93-.52-1.32a1.9 1.9 0 012.35 1 4.38 4.38 0 014.21.2c1.87 1.37-2.21.67-2.21.67s2.47.48.45 1-2.27-.76-2.27-.76-.21 1.36-2.25 1.06-.37-1-.37-1-2 .44-2.21-.53 2.82-.32 2.82-.32z"/><path class="24f1f38f-c75d-46ac-b600-4461ff36a5bc" d="M159.51 231.44s-2.35-.93-.51-1.33a1.89 1.89 0 012.34 1 4.35 4.35 0 014.21.2c1.87 1.37-2.21.66-2.21.66s2.48.48.45 1-2.28-.76-2.28-.76-.19 1.36-2.24 1.06-.36-1-.36-1-2 .45-2.21-.52 2.81-.31 2.81-.31z"/><path class="c2747a8c-ff80-49ac-b755-5cfd513f187b" d="M162.46 231.83c0 .18-.58.32-1.24.3s-1.2-.2-1.19-.38.57-.33 1.24-.31 1.2.2 1.19.39z"/><path class="23044d61-3162-4c0f-a9dc-113570292a95" d="M85.79 215.8s-3.07-1.09-.83-1.72a2.49 2.49 0 013.04 1.24s2.77-1.69 5.3 0-2.68 1-2.68 1 3.17.48.72 1.34-3-.87-3-.87-.06 1.81-2.66 1.54-.6-1.34-.6-1.34-2.46.71-2.83-.57 3.54-.62 3.54-.62z"/><path class="24f1f38f-c75d-46ac-b600-4461ff36a5bc" d="M85.65 215.2s-3.07-1.09-.84-1.73a2.51 2.51 0 013.08 1.24 5.2 5.2 0 015.29 0c2.53 1.7-2.67 1-2.67 1s3.16.49.71 1.35-3-.87-3-.87-.05 1.81-2.65 1.54-.6-1.35-.6-1.35-2.46.71-2.83-.56 3.51-.62 3.51-.62z"/><path class="c2747a8c-ff80-49ac-b755-5cfd513f187b" d="M89.37 215.52c0 .25-.67.46-1.5.47s-1.53-.18-1.53-.43.66-.46 1.5-.47 1.53.18 1.53.43z"/><path class="23044d61-3162-4c0f-a9dc-113570292a95" d="M123.69 211.67s-4.75-1.27-1.63-2.42a4 4 0 014.8 1.49 7.47 7.47 0 017.74-.55c4.1 2.22-3.67 1.76-3.67 1.76s4.75.38 1.36 1.9-4.52-1-4.52-1 .33 2.65-3.53 2.53-1.2-1.91-1.2-1.91-3.43 1.3-4.28-.53 4.93-1.27 4.93-1.27z"/><path class="24f1f38f-c75d-46ac-b600-4461ff36a5bc" d="M123.33 210.81s-4.75-1.27-1.63-2.43a4 4 0 014.8 1.49 7.48 7.48 0 017.75-.54c4.09 2.22-3.68 1.76-3.68 1.76s4.75.37 1.36 1.89-4.52-.95-4.52-.95.33 2.64-3.53 2.52-1.2-1.9-1.2-1.9-3.43 1.3-4.28-.53 4.93-1.31 4.93-1.31z"/><path class="c2747a8c-ff80-49ac-b755-5cfd513f187b" d="M128.86 210.9c.07.36-.86.74-2.09.84s-2.28-.1-2.35-.47.87-.74 2.1-.84 2.27.1 2.34.47z"/><path class="23044d61-3162-4c0f-a9dc-113570292a95" d="M63.5 231.72s-2.35-1-.52-1.4a1.89 1.89 0 012.35 1.11s2.34-1.25 4.21.2-2.21.71-2.21.71 2.48.5.45 1.09-2.27-.79-2.27-.79-.21 1.43-2.25 1.12-.37-1.1-.37-1.1-2 .48-2.2-.55 2.81-.39 2.81-.39z"/><path class="24f1f38f-c75d-46ac-b600-4461ff36a5bc" d="M63.44 231.24s-2.36-1-.52-1.4a1.87 1.87 0 012.34 1.1s2.35-1.24 4.21.21-2.21.7-2.21.7 2.48.51.45 1.1-2.27-.8-2.27-.8-.2 1.43-2.25 1.12-.36-1.09-.36-1.09-2 .47-2.21-.56 2.82-.38 2.82-.38z"/><path class="c2747a8c-ff80-49ac-b755-5cfd513f187b" d="M66.38 231.64c0 .2-.57.34-1.24.32s-1.2-.21-1.19-.4.57-.34 1.24-.32 1.2.2 1.19.4z"/><path class="23044d61-3162-4c0f-a9dc-113570292a95" d="M94 229.88s-3.67-1.19-1.09-2a3 3 0 013.69 1.36 6.07 6.07 0 016.21-.13c3.08 1.92-3.07 1.26-3.07 1.26s3.75.48.92 1.56-3.52-.94-3.52-.94 0 2.13-3 1.88-.79-1.56-.79-1.56-2.84.9-3.35-.58 4-.85 4-.85z"/><path class="24f1f38f-c75d-46ac-b600-4461ff36a5bc" d="M93.8 229.18s-3.67-1.19-1.09-2a3 3 0 013.69 1.37 6.1 6.1 0 016.22-.14c3.07 1.92-3.08 1.26-3.08 1.26s3.75.48.93 1.56-3.53-.93-3.53-.93 0 2.12-3 1.88-.79-1.56-.79-1.56-2.84.9-3.36-.59 4.01-.85 4.01-.85z"/><path class="c2747a8c-ff80-49ac-b755-5cfd513f187b" d="M98.2 229.46c0 .29-.76.55-1.74.59s-1.8-.17-1.83-.46.76-.56 1.74-.6 1.81.17 1.83.47z"/><path class="1546749b-3828-4657-943a-57b62edc8f36" d="M138.31 236.63s-3.61-11.43-12.77-13.2c0 0 9.3 0 12.19 6.6 0 0-1.33-8.23-7.65-11.58 0 0 10.4 1.79 11.21 8.09 0 0 2.12-11.27 5.89-11.55 0 0-2.08 10 0 17.21 0 0 3.09-9.31 8.38-10 0 0-6.07 11.51-4.82 16.78l-2.68-2.54a4.31 4.31 0 00-1.31 3c0 1.89-3.82-3-3.82-3a10.36 10.36 0 01-5.41 4 3.16 3.16 0 00.79-3.81zM36.23 211.74s-2.94-9.36-10.44-10.8c0 0 7.61 0 10 5.4 0 0-1.08-6.73-6.26-9.47 0 0 8.51 1.46 9.17 6.61 0 0 1.74-9.22 4.82-9.44 0 0-1.7 8.22 0 14.08 0 0 2.53-7.62 6.86-8.21 0 0-5 9.42-3.94 13.73l-2.19-2.08a3.5 3.5 0 00-1.11 2.44c0 1.55-3.12-2.45-3.12-2.45a8.47 8.47 0 01-4.43 3.27 2.55 2.55 0 00.64-3.08zM149.4 203s-3-9.36-10.44-10.8c0 0 7.61 0 10 5.4 0 0-1.09-6.73-6.26-9.48 0 0 8.51 1.47 9.17 6.62 0 0 1.74-9.22 4.82-9.45 0 0-1.7 8.22 0 14.09 0 0 2.53-7.63 6.86-8.21 0 0-5 9.41-4 13.72l-2.19-2.07a3.49 3.49 0 00-1.07 2.46c0 1.55-3.12-2.45-3.12-2.45a8.47 8.47 0 01-4.43 3.27 2.57 2.57 0 00.66-3.1z"/><path class="b1ca37c3-856f-43ae-bf4d-5bc64861a255" d="M79.83 178.38c.13-.07 13.57-7.17 17.49-8.54l-.19-.53c-4 1.39-17 8.29-17.57 8.58l.27.49zM74.27 180l.11-.55c-.17 0-17.72-3.46-24.52-3.09v.55c6.73-.36 24.21 3.06 24.38 3.09z"/><path class="64a8079c-0cfb-4ab8-a2e8-82d37342a9f8" d="M78.58 176.8s2.43 0 6.56 8.27A36.52 36.52 0 0189 201s-.12 2.18-5.12 2.64-5 2.87-10.24 2.44-5.25-.36-5-1.71 2-8.17 3.08-11.39 3.31-12.43 1.21-15 5.65-1.18 5.65-1.18z"/><path class="b1ca37c3-856f-43ae-bf4d-5bc64861a255" d="M75.63 206.27a12.63 12.63 0 01-2 0l-.7-.05c-3.1-.26-4-.34-4.37-.77-.2-.26-.13-.62 0-1.06.25-1.32 2-8.18 3.09-11.41 1.21-3.63 3.21-12.43 1.23-14.9q-.52-.66-.33-1.11c.16-.37.67-.58 1.55-.66a21.77 21.77 0 014.56.37c.1 0 2.56.08 6.68 8.35a36.73 36.73 0 013.85 16c0 .09-.19 2.3-5.25 2.77a11.83 11.83 0 00-4.6 1.35 9.25 9.25 0 01-3.63 1.11zm-1.58-29.7c-1 .08-1.25.31-1.32.49s0 .47.29.83c2.28 2.83-.35 12.68-1.18 15.16-1.08 3.22-2.83 10.06-3.08 11.38-.08.42-.12.67 0 .83.25.33 1.4.43 4.16.65l.7.06a12.14 12.14 0 002 0 9 9 0 003.52-1.08 12.25 12.25 0 014.71-1.38c4.79-.44 5-2.49 5-2.5A36.57 36.57 0 0085 185.13c-4-8-6.41-8.19-6.45-8.19a21.8 21.8 0 00-4.51-.37z"/><path class="80f5d09d-f5a2-4d78-9f2f-793aff5167c1" d="M77.56 175a3.51 3.51 0 001 1.79 4.54 4.54 0 01.89 3.57 2.64 2.64 0 01-2.38 2c-2 0-2.84-2.66-2.85-4.26 0-1.09.16-3.28 1.52-3.6.33-.1 1.76.13 1.82.5z"/><path class="b1ca37c3-856f-43ae-bf4d-5bc64861a255" d="M77.25 182.45h-.16c-2.15 0-3-2.69-3-4.39 0-1.25.19-3.39 1.63-3.73h.09c.36 0 1.8.16 1.88.66a3.17 3.17 0 00.94 1.66v.06a4.73 4.73 0 01.91 3.69 2.75 2.75 0 01-2.35 2zm-1.45-7.84c-1.3.31-1.43 2.52-1.42 3.46 0 1.34.69 4.12 2.71 4.11a2.49 2.49 0 002.24-1.84 4.42 4.42 0 00-.86-3.45v-.07a3.48 3.48 0 01-1-1.79c0-.2-1.09-.46-1.62-.42z"/><path d="M72 203.71c3.67-2.44 3.2.75 10.47-3.24 1.89-1.05 6.08-1.07 6.36.11a3.47 3.47 0 01-.1.71c-.26.63-1.3 1.86-5 2.21-5 .46-4.7 2.89-10.18 2.44-2.07-.17-3.31-.27-4-.41-1.38-.31-.47.11 2.45-1.82z" fill="#5c0a37"/><path class="8738e301-020f-4634-9ad7-700a720b93b1" d="M95.44 155.7s-2.49.82-5.61-2.62c-4.14-4.55-8.22-7.85-14.39-6a15.45 15.45 0 00-12.33.73c-8.2 4.16-8.91 18.68-11.66 19.86l2 2.85 1.69-2.36-.89 3.2 3.41 2.5 1.05-2a5.12 5.12 0 001.06 4.14 32.93 32.93 0 0015 1.88c8.2-1 14.86-6.31 17.23-10.11l-.62-3.77.87 1.73 1.84-4.18-1.33-2.31 1.59.95s1.05-1.19 1.09-4.49z"/><path class="b1ca37c3-856f-43ae-bf4d-5bc64861a255" d="M73.72 178.13a33.44 33.44 0 01-14-2h-.06a5.24 5.24 0 01-1.19-3.53l-.77 1.4-3.63-2.65.71-2.53-1.34 1.88-2.2-3.16.15-.07c1-.41 1.7-2.66 2.63-5.51 1.61-4.94 3.81-11.7 9-14.34a15.67 15.67 0 0112.4-.76 12.66 12.66 0 012.48-.46c4.69-.38 8.18 2.34 12 6.55 2.33 2.56 4.3 2.7 5 2.64a1.91 1.91 0 00.42-.07l.19-.06v.2c0 3.33-1.08 4.57-1.13 4.63l-.07.09-1.23-.74 1.1 1.9-2 4.52-.59-1.18.46 2.89c-2.65 4.27-9.63 9.28-17.34 10.18l-1 .1zm18.12-10.38l-.6-3.69.27-.08.73 1.46 1.7-3.84-1.58-2.72 2 1.17a7.78 7.78 0 001-4.17h-.29c-1 .08-3-.17-5.28-2.73-3.79-4.15-7.27-6.8-11.79-6.44a12.56 12.56 0 00-2.46.48h-.06a15 15 0 00-6.5-.89 15.33 15.33 0 00-5.71 1.62c-5.11 2.59-7.3 9.29-8.89 14.18-.91 2.77-1.63 5-2.63 5.6l1.78 2.56 1.57-2.2.25.12-.86 3.11 3.2 2.34 1-1.86.26.09a5.05 5.05 0 001 4.05 33.28 33.28 0 0014.88 1.85c8.51-1 15-6.64 17.1-10z"/><path class="80f5d09d-f5a2-4d78-9f2f-793aff5167c1" d="M89.23 163.66s1.8 12.57-13 15.13-16.67-12.52-15-17.71 6.64-8.67 12.72-9.27 14.24-.18 15.28 11.85z"/><path class="b1ca37c3-856f-43ae-bf4d-5bc64861a255" d="M74.42 179.17c-4.54.36-8.09-1-10.56-4.09-3.53-4.39-3.74-11-2.76-14.05 1.63-5.15 6.55-8.73 12.84-9.36l.79-.07c5.8-.47 13.62.28 14.64 12 0 .13 1.65 12.73-13.09 15.29-.63.11-1.26.19-1.86.24zm.33-27.29L74 152c-6.17.61-11 4.13-12.6 9.17-1 3-.74 9.47 2.72 13.79 2.41 3 5.88 4.33 10.32 4 .59 0 1.21-.13 1.83-.24 14.47-2.51 12.87-14.85 12.86-15-1-11.52-8.66-12.25-14.34-11.79z"/><path class="d36ee9b7-ee6f-43d4-bea4-635d6c29c127" d="M85.94 153.8s-1.57 4.65-8.75 5-10.42-3.36-10.55-4.6 3.88-2.05 8.63-2.55 9 .24 10.67 2.15z"/><path class="b1ca37c3-856f-43ae-bf4d-5bc64861a255" d="M77.62 159h-.42c-7 .38-10.55-3.27-10.69-4.72-.12-1.18 2.82-2.09 8.75-2.7l.71-.07c4.76-.38 8.53.45 10.08 2.22v.14s-1.61 4.55-8.45 5.1zm8.16-5.12c-1.52-1.66-5.17-2.43-9.79-2.06l-.7.06c-7.81.81-8.55 1.95-8.5 2.4.1 1 3.08 4.87 10.39 4.47h.41c6.17-.49 8-4.26 8.19-4.84z"/><path class="d36ee9b7-ee6f-43d4-bea4-635d6c29c127" d="M60.8 166.34s-.67-1.56 2.59-3.27 5.61-5.85 3.51-8.16c0 0-6.4 1.68-6.1 11.43z"/><path class="b1ca37c3-856f-43ae-bf4d-5bc64861a255" d="M60.67 166.39a1.45 1.45 0 010-.8c0-9.09 6.15-10.8 6.21-10.81h.08l.06.07a3.39 3.39 0 01.77 3 8.37 8.37 0 01-4.31 5.38c-1.82 1-2.38 1.85-2.53 2.43v.72h-.27zm6.18-11.32c-.7.23-5.59 2.12-5.9 9.83a5.84 5.84 0 012.38-2 8.11 8.11 0 004.16-5.19 3.13 3.13 0 00-.64-2.69z"/><path d="M89.26 164.07c-.22.69.57-12-13-10.7s-15.26 10.5-15.2 14.89c0 0-6.11-10.58 6.24-16.28 12.62-5.83 25.7.75 21.96 12.09z" fill="#ffef1c"/><path class="b1ca37c3-856f-43ae-bf4d-5bc64861a255" d="M61.2 168.79l-.26-.46s-2.54-4.49-1.06-9.14c1-3.07 3.46-5.54 7.36-7.34a23.16 23.16 0 017.89-2.11c5.45-.44 10.27 1.26 12.87 4.62 2.12 2.68 2.59 6 1.36 9.75l-.05.12h-.09c-.16 0-.17-.08-.21-.49-.69-7.2-5.1-10.85-12.42-10.26h-.37c-13.64 1.33-15.08 10.76-15.06 14.75v.53zm15.41-15.59c7.4-.59 11.9 3.05 12.7 10.25a9.55 9.55 0 00-1.49-8.92c-2.58-3.25-7.31-4.94-12.67-4.51a23 23 0 00-7.79 2.08c-3.82 1.77-6.25 4.18-7.21 7.17a12 12 0 00.78 8.41c.13-4.33 2-13.16 15.3-14.45h.38z"/><path class="99393cd7-514d-40b2-b85c-94e7b28c8a4b" d="M78.65 184.24l-.04.56-.49.28.52.21.12.55.37-.43.55.06-.29-.48.22-.51-.54.14-.42-.38zM83.64 185.47l-.14.35-.37.09.29.23-.03.38.32-.2.34.14-.09-.36.25-.28-.38-.02-.19-.33zM85.9 190.73l-.21.52-.54.12.43.36-.05.55.47-.3.52.22-.14-.54.37-.42-.56-.03-.29-.48zM70.81 201.47l-.2.52-.55.12.43.36-.05.55.47-.3.52.22-.14-.54.37-.42-.56-.03-.29-.48zM78.52 199.23v.3l-.24.18.29.09.09.28.17-.24h.31l-.19-.25.1-.28-.29.1-.24-.18zM73.18 195.66l-.33.45-.56-.01.33.45-.18.52.53-.17.45.34v-.56l.46-.33-.54-.16-.16-.53zM79.14 192.06l-.04.56-.48.28.52.21.12.55.36-.43.56.05-.3-.47.22-.51-.54.13-.42-.37zM74.68 187.27l.01.55-.46.32.53.17.16.53.33-.45.56.01-.33-.45.18-.52-.53.17-.45-.33zM75.19 182.8l.01.34-.28.19.32.1.1.32.2-.27h.33l-.2-.26.11-.32-.32.11-.27-.21zM80.7 180.05l-.01.56-.46.31.53.18.16.53.33-.44.56.01-.33-.45.19-.52-.53.16-.44-.34zM86.58 197.25l-.44.34-.53-.16.2.53-.32.45.56-.02.34.44.14-.54.53-.19-.47-.3-.01-.55z"/><path class="80f5d09d-f5a2-4d78-9f2f-793aff5167c1" d="M83.71 218.44a16.9 16.9 0 01.82 1.49s0 1.84-1.17 2.11c-.56.13-1.18-.54-1.66-1.24a2 2 0 010-.24c-.03-1.3.36-4.95 2.01-2.12z"/><path class="b1ca37c3-856f-43ae-bf4d-5bc64861a255" d="M83.28 222.19c-.5 0-1.06-.39-1.7-1.31v-.29s0-3.23 1-3.31c.37 0 .78.34 1.24 1.12v.06c.2.34.5.86.78 1.44v.06c0 .08 0 1.95-1.28 2.24h-.11zm1.11-2.19c-.28-.56-.56-1.05-.76-1.39v-.06c-.51-.88-.82-1-1-1-.54 0-.82 1.82-.8 3v.2c.69 1 1.15 1.17 1.42 1.15h.07c.94-.22 1-1.7 1.06-1.94z"/><path class="70578aae-f05f-4ba9-9035-e577b6323f39" d="M83.36 222c1.14-.27 1.17-2.07 1.17-2.11.73 1.5 1.31 3.48-.35 4.29-2.2 1.06-2.45-2-2.48-3.42.48.74 1.1 1.41 1.66 1.24z"/><path class="b1ca37c3-856f-43ae-bf4d-5bc64861a255" d="M83.46 224.57a1.23 1.23 0 01-1-.31c-.58-.53-.9-1.69-1-3.45v-.47l.27.39c.78 1.11 1.24 1.23 1.52 1.17 1-.24 1.06-2 1.06-2l.27-.06c1.1 2.29 1 3.8-.42 4.47a2.08 2.08 0 01-.78.23zm1.15-4.11c-.1.6-.38 1.52-1.22 1.71-.46.11-1-.19-1.54-.91a4.18 4.18 0 00.84 2.79 1.21 1.21 0 001.43 0c1.12-.54 1.29-1.77.49-3.63z"/><path class="80f5d09d-f5a2-4d78-9f2f-793aff5167c1" d="M72.28 220.31c.06.32.15.81.2 1.35-.07.09-2.81 3.51-3.19-.46.82-2.01 2.45-3.65 2.99-.89z"/><path class="b1ca37c3-856f-43ae-bf4d-5bc64861a255" d="M70.49 223.25c-.75.06-1.2-.62-1.34-2v-.07c.48-1.17 1.3-2.37 2.08-2.44.39 0 .91.22 1.18 1.57a13.65 13.65 0 01.2 1.37v.06c0 .06-1.13 1.43-2.1 1.5zm1.85-1.63a11.32 11.32 0 00-.2-1.28c-.12-.64-.38-1.39-.88-1.35s-1.31 1-1.82 2.24c.12 1.2.46 1.79 1 1.74.76-.06 1.68-1.12 1.87-1.35z"/><path class="70578aae-f05f-4ba9-9035-e577b6323f39" d="M72.48 221.66a4.44 4.44 0 01-.4 2.45c-.71 1.27-3.06 1.74-3.25-.6a5.55 5.55 0 01.46-2.31c.38 3.97 3.12.55 3.19.46z"/><path class="b1ca37c3-856f-43ae-bf4d-5bc64861a255" d="M70.44 225.3c-.77.06-1.64-.37-1.75-1.78a5.61 5.61 0 01.47-2.37h.27c.12 1.23.47 1.83 1 1.78.84-.06 1.89-1.38 1.9-1.39l.22-.28v.35a4.44 4.44 0 01-.42 2.53 2.33 2.33 0 01-1.76 1.12zm1.92-3.3a3.49 3.49 0 01-1.87 1.23q-1 .08-1.26-1.47a4.79 4.79 0 00-.23 1.74c.08 1 .63 1.59 1.45 1.52A2 2 0 0072 224a3.82 3.82 0 00.41-2zM82.93 217.54c3.07-5.1 2.25-17.27 2.21-17.78h-.56c0 .13.84 12.51-2.13 17.46l.48.29zM71.66 219c3.08-5.22 3.52-15.89 3.54-16.34h-.56c0 .11-.46 11-3.47 16.07l.49.29z"/><path class="80f5d09d-f5a2-4d78-9f2f-793aff5167c1" d="M45.16 177.92c.69-.11 2.46-.46 2.46-.46a15.74 15.74 0 01-2-.53c-.86-.31-1-.88-.37-.91a15.28 15.28 0 012.55.5l-.84-.76c-1.22-1.22-.91-1.78-.25-1.27s1.92 1.31 1.92 1.31-1.19-1.63-.81-2.16.82.62 1.46 1.29a2 2 0 00.71.47 1.22 1.22 0 01.55 1.58v.1a5.6 5.6 0 00-.48 1c-.57 1.42-1.35 2.71-1.7 2.24s.11-1.34-.09-1.74-1.43.13-2.48.22-1.33-.8-.63-.88z"/><path class="b1ca37c3-856f-43ae-bf4d-5bc64861a255" d="M48.58 180.54a.38.38 0 01-.32-.16 1.56 1.56 0 01-.11-1.11 1.26 1.26 0 000-.64c-.07-.12-.59 0-1.16.08a9 9 0 01-1.19.21c-.71.06-1.13-.27-1.17-.62s.12-.46.5-.52 1.23-.22 1.8-.33a12.19 12.19 0 01-1.34-.39c-.55-.2-.89-.53-.85-.83 0-.09.09-.31.52-.35a11.59 11.59 0 012 .36l-.43-.39c-.65-.65-1-1.19-.85-1.49s.42-.26.79 0 .92.66 1.34.94c-.34-.56-.72-1.36-.44-1.76a.44.44 0 01.3-.2c.28 0 .52.32.82.75a5.56 5.56 0 00.56.72 1.76 1.76 0 00.68.45 1.39 1.39 0 01.61 1.78v.06a5.7 5.7 0 00-.47 1c-.16.39-1 2.38-1.62 2.43zm-.53-6.9l-.09.08c-.22.31.34 1.36.81 2l-.19.2s-1.27-.81-1.92-1.32c-.16-.12-.27-.17-.35-.15s0 .42.78 1.2l.84.76-.14.24a15.57 15.57 0 00-2.54-.49c-.12 0-.21.05-.22.11s.19.35.67.53a15.88 15.88 0 001.95.53v.27s-1.77.35-2.46.46c-.17 0-.27.1-.26.21s.31.42.87.37a8.77 8.77 0 001.14-.2 5.58 5.58 0 01.86-.15c.21 0 .5 0 .62.21a1.56 1.56 0 010 .81 1.31 1.31 0 00.06.91h.06c.25 0 .84-.87 1.38-2.25a6.89 6.89 0 01.49-1 .34.34 0 010-.09 1.09 1.09 0 00-.46-1.41 2.16 2.16 0 01-.77-.51 6 6 0 01-.58-.75c-.19-.27-.45-.64-.57-.63z"/><path class="80f5d09d-f5a2-4d78-9f2f-793aff5167c1" d="M96.47 169a1.8 1.8 0 00.56-.91c.25-.88.09-2.11.68-1.81s.3 2.28.3 2.28.74-1.29 1.08-2 .88-.42.38 1.23l-.38 1.06a15.29 15.29 0 012-1.63c.57-.27.72.3.11 1a15.92 15.92 0 01-1.49 1.4s1.72-.52 2.39-.75.81.65-.16 1.06-2.3.53-2.29 1 .81 1 .73 1.57-1.38-.19-2.55-1.19a6.19 6.19 0 00-1.09-.74.42.42 0 00-.08-.12 1 1 0 01-.19-1.45z"/><path class="b1ca37c3-856f-43ae-bf4d-5bc64861a255" d="M100.19 172.77a5.43 5.43 0 01-2.44-1.42 5.64 5.64 0 00-1.07-.73h-.05a.18.18 0 00-.05-.07 1.08 1.08 0 01-.19-1.55 1.79 1.79 0 00.52-.84 8.89 8.89 0 00.15-.9c.06-.58.12-1 .47-1.07a.48.48 0 01.25.06c.44.23.48 1.11.45 1.76.24-.44.55-1 .74-1.45s.54-.58.72-.35.17.86-.08 1.68l-.19.54a10.58 10.58 0 011.63-1.27c.3-.14.55-.09.66.11s0 .67-.39 1.08a11.22 11.22 0 01-1 1c.56-.17 1.35-.41 1.75-.55a.5.5 0 01.71.29c.07.31-.13.76-.77 1a8 8 0 01-1.14.37c-.47.13-1.07.3-1.06.47a1.18 1.18 0 00.31.56 1.51 1.51 0 01.42 1 .34.34 0 01-.34.32zm2.09-3.84h-.13c-.65.23-2.37.75-2.39.75l-.13-.24a15.8 15.8 0 001.47-1.38c.34-.37.39-.67.34-.76s-.1-.07-.28 0a16.05 16.05 0 00-2 1.6l-.23-.15.38-1.06c.33-1.06.16-1.41.12-1.43s-.13.08-.23.3c-.34.76-1.07 2.05-1.08 2.06l-.26-.08c.1-.79.1-2-.24-2.15a.17.17 0 00-.1 0c-.12 0-.17.48-.21.83a7.54 7.54 0 01-.16.93 2 2 0 01-.58 1 .82.82 0 00.18 1.17.42.42 0 01.08.12 5.32 5.32 0 011.08.74 5.32 5.32 0 002.25 1.35s.07 0 .08-.07a1.38 1.38 0 00-.38-.83 1.35 1.35 0 01-.36-.73c0-.39.56-.54 1.27-.74a8.83 8.83 0 001.1-.36c.51-.22.64-.55.6-.7s-.13-.13-.21-.13zM83.68 165.93a.14.14 0 00.1-.17c0-.13-.82-3.12-2.81-2.62s-1.61 3-1.6 3a.12.12 0 00.15.12.14.14 0 00.13-.15c0-.1-.29-2.29 1.39-2.7s2.46 2.39 2.47 2.42a.15.15 0 00.15.11zM68.31 168a.13.13 0 00.13-.14s.06-3 1.59-3.22c1.73-.3 2.54 2.39 2.55 2.42a.15.15 0 00.18.09.14.14 0 00.09-.17c0-.12-.89-3-2.87-2.62-1.76.31-1.82 3.37-1.82 3.5a.14.14 0 00.14.14z"/><path class="163b77b7-f1f4-47fb-9485-5ed8d05f6cd8" d="M81.81 168.67s-.34 2.27-5.93 3-7.12-1.67-7.12-1.67a6.34 6.34 0 007.16 5.92c6.76-.45 5.89-7.25 5.89-7.25z"/><path class="b1ca37c3-856f-43ae-bf4d-5bc64861a255" d="M76.06 176h-.13a6.71 6.71 0 01-5.08-1.46 7.15 7.15 0 01-2.23-4.54v-.54l.3.45s1.57 2.32 7 1.62 5.81-2.86 5.82-2.89H82a7.57 7.57 0 01-1.4 5.29 6.12 6.12 0 01-4.49 2.1zm5.65-6.78c-.48.75-1.86 2-5.81 2.54-4.33.57-6.25-.71-6.94-1.37a6.89 6.89 0 002.04 3.99 6.53 6.53 0 004.88 1.4H76a5.86 5.86 0 004.29-2 7.14 7.14 0 001.38-4.5z"/><g class="41b12965-a1ef-4425-93b1-b31a4707afa3"><path class="64a8079c-0cfb-4ab8-a2e8-82d37342a9f8" d="M74.19 179.19s2 5.09-2 15.66c-1.6 4.24-.71 7.24 3.06 7.81a5.32 5.32 0 00-3.44 1.17 16.19 16.19 0 01-2.89 1.5c-.24 0-.29-.28-.2-.74s1.15-4.81 1.15-4.81l1.13-4.23s1.21-3.84 1.31-4.19.71-2.88.9-3.82c.23-1.22.66-4.69.66-5.22a12 12 0 00-.28-3.1z"/></g><g class="41b12965-a1ef-4425-93b1-b31a4707afa3"><path class="10fb08dd-018e-47a1-b59e-2be918fa426a" d="M64.11 162.65s-1.74 11.92 5.8 14.72c8 3 15.74-3.06 15.74-3.06a18.39 18.39 0 01-12.19 4.77c-8 .29-11.6-5.7-12.37-10.65 0 0-.08-3.65.59-4.19s2.43-1.59 2.43-1.59z"/></g><path class="b1ca37c3-856f-43ae-bf4d-5bc64861a255" d="M89.84 155.48l.23-.17c-6.91-9.5-13.94-7-14.58-6.76-.87-.19-13.41-2.78-17.73 9.36l.24.09c4.36-12.27 17.31-9.2 17.44-9.17.07 0 7.21-3.08 14.28 6.65z"/><path class="b1ca37c3-856f-43ae-bf4d-5bc64861a255" d="M75.54 148.89l.08-.11c2.25-3.12 7.21-.58 7.26-.55L83 148c-.06 0-5.11-2.62-7.54.53a11.25 11.25 0 00-13.6 1.16l.19.21a11 11 0 0113.36-1.07l.12.08zM81.8 220.48a3.19 3.19 0 012.41-1v-.28a3.45 3.45 0 00-2.64 1.13l.22.17zM72.34 221.09l.1-.27a5.52 5.52 0 00-3-.14l.08.27a5.13 5.13 0 012.83.14zM124.46 186.64a16.93 16.93 0 01-11.23-4.31.38.38 0 00-.53 0l-.35-.36a.88.88 0 011.24 0c.07.07 6.17 6.21 16.53 3.45l.14.48a20.74 20.74 0 01-5.8.73z"/><path class="9b23db8d-a837-40c0-b458-6850d7803ac9" d="M135.43 184.94c-.64.19-2.29.62-2.29.62a15.83 15.83 0 001.46-1.26c.6-.62.48-1.16-.07-.92a14.19 14.19 0 00-2 1.46l.4-1c.53-1.54 0-1.88-.31-1.18s-1.09 1.9-1.09 1.9.33-1.87-.21-2.17-.44.86-.71 1.69a1.58 1.58 0 01-.41.69 1.18 1.18 0 00.19 1.58l.06.07a6.22 6.22 0 01.82.64c1.07 1 2.27 1.75 2.37 1.21s-.65-1.1-.64-1.51 1.27-.48 2.2-.83.86-1.19.23-.99z"/><path class="b1ca37c3-856f-43ae-bf4d-5bc64861a255" d="M133.45 188.58a5.21 5.21 0 01-2.23-1.42 5.73 5.73 0 00-.8-.62 1.32 1.32 0 01-.22-1.76 1.59 1.59 0 00.39-.66 4.83 4.83 0 00.18-.84c.08-.53.16-1 .49-1a.4.4 0 01.22.07c.41.22.4 1.1.35 1.7.24-.4.57-1 .77-1.37s.3-.42.47-.42a.26.26 0 01.22.12c.17.24.12.81-.14 1.57l-.22.53a10.39 10.39 0 011.61-1.16c.29-.12.53-.06.61.14s-.05.62-.4 1a13.37 13.37 0 01-1 .91c.54-.14 1.32-.35 1.71-.47a.47.47 0 01.65.3c.05.29-.16.7-.76.93a7.43 7.43 0 01-1.09.31c-.46.11-1 .24-1 .41a1.31 1.31 0 00.27.55 1.45 1.45 0 01.37 1 .32.32 0 01-.45.18zm-2.25-6.11c-.12 0-.19.45-.24.78a4.62 4.62 0 01-.19.88 2 2 0 01-.43.74 1 1 0 00.18 1.4l.06.07a7.41 7.41 0 01.81.63 5.05 5.05 0 002.06 1.36c.08 0 .09 0 .1-.07 0-.25-.14-.53-.32-.8a1.33 1.33 0 01-.32-.7c0-.36.54-.48 1.22-.64a8 8 0 001.06-.3c.49-.19.63-.5.6-.65a.17.17 0 00-.19-.14h-.14c-.63.19-2.27.62-2.28.62l-.11-.22a16.61 16.61 0 001.44-1.25c.33-.35.39-.62.35-.72s0 0-.09 0a.5.5 0 00-.19 0 14.3 14.3 0 00-1.93 1.45l-.2-.15.4-1c.29-.84.25-1.23.17-1.34s-.15.06-.25.27c-.35.7-1.09 1.89-1.09 1.9l-.24-.08c.13-.69.2-1.86-.14-2.05zM103.71 177.24a16.91 16.91 0 0010.11 6.5.38.38 0 01.33.42l.5.06a.89.89 0 00-.76-1c-.09 0-8.68-1.3-12.52-11.26l-.47.18a20.29 20.29 0 002.81 5.08z"/><path class="9b23db8d-a837-40c0-b458-6850d7803ac9" d="M98.66 167.44c.21.62.83 2.19.83 2.19a15.49 15.49 0 01.18-1.91c.15-.84.66-1.07.79-.48a14.74 14.74 0 010 2.43l.57-.9c.94-1.33 1.51-1.14 1.14-.44s-.9 2-.9 2 1.32-1.37 1.89-1.11-.45.86-1 1.56a1.74 1.74 0 00-.32.74 1.17 1.17 0 01-1.4.77h-.09a6.48 6.48 0 00-1-.29c-1.43-.28-2.76-.79-2.38-1.19s1.28-.12 1.61-.37-.36-1.3-.61-2.26.48-1.37.69-.74z"/><path class="b1ca37c3-856f-43ae-bf4d-5bc64861a255" d="M100.69 172.42a1.37 1.37 0 01-.28 0h-.11a5.49 5.49 0 00-1-.28c-.39-.08-2.36-.5-2.54-1.08a.33.33 0 01.09-.32 1.48 1.48 0 011-.29 1.27 1.27 0 00.61-.1c.13-.1-.09-.64-.27-1.07a7 7 0 01-.39-1.06 1.13 1.13 0 01.11-1 .52.52 0 01.38-.2.49.49 0 01.45.38c.13.39.42 1.14.62 1.65 0-.38.07-.89.14-1.34s.36-.92.65-.92c.09 0 .31.05.39.43a9.92 9.92 0 010 2l.31-.48c.46-.66.9-1 1.2-1a.29.29 0 01.24.13c.08.13 0 .34-.09.6s-.47 1-.66 1.43a2.65 2.65 0 011.38-.77.65.65 0 01.21 0 .35.35 0 01.23.26c0 .25-.22.52-.56.86a5.15 5.15 0 00-.59.64 1.8 1.8 0 00-.3.68 1.26 1.26 0 01-1.22.85zm-.28-.27h.24a1 1 0 001-.72 1.84 1.84 0 01.34-.76 5.58 5.58 0 01.61-.67c.23-.23.52-.51.5-.63s-.06-.06-.09-.08h-.11c-.47 0-1.35.8-1.64 1.1l-.21-.13s.55-1.31.91-2c.12-.22.1-.33.09-.35s-.5.19-1 .92l-.57.9-.23-.08a14.49 14.49 0 000-2.4c0-.14-.08-.23-.14-.23s-.31.23-.4.71a16.35 16.35 0 00-.17 1.9h-.25s-.62-1.58-.83-2.21c-.08-.23-.26-.27-.39-.1a.89.89 0 00-.07.77 8 8 0 00.38 1c.27.63.48 1.14.19 1.36a1.42 1.42 0 01-.75.15 1.36 1.36 0 00-.85.21.08.08 0 000 .08c.07.22.92.62 2.35.9a5.62 5.62 0 011 .29zM101.67 221.17a.87.87 0 01-.78-.88 52.29 52.29 0 012.28-15.47l.48.16a51.21 51.21 0 00-2.26 15.31.37.37 0 00.34.38l-.06.5z"/><path class="faff6b6e-f797-48cc-84c5-0b2904d1302f" d="M100.74 220.07a3.46 3.46 0 01-2.44.9c-2 .12-4.36-.75-5.52 0s.6 2.44 4.71 2.5 5.29-1.65 4.84-2.69-1.11-1.05-1.59-.71z"/><path class="b1ca37c3-856f-43ae-bf4d-5bc64861a255" d="M97.69 223.59h-.2c-3-.05-4.9-1-5.15-1.88a.73.73 0 01.37-.86 2.54 2.54 0 011.41-.32 14.24 14.24 0 011.74.16 14.36 14.36 0 002.44.16 3.39 3.39 0 002.34-.86 1.15 1.15 0 01.66-.23c.32 0 .78.17 1.12 1a1.33 1.33 0 01-.17 1.29c-.25.43-1.37 1.54-4.56 1.54zm-3.57-2.81a2.32 2.32 0 00-1.27.28.49.49 0 00-.27.58c.19.68 1.85 1.65 4.91 1.7h.2c3.07 0 4.08-1 4.37-1.47a1.07 1.07 0 00.15-1.05c-.34-.79-.86-1-1.39-.65a3.66 3.66 0 01-2.51.93 13.79 13.79 0 01-2.48-.17 16.31 16.31 0 00-1.71-.15zM117.41 221.61c-3-5.42-4.12-14.34-4.13-14.42l.5-.07c0 .09 1.14 8.92 4.07 14.25l-.44.24z"/><path class="faff6b6e-f797-48cc-84c5-0b2904d1302f" d="M124 218.25s-1.61-.32-4.49 1.51-2.91 2.38-2.84 3.79a1.13 1.13 0 00.08.36s0-.36 1.22-1.52c1.43-1.33 6.08-4.44 6.25-3.52a.09.09 0 000 .05.6.6 0 00-.22-.67z"/><path class="b1ca37c3-856f-43ae-bf4d-5bc64861a255" d="M116.89 224.17l-.28-.17a1 1 0 01-.08-.39c-.09-1.52 0-2.09 2.89-3.91a8.21 8.21 0 014.23-1.54 2.37 2.37 0 01.35 0 .71.71 0 01.34.82l-.09.47-.15-.45a.09.09 0 010-.07s0-.06-.14-.06c-1 0-4.67 2.51-5.9 3.65s-1.18 1.43-1.18 1.44zm6.75-5.81a8 8 0 00-4.1 1.5c-2.87 1.83-2.84 2.34-2.77 3.69a6.68 6.68 0 011.12-1.25c1.25-1.16 5-3.72 6.07-3.72h.16a.46.46 0 00-.19-.25z"/><path d="M118 222.41c-1.24 1.16-1.22 1.52-1.22 1.52.41 1.12 2.54.07 4.1-1.08s3.24-2.87 3.43-3.89a.09.09 0 010-.05c-.26-.91-4.91 2.17-6.31 3.5z" fill="#0a9c83"/><path class="b1ca37c3-856f-43ae-bf4d-5bc64861a255" d="M117.5 224.52a.88.88 0 01-.9-.57l-.12-.32.2.11a5.18 5.18 0 011.21-1.42c1.25-1.16 5-3.72 6.07-3.72.3 0 .37.18.38.27v.06c-.19 1.06-1.89 2.8-3.47 4-.47.37-2.21 1.59-3.37 1.59zm-.62-.56a.63.63 0 00.62.3 7.15 7.15 0 003.25-1.53c1.48-1.1 3.15-2.78 3.36-3.77a.43.43 0 010-.05s0-.06-.14-.06c-1 0-4.67 2.51-5.9 3.65s-1.18 1.43-1.18 1.44z"/><path class="d60e6c00-2464-4eab-a29c-21029c9f5153" d="M109.33 179.91s-1.28 1.72-2.44 3.48l3 1.09 3-3.49z"/><path class="b1ca37c3-856f-43ae-bf4d-5bc64861a255" d="M109.89 184.63l-3.19-1.18.09-.13c1.14-1.74 2.42-3.46 2.44-3.48v-.07l3.84 1.15zm-2.81-1.31l2.73 1 2.86-3.29-3.29-1c-.25.36-1.31 1.81-2.3 3.29z"/><path class="d60e6c00-2464-4eab-a29c-21029c9f5153" d="M112.76 181.79s-1.78 2.27-.06 3.28c1.49.87 2.54-.86 3-2.12l-2.81-2z"/><path class="b1ca37c3-856f-43ae-bf4d-5bc64861a255" d="M113.49 185.43a1.69 1.69 0 01-.86-.25 1.54 1.54 0 01-.78-1.05 3.62 3.62 0 01.79-2.39l.18-1 3.05 2.12v.1c-.31.77-1.09 2.47-2.38 2.47zm-.49-4.22l-.14.66a3.46 3.46 0 00-.76 2.22 1.27 1.27 0 00.66.87 1.43 1.43 0 00.73.22c1.1 0 1.83-1.57 2.08-2.18z"/><path class="d60e6c00-2464-4eab-a29c-21029c9f5153" d="M116.4 183.21l.32 3.34 3.2 1.17 1.3-3.15-4.82-1.36z"/><path class="b1ca37c3-856f-43ae-bf4d-5bc64861a255" d="M120 187.88l-3.4-1.24-.34-3.6 5.13 1.45zm-3.16-1.42l3 1.1 1.2-2.9-4.51-1.28z"/><path class="92a9e6d9-41a2-4ed5-8173-6c2e3e8ca1e9" d="M116.62 186l-.29-3.56h-.43c-.34 1.2-1.48 3.66-3.2 2.65s.06-3.28.06-3.28l.15-.8-3 3.49s-9.82 8.67-13.26 12.9c0 0 .77 8.28 11.14 11a15 15 0 0013.21-3.23s-4.09-11.02-4.38-19.17z"/><path class="b1ca37c3-856f-43ae-bf4d-5bc64861a255" d="M111.34 208.92a14.19 14.19 0 01-3.63-.47c-10.33-2.66-11.22-11-11.23-11.06 3.4-4.18 13.17-12.82 13.27-12.91l3.08-3.55.19.06v.01l-.17.86a3.46 3.46 0 00-.76 2.22 1.27 1.27 0 00.66.87 1.43 1.43 0 00.73.22c1.18 0 2-1.76 2.29-2.79v-.1l.63.05.3 3.65c.28 8 4.38 19 4.42 19.14v.08l-.07.06a15.61 15.61 0 01-9.71 3.66zm-14.61-11.5c.08.69 1.29 8.28 11 10.79a14.16 14.16 0 003.57.46 15.38 15.38 0 009.56-3.54c-.38-1-4.13-11.43-4.4-19.12l-.28-3.44h-.22c-.34 1.12-1.21 2.88-2.5 2.88a1.69 1.69 0 01-.86-.25 1.54 1.54 0 01-.78-1.05 3.62 3.62 0 01.79-2.39l.06-.35-2.67 3.15c-.16.1-9.85 8.67-13.27 12.86z"/><path class="4804e690-67ca-446c-b400-dbe7d409ab58" d="M101.61 197.72s.32-1.43-.6-1.56a.92.92 0 00-1 1.31s-1.35-.77-1.77.11.59 1.29 1.1 1.35c0 0-1.51 1.13-.63 2s2-.69 2-.69 0 1.67 1.13 1.53c.95-.12 1-1.59.14-2.17 0 0 1.89-.33 2-1.3s-1.34-1.59-2.37-.58z"/><path class="b1ca37c3-856f-43ae-bf4d-5bc64861a255" d="M101.66 201.88c-.83 0-1-1-1.07-1.41a2 2 0 01-1.32.84 1 1 0 01-.66-.29 1 1 0 01-.29-.76 2.2 2.2 0 01.8-1.29 1.55 1.55 0 01-1-.62.86.86 0 010-.81.81.81 0 01.79-.46 2.29 2.29 0 01.93.25 1.11 1.11 0 01.16-.88 1 1 0 011-.36.71.71 0 01.53.31 1.76 1.76 0 01.18 1.12 1.66 1.66 0 011-.39 1.3 1.3 0 011 .41 1.09 1.09 0 01.27.8c-.1.85-1.42 1.22-1.9 1.33a1.56 1.56 0 01.47 1.48.88.88 0 01-.77.72zm-.93-1.85v.24s0 1.46.93 1.46h.12a.76.76 0 00.64-.61 1.39 1.39 0 00-.53-1.43l-.15-.1h.18s1.83-.33 1.92-1.23a.82.82 0 00-.22-.67 1.16 1.16 0 00-.86-.37 1.56 1.56 0 00-1.1.49l-.18.18v-.25a1.86 1.86 0 00-.12-1.22.57.57 0 00-.42-.25.86.86 0 00-.86.31 1 1 0 00-.08.91l.06.19-.17-.1a2.37 2.37 0 00-1-.31.68.68 0 00-.66.38.7.7 0 000 .66 1.46 1.46 0 001 .58h.19l-.15.12a2.3 2.3 0 00-.87 1.28.81.81 0 00.25.64.76.76 0 00.55.25c.66 0 1.32-.93 1.32-.94z"/><path class="ecc72a6b-2b28-469a-b42b-92740906f234" d="M101 198.45a.72.72 0 00-1.11.25c-.45.71.68 1.22 1.19.81a.65.65 0 00-.08-1.06z"/><path class="b1ca37c3-856f-43ae-bf4d-5bc64861a255" d="M100.61 199.73a1 1 0 01-.84-.43.6.6 0 010-.64.85.85 0 01.72-.45.81.81 0 01.5.18.89.89 0 01.35.65.65.65 0 01-.27.53.84.84 0 01-.46.16zm-.07-1.37a.72.72 0 00-.59.38.45.45 0 000 .48.85.85 0 00.71.36.7.7 0 00.42-.13.51.51 0 00.21-.41.77.77 0 00-.3-.54.67.67 0 00-.45-.14z"/><path class="4804e690-67ca-446c-b400-dbe7d409ab58" d="M109.36 196.7s.27-1.17-.49-1.28a.76.76 0 00-.85 1.08s-1.11-.63-1.46.08.49 1.07.9 1.11c0 0-1.23.94-.51 1.68s1.63-.58 1.63-.58 0 1.38.93 1.26.81-1.3.12-1.78c0 0 1.55-.27 1.63-1.07s-1.05-1.33-1.9-.5z"/><path class="b1ca37c3-856f-43ae-bf4d-5bc64861a255" d="M109.41 200.14c-.68 0-.85-.77-.89-1.14a1.66 1.66 0 01-1.08.67.84.84 0 01-.79-.88 1.79 1.79 0 01.64-1 1.25 1.25 0 01-.81-.52.73.73 0 01.67-1.06 1.86 1.86 0 01.75.2 1 1 0 01.13-.71.82.82 0 01.85-.3.58.58 0 01.44.26 1.4 1.4 0 01.15.9 1.37 1.37 0 01.84-.3 1.08 1.08 0 01.81.34.81.81 0 01.22.66c-.08.69-1.13 1-1.54 1.1a1.3 1.3 0 01.37 1.22.75.75 0 01-.65.6zm-.75-1.58v.23s0 1.2.75 1.2h.09a.6.6 0 00.52-.49 1.14 1.14 0 00-.43-1.16l-.15-.1h.18s1.49-.28 1.57-1a.69.69 0 00-.18-.54.93.93 0 00-.7-.29 1.27 1.27 0 00-.89.39l-.18.18.05-.25a1.54 1.54 0 00-.1-1 .46.46 0 00-.33-.2.69.69 0 00-.7.25.8.8 0 00-.07.73l.07.2-.18-.11a2.08 2.08 0 00-.83-.24.52.52 0 00-.52.3.56.56 0 000 .53 1.25 1.25 0 00.86.47h.19l-.15.12a1.85 1.85 0 00-.71 1 .64.64 0 00.2.51.59.59 0 00.44.21c.54 0 1.07-.76 1.08-.77z"/><path class="ecc72a6b-2b28-469a-b42b-92740906f234" d="M108.86 197.3a.59.59 0 00-.91.21c-.38.58.55 1 1 .66a.54.54 0 00-.09-.87z"/><path class="b1ca37c3-856f-43ae-bf4d-5bc64861a255" d="M108.55 198.37a.82.82 0 01-.71-.37.51.51 0 010-.53.74.74 0 01.61-.38.65.65 0 01.41.15.72.72 0 01.29.55.52.52 0 01-.22.44.66.66 0 01-.38.14zm-.06-1.13a.59.59 0 00-.48.31.34.34 0 000 .38.66.66 0 00.57.29.52.52 0 00.33-.11.38.38 0 00.16-.32.57.57 0 00-.23-.43.51.51 0 00-.35-.12z"/><path class="4804e690-67ca-446c-b400-dbe7d409ab58" d="M117.85 204.83s1.45-.29 1.19-1.18a.93.93 0 00-1.62-.41s.17-1.53-.81-1.57-1 1.06-.8 1.54c0 0-1.66-.9-2.13.26s1.44 1.52 1.44 1.52-1.53.7-1 1.65 1.85.25 2-.75c0 0 .53 1.19 1.46.89s1.62-1.42.27-1.95z"/><path class="b1ca37c3-856f-43ae-bf4d-5bc64861a255" d="M114.87 207.11a.89.89 0 01-.77-.43.84.84 0 01-.1-.72 1.9 1.9 0 01.91-.94 2.11 2.11 0 01-1.28-.81.83.83 0 010-.77 1 1 0 011-.64 2.65 2.65 0 011.09.28 1.56 1.56 0 01.17-1.16.81.81 0 01.7-.32.78.78 0 01.58.27 1.91 1.91 0 01.32 1.21 1.2 1.2 0 01.68-.24 1 1 0 01.93.79.7.7 0 01-.08.6 1.74 1.74 0 01-1 .62 1 1 0 01.64.88 1.36 1.36 0 01-1 1.12 1.13 1.13 0 01-.32.05 1.43 1.43 0 01-1.13-.8 1.57 1.57 0 01-1.34 1.01zm-.27-4.11a.84.84 0 00-.85.55.72.72 0 000 .64c.31.57 1.36.78 1.38.78l.23.05-.22.09s-.83.39-1 .95a.7.7 0 00.09.59.73.73 0 00.64.36 1.4 1.4 0 001.28-1.08v-.23l.1.21s.41.89 1.09.89a.9.9 0 00.28 0 1.23 1.23 0 00.91-1c0-.35-.25-.64-.74-.83l-.24-.1.25-.05a1.87 1.87 0 001.07-.6.54.54 0 00.06-.48.81.81 0 00-.78-.68 1.06 1.06 0 00-.72.31l-.15.14v-.2a2 2 0 00-.26-1.28.69.69 0 00-.48-.21.68.68 0 00-.58.26 1.42 1.42 0 00-.1 1.18l.05.18-.16-.09a3 3 0 00-1.15-.35z"/><path class="ecc72a6b-2b28-469a-b42b-92740906f234" d="M116.93 204.56c.1-.37-.07-.8-.68-.9-.84-.13-.85 1.1-.26 1.41a.66.66 0 00.94-.51z"/><path class="b1ca37c3-856f-43ae-bf4d-5bc64861a255" d="M116.28 205.22a.68.68 0 01-.33-.09 1 1 0 01-.42-1.06.61.61 0 01.73-.48.9.9 0 01.65.36.8.8 0 01.1.63.82.82 0 01-.73.64zm-.15-1.49a.44.44 0 00-.45.37.83.83 0 00.34.9.68.68 0 00.26.07.66.66 0 00.58-.53.65.65 0 00-.07-.51.83.83 0 00-.55-.3z"/><g class="91f487f5-8873-4962-a350-ac96975804a5"><path class="92a9e6d9-41a2-4ed5-8173-6c2e3e8ca1e9" d="M116.62 186l-.29-3.56h-.43a5.32 5.32 0 01-1.5 2.55 31.57 31.57 0 01.66 14.25c-1.58 8.27-11.26 9.56-15.81 4a.46.46 0 01-.07-.07 15.46 15.46 0 008.55 5.2 15 15 0 0013.27-3.2s-4.09-11.02-4.38-19.17z"/></g><g clip-path="url(#7cc5f621-3c80-4497-9c04-edfe037f2bbb)"><path class="4804e690-67ca-446c-b400-dbe7d409ab58" d="M118.65 196s1.45-.29 1.19-1.18a.92.92 0 00-1.62-.4s.17-1.54-.81-1.58-1 1.06-.81 1.55c0 0-1.65-.91-2.12.25s1.44 1.52 1.44 1.52-1.54.7-1 1.65 1.86.25 2.06-.75c0 0 .53 1.19 1.46.89s1.56-1.38.21-1.95z"/><path class="b1ca37c3-856f-43ae-bf4d-5bc64861a255" d="M115.67 198.32a.86.86 0 01-.77-.43.84.84 0 01-.1-.72 1.9 1.9 0 01.91-.94 2.14 2.14 0 01-1.28-.8.85.85 0 010-.78 1 1 0 011-.64 2.82 2.82 0 011.09.28 1.56 1.56 0 01.17-1.16.83.83 0 01.7-.32.78.78 0 01.58.27 1.93 1.93 0 01.32 1.21 1.17 1.17 0 01.68-.24 1 1 0 01.93.79.74.74 0 01-.08.6 1.74 1.74 0 01-1 .62c.57.29.65.67.64.88a1.36 1.36 0 01-1 1.12.86.86 0 01-.32.05 1.47 1.47 0 01-1.14-.8 1.53 1.53 0 01-1.33 1.01zm-.27-4.16a.84.84 0 00-.85.54.76.76 0 000 .66c.31.56 1.37.77 1.38.77h.23l-.22.1s-.84.39-1 .95a.7.7 0 00.09.59.71.71 0 00.64.36 1.41 1.41 0 001.28-1.08v-.23l.09.21s.41.89 1.09.89a1 1 0 00.28 0 1.22 1.22 0 00.91-1c0-.34-.25-.64-.74-.83l-.24-.1h.25a1.9 1.9 0 001.07-.59.6.6 0 00.06-.49.81.81 0 00-.78-.68 1.06 1.06 0 00-.72.31l-.15.14v-.2a2 2 0 00-.27-1.28.65.65 0 00-.47-.21.68.68 0 00-.58.26 1.42 1.42 0 00-.1 1.18v.18l-.16-.09a3 3 0 00-1.09-.36z"/><path class="ecc72a6b-2b28-469a-b42b-92740906f234" d="M117.73 195.77a.7.7 0 00-.68-.9c-.84-.13-.85 1.1-.26 1.41a.67.67 0 00.94-.51z"/><path class="b1ca37c3-856f-43ae-bf4d-5bc64861a255" d="M117.08 196.43a.68.68 0 01-.33-.09 1 1 0 01-.42-1.06.6.6 0 01.6-.49h.13a.9.9 0 01.65.36.84.84 0 01-.63 1.27zm-.15-1.49a.44.44 0 00-.45.37.83.83 0 00.34.9.54.54 0 00.26.07.67.67 0 00.58-.53.61.61 0 00-.07-.5.75.75 0 00-.55-.3z"/><path class="4804e690-67ca-446c-b400-dbe7d409ab58" d="M108.22 207.48s1.44-.28 1.19-1.18a.93.93 0 00-1.63-.4s.17-1.54-.81-1.57-1 1-.8 1.54c0 0-1.65-.91-2.13.25s1.45 1.53 1.45 1.53-1.54.69-1 1.64 1.86.25 2.06-.74c0 0 .52 1.18 1.46.88s1.55-1.43.21-1.95z"/><path class="b1ca37c3-856f-43ae-bf4d-5bc64861a255" d="M105.24 209.76a.88.88 0 01-.78-.43.86.86 0 01-.1-.71 2 2 0 01.91-1 2.09 2.09 0 01-1.27-.8.89.89 0 010-.78 1 1 0 011-.64 2.82 2.82 0 011.09.28 1.48 1.48 0 01.16-1.15.83.83 0 01.71-.33.76.76 0 01.57.27 1.86 1.86 0 01.32 1.21 1.19 1.19 0 01.69-.23 1 1 0 01.92.78.76.76 0 01-.07.61 1.78 1.78 0 01-1 .61 1 1 0 01.65.89 1.38 1.38 0 01-1 1.11.93.93 0 01-.32.05 1.45 1.45 0 01-1.14-.8 1.53 1.53 0 01-1.34 1.06zm-.27-4.15a.85.85 0 00-.86.54.74.74 0 000 .65c.31.56 1.36.77 1.37.77l.23.05-.21.09s-.84.39-1 .95a.72.72 0 00.08.6.73.73 0 00.65.35 1.39 1.39 0 001.27-1.08v-.23l.1.22s.4.88 1.09.88a.84.84 0 00.27 0 1.2 1.2 0 00.91-1c0-.34-.25-.64-.74-.83l-.24-.1h.25s.81-.17 1.08-.6a.58.58 0 00.06-.48.81.81 0 00-.78-.68 1.08 1.08 0 00-.72.3l-.15.14v-.2a2 2 0 00-.27-1.27.62.62 0 00-.47-.22.7.7 0 00-.59.26 1.52 1.52 0 00-.1 1.19l.06.18-.17-.09a2.68 2.68 0 00-1.09-.39z"/><path class="ecc72a6b-2b28-469a-b42b-92740906f234" d="M107.3 207.21a.72.72 0 00-.69-.9c-.83-.12-.84 1.11-.26 1.41a.67.67 0 00.95-.51z"/><path class="b1ca37c3-856f-43ae-bf4d-5bc64861a255" d="M106.65 207.87a.68.68 0 01-.33-.09 1 1 0 01-.42-1.06.59.59 0 01.6-.49h.13a.92.92 0 01.65.36.76.76 0 01.09.63.8.8 0 01-.72.65zm-.15-1.49a.44.44 0 00-.45.38.82.82 0 00.34.89.48.48 0 00.26.07.66.66 0 00.58-.52.63.63 0 00-.08-.51.75.75 0 00-.55-.3z"/><path class="4804e690-67ca-446c-b400-dbe7d409ab58" d="M105.55 191s1.44-.28 1.19-1.17a.93.93 0 00-1.63-.41s.17-1.54-.81-1.57-1 1.06-.8 1.54c0 0-1.65-.91-2.13.25s1.45 1.53 1.45 1.53-1.54.69-1 1.65c.49.81 1.86.25 2.06-.75 0 0 .52 1.18 1.45.88s1.56-1.38.22-1.95z"/><path class="b1ca37c3-856f-43ae-bf4d-5bc64861a255" d="M102.57 193.32a.88.88 0 01-.78-.43.86.86 0 01-.1-.71 2 2 0 01.91-1 2.09 2.09 0 01-1.27-.8.88.88 0 010-.78 1 1 0 011-.63 2.89 2.89 0 011.09.27 1.51 1.51 0 01.16-1.16.84.84 0 01.71-.32.76.76 0 01.57.27 1.86 1.86 0 01.32 1.21 1.19 1.19 0 01.69-.23 1 1 0 01.92.79.74.74 0 01-.07.6 1.79 1.79 0 01-1 .61 1 1 0 01.64.89 1.38 1.38 0 01-1 1.11 1 1 0 01-.32.06 1.44 1.44 0 01-1.14-.81 1.53 1.53 0 01-1.33 1.06zm-.27-4.15a.85.85 0 00-.86.54.74.74 0 000 .65c.31.56 1.36.77 1.37.78h.23l-.21.1s-.84.38-1 .94a.66.66 0 00.09.6.7.7 0 00.64.35 1.39 1.39 0 001.27-1.07v-.24l.1.22s.4.88 1.09.88a.84.84 0 00.27 0 1.19 1.19 0 00.91-1c0-.34-.25-.64-.74-.83l-.24-.09.25-.05a2 2 0 001.08-.6.58.58 0 00.06-.48.81.81 0 00-.78-.68 1.08 1.08 0 00-.72.3l-.15.14v-.2a2 2 0 00-.27-1.27.62.62 0 00-.47-.22.67.67 0 00-.58.26 1.48 1.48 0 00-.11 1.19l.06.18-.17-.09a2.68 2.68 0 00-1.12-.31z"/><path class="ecc72a6b-2b28-469a-b42b-92740906f234" d="M104.63 190.78a.72.72 0 00-.69-.91c-.83-.12-.84 1.11-.26 1.41a.67.67 0 00.95-.5z"/><path class="b1ca37c3-856f-43ae-bf4d-5bc64861a255" d="M104 191.43a.8.8 0 01-.33-.08 1 1 0 01-.42-1.07.59.59 0 01.6-.49h.15a.88.88 0 01.64.37.74.74 0 01.1.62.8.8 0 01-.74.65zm-.15-1.49a.46.46 0 00-.46.38.84.84 0 00.35.89.48.48 0 00.26.07.66.66 0 00.58-.52.63.63 0 00-.08-.51.77.77 0 00-.55-.3z"/><path class="75e46cbf-b7d0-4671-b717-5f15aeae61f6" d="M109.33 179.91s-1.28 1.72-2.44 3.48l3 1.09 3-3.49z"/><path class="b1ca37c3-856f-43ae-bf4d-5bc64861a255" d="M109.89 184.63l-3.19-1.18.09-.13c1.14-1.74 2.42-3.46 2.44-3.48v-.07l3.84 1.15zm-2.81-1.31l2.73 1 2.86-3.29-3.29-1c-.25.36-1.31 1.81-2.3 3.29z"/><path class="75e46cbf-b7d0-4671-b717-5f15aeae61f6" d="M112.76 181.79s-1.78 2.27-.06 3.28c1.49.87 2.54-.86 3-2.12l-2.81-2z"/><path class="b1ca37c3-856f-43ae-bf4d-5bc64861a255" d="M113.49 185.43a1.69 1.69 0 01-.86-.25 1.54 1.54 0 01-.78-1.05 3.62 3.62 0 01.79-2.39l.18-1 3.05 2.12v.1c-.31.77-1.09 2.47-2.38 2.47zm-.49-4.22l-.14.66a3.46 3.46 0 00-.76 2.22 1.27 1.27 0 00.66.87 1.43 1.43 0 00.73.22c1.1 0 1.83-1.57 2.08-2.18z"/><path class="75e46cbf-b7d0-4671-b717-5f15aeae61f6" d="M116.4 183.21l.32 3.34 3.2 1.17 1.3-3.15-4.82-1.36z"/><path class="b1ca37c3-856f-43ae-bf4d-5bc64861a255" d="M120 187.88l-3.4-1.24-.34-3.6 5.13 1.45zm-3.16-1.42l3 1.1 1.2-2.9-4.51-1.28z"/></g><path class="1de4667c-8321-4140-a867-cfc6c3a01fef" d="M113.08 187.69a.6.6 0 01-.73.41.59.59 0 01-.4-.73.59.59 0 011.13.32z"/><path class="b1ca37c3-856f-43ae-bf4d-5bc64861a255" d="M112.51 188.24a.63.63 0 01-.19 0 .7.7 0 01-.49-.87.73.73 0 01.88-.49.71.71 0 01.49.88.72.72 0 01-.69.48zm0-1.17a.47.47 0 00-.44.34.45.45 0 00.32.56.46.46 0 00.57-.31.47.47 0 00-.32-.57z"/><path class="1de4667c-8321-4140-a867-cfc6c3a01fef" d="M112.15 190.64a.59.59 0 01-.73.4.58.58 0 01-.4-.72.59.59 0 01.73-.4.58.58 0 01.4.72z"/><path class="b1ca37c3-856f-43ae-bf4d-5bc64861a255" d="M111.58 191.19a.63.63 0 01-.19 0 .71.71 0 01-.49-.88.72.72 0 01.88-.48.75.75 0 01.43.33.73.73 0 01.06.54.72.72 0 01-.69.49zm0-1.17a.46.46 0 00-.44.33.46.46 0 00.32.57.47.47 0 00.57-.32.46.46 0 00-.32-.56z"/><path class="b1ca37c3-856f-43ae-bf4d-5bc64861a255" d="M111.34 208.92a14.19 14.19 0 01-3.63-.47c-10.33-2.66-11.22-11-11.23-11.06 3.4-4.18 13.17-12.82 13.27-12.91l3.08-3.55.19.06v.01l-.17.86a3.46 3.46 0 00-.76 2.22 1.27 1.27 0 00.66.87 1.43 1.43 0 00.73.22c1.18 0 2-1.76 2.29-2.79v-.1l.63.05.3 3.65c.28 8 4.38 19 4.42 19.14v.08l-.07.06a15.61 15.61 0 01-9.71 3.66zm-14.61-11.5c.08.69 1.29 8.28 11 10.79a14.16 14.16 0 003.57.46 15.38 15.38 0 009.56-3.54c-.38-1-4.13-11.43-4.4-19.12l-.28-3.44h-.22c-.34 1.12-1.21 2.88-2.5 2.88a1.69 1.69 0 01-.86-.25 1.54 1.54 0 01-.78-1.05 3.62 3.62 0 01.79-2.39l.06-.35-2.67 3.15c-.16.1-9.85 8.67-13.27 12.86z"/><path class="9b23db8d-a837-40c0-b458-6850d7803ac9" d="M125.4 170.28l-2.09-4.58-1.84 2.17-.72-3-2.75 1.33.64-2.25-7.65.79 1.63-2.32a29.24 29.24 0 00-7.77 7.91c-.82 2.85-.38 10.17 9 12.92s14.19-3.54 14.19-3.54c.68-4.49-1-11.91-1-11.91z"/><path class="b1ca37c3-856f-43ae-bf4d-5bc64861a255" d="M118.54 184.07a17 17 0 01-4.66-.7c-9.75-2.85-9.9-10.4-9.13-13.07a29.9 29.9 0 017.8-8l.18.18-1.47 2.09 7.56-.78-.62 2.15 2.63-1.25.69 2.89 1.81-2.13 2.09 4.55 1.7-2.52.06.28c0 .07 1.72 7.49 1.05 11.95v.06a12.64 12.64 0 01-9.69 4.3zM105 170.38c-.74 2.62-.57 10 9 12.75a16.44 16.44 0 004.59.69 12.37 12.37 0 009.45-4.16c.58-3.92-.67-10.14-1-11.54l-1.63 2.42-2.1-4.61-1.88 2.21-.74-3.07-2.84 1.36.67-2.33-7.74.79 1.34-1.91a29 29 0 00-7.12 7.4z"/><path d="M138.34 174.8s-2.44-10.05-5.25-15.18a7.82 7.82 0 00-7.65-4.42l.3-1.47-1.7 1.34-.29-2.17-1 1.55c-6.65-5.13-23 4.43-23 4.43a27.76 27.76 0 005.1 11.45 29.24 29.24 0 017.77-7.91l-1.62 2.32 7.65-.79-.65 2.25 2.73-1.31.72 3 1.84-2.17 2.09 4.58 1.67-2.48s1.72 7.42 1 11.91a29.17 29.17 0 0010.29-4.93z" fill="#373d34"/><path class="21a3016e-6202-439e-b34b-b61b02fc71a7" d="M128 179.88v-.18c.59-3.92-.67-10.18-1-11.58l-1.63 2.42-2.1-4.61-1.88 2.21-.74-3.07-2.84 1.36.67-2.33-7.74.79 1.34-1.91a28.94 28.94 0 00-7.11 7.41l-.09.16-.12-.14a28 28 0 01-5.12-11.51v-.09h.08c.1-.06 10.28-6 17.79-6a8.69 8.69 0 015.25 1.46l1.07-1.73.32 2.29 1.79-1.41-.33 1.64h.46a8 8 0 017.14 4.52c2.78 5.08 5.24 15.11 5.26 15.21v.08l-.06.05a29.78 29.78 0 01-10.28 4.94zm-.83-12.38l.06.28c0 .07 1.67 7.29 1.07 11.77a29.33 29.33 0 009.94-4.8c-.24-.95-2.59-10.25-5.22-15.07a7.7 7.7 0 00-7.52-4.35h-.17l.26-1.32-1.59 1.29-.28-2-.86 1.36-.11-.08a8.32 8.32 0 00-5.2-1.49c-7.1 0-16.65 5.34-17.59 5.88a27.79 27.79 0 005 11.17 30.24 30.24 0 017.7-7.79l.18.18-1.47 2.09 7.56-.78-.62 2.15 2.63-1.25.69 2.89 1.81-2.13 2.09 4.55z"/><path class="7ac6561a-6e94-4f57-b880-d9b0d21e43ab" d="M112.25 159.26l2.19-1.01-.16 2.39-1.99-1.26-2 1.17.05-2.45 1.91 1.16z"/><path class="d443b733-cc9f-4082-803c-3cb915bb1879" d="M114.4 160.85l-2.11-1.32-2.13 1.24.06-2.89 2 1.24 2.32-1.07zm-2-1.53l1.74 1.1.13-2zm-2-1v2l1.7-1z"/><path class="7ac6561a-6e94-4f57-b880-d9b0d21e43ab" d="M130.13 166.43l2.37.43-1.61 1.93-.8-2.25-2.31-.19 1.46-1.97.89 2.05z"/><path class="d443b733-cc9f-4082-803c-3cb915bb1879" d="M130.85 169l-.85-2.38-2.46-.2 1.73-2.33.94 2.19 2.53.45zm-.62-2.47l.71 2 1.33-1.61zm-2.22-.32l2 .16-.77-1.78z"/><path class="b1ca37c3-856f-43ae-bf4d-5bc64861a255" d="M115.31 180.23a8.87 8.87 0 01-1.29-.47c-4.77-2.13-3.39-6.25-3.37-6.29l.24.08c-.06.17-1.32 3.95 3.24 6 4.27 1.92 6.87-.4 7.64-1.89l.23.11a5.56 5.56 0 01-6.69 2.48z"/><path class="b1ca37c3-856f-43ae-bf4d-5bc64861a255" d="M122.53 178.19a2.42 2.42 0 01-1.55-1.37l.23-.08a2.14 2.14 0 002 1.3v.25a3 3 0 01-.7-.1z"/><path class="e5a59f2e-2788-4a44-a6e6-597a04c47f15" d="M123.44 171.63c-.13.48-.53.79-.89.69a.81.81 0 01-.4-1c.14-.48.54-.79.9-.69a.81.81 0 01.39 1zM113.78 168.77a.83.83 0 01-1 .51.81.81 0 01-.2-1.1.7.7 0 111.21.59z"/><path class="21a3016e-6202-439e-b34b-b61b02fc71a7" d="M122.77 158.56v-.15c-.34-.94-2.08-1.44-2.1-1.45l.07-.24c.07 0 1.73.5 2.21 1.47a3.2 3.2 0 012.56-.25l-.09.23a3.1 3.1 0 00-2.47.3l-.13.09z"/><g class="04698f8f-53a7-48b4-9e23-ae95f9e5c2dc"><g class="c911755c-5886-42dd-a39a-defa94dadfe2"><path class="10fb08dd-018e-47a1-b59e-2be918fa426a" d="M110.23 164.43h-.11a27.24 27.24 0 00-5.25 5.91 10 10 0 003.17 9.82c-5.49-7.23 2.19-15.73 2.19-15.73z"/></g><g class="c911755c-5886-42dd-a39a-defa94dadfe2"><path class="10fb08dd-018e-47a1-b59e-2be918fa426a" d="M128.11 179.71c.68-4.49-1-11.91-1-11.91l-.13.2a21.38 21.38 0 01.6 2.75c.77 5.42-.77 10.45-6.78 13a12.12 12.12 0 007.31-4.04z"/></g></g><path class="2af0966c-bd98-420b-b504-7ae6e5ad51dc" d="M137.13 29.25l-1.31-.59-1.23.75.16-1.43-1.09-.93 1.4-.3.56-1.32.71 1.24 1.43.12-.96 1.07.33 1.39zM96.14 51.23l-1.31-.59-1.22.75.15-1.43-1.09-.94 1.41-.29.55-1.32.71 1.24 1.44.12-.97 1.07.33 1.39zM131.62 58.38l-1.31-.59-1.22.74.15-1.42-1.08-.94 1.4-.29.56-1.33.71 1.25 1.43.12-.97 1.06.33 1.4zM39.25 107.13l-1.31-.59-1.23.74.16-1.42-1.09-.94 1.41-.29.55-1.33.71 1.25 1.43.12-.96 1.06.33 1.4zM164.71 80.63l-1.31-.59-1.23.74.16-1.42-1.09-.94 1.41-.29.55-1.33.71 1.25 1.43.12-.96 1.06.33 1.4zM183.5 98.51l-1.31-.59-1.23.75.16-1.43-1.09-.94 1.41-.29.55-1.32.71 1.24 1.43.12-.96 1.06.33 1.4zM157 125.22l-1.31-.59-1.23.75.16-1.43-1.09-.94 1.41-.29.55-1.32.71 1.24 1.43.12-.96 1.06.33 1.4zM189.01 178.1l-1.31-.59-1.23.75.16-1.43-1.09-.93 1.41-.3.55-1.32.72 1.24 1.43.12-.97 1.07.33 1.39zM189.01 145.09l-1.31-.59-1.23.74.16-1.42-1.09-.94 1.41-.29.55-1.33.72 1.25 1.43.12-.97 1.06.33 1.4z"/></g></g></svg>