<svg id="4fe032bc-d9cb-4135-af99-a2f4c3b97894" data-name="Layer 1 copy 2" xmlns="http://www.w3.org/2000/svg" viewBox="0 0 1920 369"><defs><style>.\35 f9a6af1-1955-4a03-a924-b760b81bcddc{fill:none;stroke:#000;stroke-width:4px;}.\35 f9a6af1-1955-4a03-a924-b760b81bcddc,.\38 e76e671-993f-425f-bd6d-2ad7dce400a8{stroke-miterlimit:10;}.\38 e76e671-993f-425f-bd6d-2ad7dce400a8{fill:#eb6200;stroke:#eb6200;}.\36 3c908b4-4a2e-4cc6-89b1-409125845983{font-size:377px;font-family:MyriadPro-Regular, Myriad Pro;}.\36 4cd4341-5ffe-416f-ab91-e3a139f4e5d4{letter-spacing:-0.02em;}.\31 bc5a84f-4f45-4110-98ac-d61c945a9add{letter-spacing:-0.03em;}</style></defs><title>Artboard 1</title><path class="5f9a6af1-1955-4a03-a924-b760b81bcddc" d="M240.65,289.34a6.16,6.16,0,0,1-8-.44c-23.5-22.42-77.87-63.28-90.65-79.24-20.34-25.4-29.11-60-30.57-67a168.29,168.29,0,0,1-1.18-62l1.21-4a46.49,46.49,0,0,1,47-27.53l.51.08A128,128,0,0,1,198,64.65C225,81,240.36,106.46,245.34,115c7.88,13.53,12.29,26.94,18.44,40.41,7.44,16.31,8.88,34.5,18.94,50.9,4.27,7,12.34,20.62,18.32,31.37a5.05,5.05,0,0,1,.4,4,5.46,5.46,0,0,1-.9,1.65C298.71,245.58,256.49,277.42,240.65,289.34Z"/><path class="5f9a6af1-1955-4a03-a924-b760b81bcddc" d="M257.38,310.38c8.94-12.1,52.48-49.21,60.47-52.43,4.34-1.75,26.45,25.68,26.54,43.15,0,3.83.11,21.4-14.12,33.85-14.69,12.86-32.84,9.89-35.4,9.43-12.71-2.31-20.62-9.95-24.27-13.47C267.46,327.87,252.62,316.84,257.38,310.38Z"/><path class="8e76e671-993f-425f-bd6d-2ad7dce400a8" d="M379.3,173.87a3.83,3.83,0,0,0,4.48-2.13c8.25-18.42,30-54.71,33.55-66.89,5.74-19.4,2.65-41.4,1.85-45.75a104.39,104.39,0,0,0-13.89-36l-1.64-2a28.89,28.89,0,0,0-33.51-4.81l-.27.17a79.75,79.75,0,0,0-18.79,18.05c-11.72,15.76-14.58,34-15.44,40.11-1.36,9.64-.74,18.39-1.12,27.59-.45,11.13,3,21.94,1.06,33.74-.82,5-2.26,14.77-3.18,22.36a3.18,3.18,0,0,0,.72,2.41,3.42,3.42,0,0,0,.91.74C335.6,162.32,367.38,170.73,379.3,173.87Z"/><path class="8e76e671-993f-425f-bd6d-2ad7dce400a8" d="M374.61,189.91c-8-4.87-41.76-16-47.11-16-2.92,0-9.2,21-5.14,31.07.89,2.21,5,12.34,16.07,16.16,11.48,4,21.23-2,22.59-2.89,6.78-4.31,9.53-10.57,10.8-13.45C372.92,202.34,378.87,192.51,374.61,189.91Z"/><text class="63c908b4-4a2e-4cc6-89b1-409125845983" transform="translate(457.53 344.73)"><tspan class="64cd4341-5ffe-416f-ab91-e3a139f4e5d4">P</tspan><tspan x="191.14" y="0">etit </tspan><tspan class="1bc5a84f-4f45-4110-98ac-d61c945a9add" x="797.72" y="0">P</tspan><tspan x="988.49" y="0">as</tspan></text></svg>