<svg xmlns="http://www.w3.org/2000/svg" xmlns:xlink="http://www.w3.org/1999/xlink" viewBox="0 0 300 284.19"><defs><radialGradient id="cb6d903c-779e-4bfc-a55b-aa2f6a0d44a5" cx="-352.78" cy="-718.86" r="13.43" gradientTransform="matrix(.69 .73 -.72 .69 -184.93 925.14)" gradientUnits="userSpaceOnUse"><stop offset=".07" stop-color="#c56c37"/><stop offset=".34" stop-color="#c26b37"/><stop offset=".51" stop-color="#ba6735"/><stop offset=".65" stop-color="#ac6033"/><stop offset=".77" stop-color="#985730"/><stop offset=".88" stop-color="#7e4a2c"/><stop offset=".89" stop-color="#7b492c"/></radialGradient><radialGradient id="4ed38a1c-40a0-4903-8aa8-ed6f6f39d4c6" cx="238.89" cy="-152.22" r="10.66" gradientTransform="translate(-146.3 323.96)" xlink:href="#cb6d903c-779e-4bfc-a55b-aa2f6a0d44a5"/><radialGradient id="8a68d784-e6ee-4765-8256-477da5308aa9" cx="-348.82" cy="-710.52" r="15.57" xlink:href="#cb6d903c-779e-4bfc-a55b-aa2f6a0d44a5"/><radialGradient id="e7f90774-d92b-4bbf-af91-269573408311" cx="-360.05" cy="-721.73" r="15.56" xlink:href="#cb6d903c-779e-4bfc-a55b-aa2f6a0d44a5"/><radialGradient id="8deae19a-7a20-4741-81c2-1576ed2f0bd4" cx="-1669.06" cy="357.79" fx="-1713.662" fy="286.891" r="92.01" gradientTransform="scale(-1 1) rotate(34 -495.11 2771.566)" gradientUnits="userSpaceOnUse"><stop offset="0" stop-color="#9dc900"/><stop offset=".38" stop-color="#75ae00"/><stop offset=".54" stop-color="#62a200"/><stop offset=".58" stop-color="#5ba000"/><stop offset=".65" stop-color="#499b00"/><stop offset=".69" stop-color="#399700"/><stop offset=".87" stop-color="#027f00"/><stop offset=".87" stop-color="#007e00"/></radialGradient><radialGradient id="38ad558a-fd49-4ecd-bf15-14345f76cf37" cx="-1679" cy="341.42" fx="-1689.341" fy="324.986" r="21.32" gradientTransform="scale(-1 1) rotate(34 -495.11 2771.566)" gradientUnits="userSpaceOnUse"><stop offset="0" stop-color="#9dc900"/><stop offset=".41" stop-color="#75ae00"/><stop offset=".58" stop-color="#62a200"/><stop offset=".62" stop-color="#5ba000"/><stop offset=".66" stop-color="#499b00"/><stop offset=".69" stop-color="#399700"/><stop offset=".97" stop-color="#027f00"/><stop offset=".98" stop-color="#007e00"/></radialGradient><radialGradient id="768077a6-d79d-4dd7-8878-034fe236de79" cx="-1679.22" cy="357.28" fx="-1679.223" fy="349.058" r="10.67" xlink:href="#38ad558a-fd49-4ecd-bf15-14345f76cf37"/><radialGradient id="973a743e-4b4d-4224-9ed5-8056e82f30c3" cx="-1692.51" cy="374.33" fx="-1692.514" fy="374.333" r="5.33" xlink:href="#38ad558a-fd49-4ecd-bf15-14345f76cf37"/><radialGradient id="693a8a66-692e-4196-afc4-254bed1b5dbb" cx="-1645.59" cy="330.23" fx="-1645.588" fy="330.235" r="7.19" xlink:href="#38ad558a-fd49-4ecd-bf15-14345f76cf37"/><radialGradient id="a3813480-0c58-4854-a807-f3f424fe7ffd" cx="-1670.38" cy="374.95" fx="-1670.376" fy="374.947" r="57.12" xlink:href="#38ad558a-fd49-4ecd-bf15-14345f76cf37"/><radialGradient id="f10faff9-238b-495a-984f-da5cc285f095" cx="-1650.03" cy="354.51" fx="-1650.031" fy="354.507" r="78.42" xlink:href="#38ad558a-fd49-4ecd-bf15-14345f76cf37"/><radialGradient id="b8282cab-e75d-4c20-958a-1fae2bf2a3b4" cx="-177.34" cy="-491.27" r="9.28" gradientTransform="rotate(42.3 -929.447 270.233)" xlink:href="#cb6d903c-779e-4bfc-a55b-aa2f6a0d44a5"/><radialGradient id="67336841-897a-4846-b47e-0ae2c568619a" cx="201.1" cy="132.58" r="7.3" gradientTransform="translate(-67.85 89.75)" xlink:href="#cb6d903c-779e-4bfc-a55b-aa2f6a0d44a5"/><radialGradient id="e8e101b1-f42f-41bc-a67d-929290fe1f2a" cx="-174.6" cy="-485.53" r="10.74" gradientTransform="rotate(42.3 -929.447 270.233)" xlink:href="#cb6d903c-779e-4bfc-a55b-aa2f6a0d44a5"/><radialGradient id="c74a036c-7a58-4bbd-8822-8c46050edceb" cx="-182.36" cy="-493.27" r="10.73" gradientTransform="rotate(42.3 -929.447 270.233)" xlink:href="#cb6d903c-779e-4bfc-a55b-aa2f6a0d44a5"/><radialGradient id="2aa006f3-02e8-4d5e-86a8-940f69aea51d" cx="-477.85" cy="-514.91" fx="-518.332" fy="-579.264" r="83.51" gradientTransform="matrix(.58 .81 -.81 .58 -19.62 844.89)" gradientUnits="userSpaceOnUse"><stop offset="0" stop-color="#95c12c"/><stop offset=".41" stop-color="#6da61a"/><stop offset=".58" stop-color="#5a9a12"/><stop offset=".62" stop-color="#539813"/><stop offset=".66" stop-color="#419318"/><stop offset=".69" stop-color="#318f1b"/><stop offset=".98" stop-color="#007630"/></radialGradient><radialGradient id="e3a3fee2-f748-45d1-8ca0-500d909b0973" cx="-478.41" cy="-539.81" fx="-485.552" fy="-551.166" r="14.73" gradientTransform="matrix(.58 .81 -.81 .58 -19.62 844.89)" gradientUnits="userSpaceOnUse"><stop offset=".77" stop-color="#fcffbf"/><stop offset="1"/></radialGradient><radialGradient id="4c31416a-8d6e-4099-bc58-7ad710f5fac7" cx="-474.55" cy="-524.57" fx="-474.551" fy="-524.571" r="7.38" xlink:href="#e3a3fee2-f748-45d1-8ca0-500d909b0973"/><radialGradient id="39d6b6fd-23bf-4d90-aced-4c9efbc4bfed" cx="-483.74" cy="-512.79" fx="-483.738" fy="-512.788" r="3.68" xlink:href="#2aa006f3-02e8-4d5e-86a8-940f69aea51d"/><radialGradient id="32b8ce56-9f8f-4c76-aefc-b0cc98ff16b3" cx="-451.29" cy="-543.26" fx="-451.293" fy="-543.264" r="4.96" xlink:href="#2aa006f3-02e8-4d5e-86a8-940f69aea51d"/><radialGradient id="8ee77d99-50d7-4ec1-a998-5973a06df4f5" cx="-440.87" cy="-557.15" fx="-440.872" fy="-557.148" r="56.28" xlink:href="#2aa006f3-02e8-4d5e-86a8-940f69aea51d"/><radialGradient id="0d254710-9418-4510-a537-90aa5c2f74d1" cx="-431.85" cy="-536.42" fx="-431.854" fy="-536.424" r="27.47" xlink:href="#2aa006f3-02e8-4d5e-86a8-940f69aea51d"/><radialGradient id="e312bb38-1731-4cd6-a95c-8e1aa116b2be" cx="-1314.27" cy="647.27" fx="-1321.674" fy="635.502" r="15.28" gradientTransform="matrix(-.91 .42 .41 .91 -1397.43 92.95)" xlink:href="#38ad558a-fd49-4ecd-bf15-14345f76cf37"/><radialGradient id="f8131091-7c55-4f95-83d3-a9b63775e8ab" cx="-1317.62" cy="659.87" fx="-1317.616" fy="659.875" r="7.63" gradientTransform="matrix(-.91 .42 .41 .91 -1397.43 92.95)" xlink:href="#38ad558a-fd49-4ecd-bf15-14345f76cf37"/><linearGradient id="c2225e7f-e096-42c2-9aa6-bca5089bc478" x1="-148.26" y1="-546.48" x2="-128.48" y2="-577.36" gradientTransform="matrix(.86 .5 -.5 .86 -92.89 705.04)" gradientUnits="userSpaceOnUse"><stop offset=".03" stop-color="#2e8f00"/><stop offset=".58" stop-color="#dcf58f"/></linearGradient><linearGradient id="272ddd0e-cf8e-4236-a4f0-f066594a5ae5" x1="51.39" y1="-196.49" x2="75.51" y2="-219.59" gradientTransform="rotate(14.42 -1472.576 212.593)" gradientUnits="userSpaceOnUse"><stop offset=".19" stop-color="#519918"/><stop offset=".74" stop-color="#fff"/></linearGradient><linearGradient id="9dc2e95a-272f-4f2d-aafd-856b14e25e7f" x1="27.2" y1="151.43" x2="52.82" y2="242.16" gradientTransform="rotate(5.95 -166.016 423.347)" gradientUnits="userSpaceOnUse"><stop offset="0" stop-color="#6d6f22"/><stop offset=".3" stop-color="#4a4117"/><stop offset=".7" stop-color="#2f2f19"/><stop offset="1" stop-color="#062838"/></linearGradient><linearGradient id="6c789e5d-bece-4a7a-ac01-0f2adae05c38" x1="50.5" y1="203.94" x2="19.67" y2="113.08" gradientTransform="rotate(5.95 -166.016 423.347)" gradientUnits="userSpaceOnUse"><stop offset="0" stop-color="#074623"/><stop offset=".71" stop-color="#233972"/><stop offset="1" stop-color="#024063"/></linearGradient><linearGradient id="41e3064a-c3ee-490b-82cc-b73536bf9373" x1="39.02" y1="107.39" x2="33.33" y2="149.66" gradientTransform="rotate(5.95 -166.016 423.347)" gradientUnits="userSpaceOnUse"><stop offset="0" stop-color="#e5e244"/><stop offset=".99" stop-color="#003e31"/></linearGradient><linearGradient id="3d9dff30-ce03-4bdd-92d9-36491074bb53" x1="32.37" y1="139.21" x2="23.04" y2="174.27" xlink:href="#41e3064a-c3ee-490b-82cc-b73536bf9373"/><linearGradient id="5bfcb924-bba1-4dcd-90ee-24a4ac6cac58" x1="39.63" y1="155.76" x2="35.28" y2="172.1" xlink:href="#41e3064a-c3ee-490b-82cc-b73536bf9373"/><linearGradient id="49046a8c-a98a-4c25-aee1-68bc16548b32" x1="-2.89" y1="137.49" x2="-7.23" y2="153.83" xlink:href="#41e3064a-c3ee-490b-82cc-b73536bf9373"/><linearGradient id="f21a12fc-0de0-465f-863f-ea9fced86086" x1="124.64" y1="81.1" x2="124.64" y2="-25.94" gradientUnits="userSpaceOnUse"><stop offset="0" stop-color="#fff"/><stop offset=".18" stop-color="#f7f7f7"/><stop offset=".45" stop-color="#e1e1e1"/><stop offset=".79" stop-color="#bebebe"/><stop offset="1" stop-color="#a4a4a4"/></linearGradient><style>.df7a2624-1eeb-4b1b-8b8e-39199abb4d8f{fill:url(#cb6d903c-779e-4bfc-a55b-aa2f6a0d44a5)}.\37 6caf9db-5053-4e52-b1f3-3a32393330e8{opacity:0.2}.\30 4cc9762-7ecf-437e-bdd9-964595ed9829,.\30 552d7df-cfe5-49ae-868f-70f36c302f07,.\32 c64b68a-69b6-46eb-a9bd-7cc63e6e9ac1,.\33 461977c-1491-4e63-a088-3b70c9bbfea1,.\34 dee0aaa-3a32-496a-8a53-4188c102ccf7,.\35 24b8d42-e666-4e7b-8813-667daf29f808,.\37 6caf9db-5053-4e52-b1f3-3a32393330e8,.\37 c8315d0-8eca-41f4-92a8-7401c7e3f563,.\38 dfb1a7a-3a2a-445b-8451-9fc2d250f6a1,.\39 c90c500-845a-4f2b-a011-6a40d588245e,.\39 d5a11d3-1111-434c-a9d0-3a193fa3ff5d,.b44b8e08-a9c8-47fe-a936-c69e0555d993{mix-blend-mode:multiply}.\32 1ad9b71-9a6e-4409-b5bf-ee900dad49ae,.\33 461977c-1491-4e63-a088-3b70c9bbfea1,.\34 dee0aaa-3a32-496a-8a53-4188c102ccf7,.\35 24b8d42-e666-4e7b-8813-667daf29f808,.\38 5690cf3-5887-4163-ab1d-a7f4b8f8f52c,.\38 dfb1a7a-3a2a-445b-8451-9fc2d250f6a1,.\39 c90c500-845a-4f2b-a011-6a40d588245e{opacity:0.4}.\35 24b8d42-e666-4e7b-8813-667daf29f808{fill:url(#4ed38a1c-40a0-4903-8aa8-ed6f6f39d4c6)}.\33 461977c-1491-4e63-a088-3b70c9bbfea1{fill:url(#8a68d784-e6ee-4765-8256-477da5308aa9)}.\38 dfb1a7a-3a2a-445b-8451-9fc2d250f6a1{fill:url(#e7f90774-d92b-4bbf-af91-269573408311)}.\30 40398c6-a6e3-4139-b51f-3e203c62605d{fill:#62a200}.\32 dd5b2f2-eefb-483c-9014-cc9fc968238b,.\34 56166e4-805a-41ea-8916-542bf0a7b95a,.\38 e3a387e-3492-4804-866d-a7f84b63ab19{opacity:0.7}.\30 21c2472-33f3-4dd9-ba19-d0eca2e7f969,.\31 eb1b224-806c-4756-9885-429024d09b44,.\32 374a0eb-8591-4d20-9b1b-b2ec3fd1bc0c,.\33 1edd12b-f24a-481f-baab-18d3123f8a55,.\34 2e6d578-f927-4950-b88f-a549947031fb,.\36 7b386d9-34f2-4e57-9301-26c4fee2e87e,.\38 b2bf813-0026-41a4-9906-01a3cf7002cd{opacity:0.3}.\30 21c2472-33f3-4dd9-ba19-d0eca2e7f969,.\31 eb1b224-806c-4756-9885-429024d09b44,.\32 1ad9b71-9a6e-4409-b5bf-ee900dad49ae,.\32 374a0eb-8591-4d20-9b1b-b2ec3fd1bc0c,.\33 1edd12b-f24a-481f-baab-18d3123f8a55,.\36 7b386d9-34f2-4e57-9301-26c4fee2e87e,.\38 5690cf3-5887-4163-ab1d-a7f4b8f8f52c,.\38 b2bf813-0026-41a4-9906-01a3cf7002cd{mix-blend-mode:screen}.\30 21c2472-33f3-4dd9-ba19-d0eca2e7f969{fill:url(#38ad558a-fd49-4ecd-bf15-14345f76cf37)}.\38 b2bf813-0026-41a4-9906-01a3cf7002cd{fill:url(#693a8a66-692e-4196-afc4-254bed1b5dbb)}.\32 dd5b2f2-eefb-483c-9014-cc9fc968238b{fill:url(#f10faff9-238b-495a-984f-da5cc285f095)}.\30 3aa2524-2205-4cba-86d9-d0516fcf4c83{fill:url(#b8282cab-e75d-4c20-958a-1fae2bf2a3b4)}.\39 c90c500-845a-4f2b-a011-6a40d588245e{fill:url(#c74a036c-7a58-4bbd-8822-8c46050edceb)}.\38 3037c56-fafc-4681-8c14-7a91ee231176{fill:#c3d82b}.\38 6d29610-1b9f-4075-b9f2-9a5b02354cb0{opacity:0.5}.\32 1ad9b71-9a6e-4409-b5bf-ee900dad49ae{fill:url(#e3a3fee2-f748-45d1-8ca0-500d909b0973)}.\33 1edd12b-f24a-481f-baab-18d3123f8a55{fill:url(#39d6b6fd-23bf-4d90-aced-4c9efbc4bfed)}.\32 374a0eb-8591-4d20-9b1b-b2ec3fd1bc0c{fill:url(#32b8ce56-9f8f-4c76-aefc-b0cc98ff16b3)}.\34 56166e4-805a-41ea-8916-542bf0a7b95a{fill:url(#8ee77d99-50d7-4ec1-a998-5973a06df4f5)}.\38 e3a387e-3492-4804-866d-a7f84b63ab19{fill:url(#0d254710-9418-4510-a537-90aa5c2f74d1)}.\32 c64b68a-69b6-46eb-a9bd-7cc63e6e9ac1{opacity:0.8;fill:url(#272ddd0e-cf8e-4236-a4f0-f066594a5ae5)}.\31 ee21666-ea00-4606-af15-f735a60a06d2{fill:url(#9dc2e95a-272f-4f2d-aafd-856b14e25e7f)}.\34 2e6d578-f927-4950-b88f-a549947031fb{fill:url(#6c789e5d-bece-4a7a-ac01-0f2adae05c38)}.\38 5690cf3-5887-4163-ab1d-a7f4b8f8f52c{fill:url(#41e3064a-c3ee-490b-82cc-b73536bf9373)}.\31 eb1b224-806c-4756-9885-429024d09b44{fill:url(#5bfcb924-bba1-4dcd-90ee-24a4ac6cac58)}.\36 7b386d9-34f2-4e57-9301-26c4fee2e87e{fill:url(#49046a8c-a98a-4c25-aee1-68bc16548b32)}.\36 6c4792d-f989-426f-9708-e32b4f4f2564{fill:#d4dd4d}.b44b8e08-a9c8-47fe-a936-c69e0555d993{fill:#65913f;opacity:0.55}.d8d3057e-e3d2-404d-8d8e-759dc7306130{fill:#f487bc}.\31 32ed397-389e-4a15-b260-5484b6c35ff0{fill:#f8e893}.ef98261f-9fc6-482b-bd0c-18b912a55a7f{fill:#6db85b}.\36 f0e4fef-fe91-4bb5-8f75-4553f68cd714{fill:url(#f21a12fc-0de0-465f-863f-ea9fced86086)}.\38 6d29610-1b9f-4075-b9f2-9a5b02354cb0{fill:#e5e5e5}.\39 e3800bd-7515-4724-b43c-2cf067bc2f5d{fill:#fff}.\31 7a0e876-6cae-4505-9508-11e4614fc06f{fill:#ffef43}.\32 0a7c345-65e0-424e-b798-11b5a1925dc2{fill:#0a0a0a}.\36 b1d6dc4-7851-4686-a2e0-49482a84df10{fill:#f9d8b7}.d202fbde-1632-43c5-8ab2-f648022d4ebb{fill:#0aa4e4}.a9bb8ed8-5b3f-4d89-a407-7cadde21f55b{fill:#e32c3b}.a886879d-f556-4b3a-8f71-de4a945a38ab{fill:#ffe00a}.\33 0c86c1f-b7eb-4e13-b2e1-47635f31d7c7{fill:#ffdbdb}.e2c38a8e-dace-45d2-9a82-eae0c3f6f89c{fill:#fffc0d}.de901720-f507-4659-a9a4-f8b908b8fdf4{fill:#ba4723}.\35 6599b0c-f123-44b2-a3f0-7297a84b85f4{fill:#d76b2a}.f2b6681a-12e9-4469-ba56-1334dcd2cd86{fill:#0a8369}.\34 c7f7aee-db94-4736-8bfa-25419f2eba17{fill:#a85802}.e436471e-9013-4f57-8c51-b38fcc7338c8{fill:#c44451}.c52f2436-f65c-4c66-96b9-3fa4815fb53e{fill:#3a5f83}.\30 552d7df-cfe5-49ae-868f-70f36c302f07{opacity:0.51}.f0f7c546-c6d0-4c9f-91ab-a83914d1b56a{fill:#85ca4d}.\30 4cc9762-7ecf-437e-bdd9-964595ed9829{opacity:0.45}.\34 d460d83-cb2b-4cf7-b577-194592038029{fill:#ffc589}.\37 b3f716b-dc45-4bd5-95f7-4a487437675d{fill:#ad9ace}.\33 e00b5ea-83d0-492d-ad10-0738383e0bfe{fill:#64313d}.af13ab11-c7eb-4269-9705-b9b48c4c5e89{fill:#e270ad}.\39 d5a11d3-1111-434c-a9d0-3a193fa3ff5d{opacity:0.35}.\36 e1a0551-8edb-407e-83ae-d2ec2a2c799e{fill:#ffe332}.b62ad2c9-8c38-47cc-b6f6-1908d0481a42{fill:#fcffd4}</style></defs><g style="isolation:isolate"><g id="39ae15bd-3a72-4aa3-a774-8906f466690a" data-name="Enfants_tablette_dark"><path class="df7a2624-1eeb-4b1b-8b8e-39199abb4d8f" d="M99 158s-.81 25.21-4.86 33.57l11.39-.39s-5.39-11.19-2.47-33.42z"/><g class="76caf9db-5053-4e52-b1f3-3a32393330e8"><path class="df7a2624-1eeb-4b1b-8b8e-39199abb4d8f" d="M105.53 191.22s-5.39-11.19-2.47-33.42L99 158s-.14 4.2-.57 9.73.64-3 1.6-3 .75 2.28.63 8.9c-.17 9.5-2.24 14-4.25 10.23a33.42 33.42 0 01-2.27 7.72z"/></g><path class="524b8d42-e666-4e7b-8813-667daf29f808" d="M101.87 177.86a5.91 5.91 0 01-.38 2.62 6.14 6.14 0 01-.22-2.63 6 6 0 01.38-2.62 5.79 5.79 0 01.22 2.63z"/><path class="3461977c-1491-4e63-a088-3b70c9bbfea1" d="M101.24 182.86c0 .72-.18 1.31-.34 1.31s-.28-.6-.26-1.33.17-1.3.35-1.3.28.6.25 1.32z"/><path class="8dfb1a7a-3a2a-445b-8451-9fc2d250f6a1" d="M101.65 167c0 .71-.18 1.3-.34 1.3s-.29-.6-.27-1.32.18-1.31.34-1.31.29.64.27 1.33z"/><path class="040398c6-a6e3-4139-b51f-3e203c62605d" d="M57.89 166.7a16.65 16.65 0 007.2-.92 15.49 15.49 0 0011.85 6.93 15.88 15.88 0 0011.3-3.21 10.59 10.59 0 0014.76 2.87 11.39 11.39 0 001.3-1.07 8.26 8.26 0 001.07 2.3 8 8 0 0014.59-4.16 8 8 0 0012.19-7.83 16.73 16.73 0 0012.17-1.13c7.61-3.7 11.29-11.89 8.19-18.26a11.32 11.32 0 00-5.65-5.39 6.54 6.54 0 00-3.54-9.47 15.36 15.36 0 00-14.12-26 6.53 6.53 0 00-9.06-5.78 15.54 15.54 0 00-2.14-4.53 15.3 15.3 0 00-26 1c-3.27-3.32-8.8-3.77-13.11-.84a11.12 11.12 0 00-3.76 4.34 17 17 0 00-15.3 2c-7.42 5.06-9.71 14.73-5.36 22a13.91 13.91 0 00-9 9.43 14.14 14.14 0 004.56 14.33 12.19 12.19 0 00-5.85 9.14c-.57 7.16 5.53 13.55 13.71 14.25z"/><path d="M44.26 152.51a12.18 12.18 0 015.84-9.14 14.11 14.11 0 01-4.56-14.32 13.9 13.9 0 019-9.44c-4.35-7.24-2.07-16.92 5.36-22a17.66 17.66 0 015.92-2.59c-3.45 1.42-8.68 4.66-9.07 11.31-.64 11 11.26 10.9 11.26 10.9a8.44 8.44 0 00-3.61 9.46c1.38 5.5 7.88 4.28 7.88 4.28s-5.63 8.16 2.58 15.36c9.06 8 17.23.2 17.23.2s-.27 8.47 5.78 8.47c8.36-.07 8.64-7 8.64-7a9.41 9.41 0 0011.57 4.43c6.75-2.12 6.85-9 6.65-11.54.36 2.16 1.86 7 7.89 2.89 0 0-1.34 9.87 9.64 11 4.67.46 9.15-1.32 11.12-5.49a16.11 16.11 0 01-9.08 11.28 16.7 16.7 0 01-12.16 1.13 8 8 0 01-12.2 7.83 8 8 0 01-15.65 1.86 10.5 10.5 0 01-16-1.75v-.05A15.85 15.85 0 0177 172.71a15.47 15.47 0 01-11.85-6.93 16.52 16.52 0 01-7.21.93c-8.22-.71-14.33-7.1-13.68-14.2z" fill="url(#8deae19a-7a20-4741-81c2-1576ed2f0bd4)" opacity=".7"/><path class="021c2472-33f3-4dd9-ba19-d0eca2e7f969" d="M100.75 99.21a7 7 0 101.85-9.67 6.94 6.94 0 00-1.85 9.67z"/><path d="M114 108.41a3.46 3.46 0 004.83.92 3.48 3.48 0 10-4.83-.92z" style="mix-blend-mode:screen" fill="url(#768077a6-d79d-4dd7-8878-034fe236de79)" opacity=".3"/><path d="M136.61 113.15a1.74 1.74 0 10.46-2.42 1.74 1.74 0 00-.46 2.42z" style="mix-blend-mode:screen" fill="url(#973a743e-4b4d-4224-9ed5-8056e82f30c3)" opacity=".3"/><path class="8b2bf813-0026-41a4-9906-01a3cf7002cd" d="M72.47 103.69a2.34 2.34 0 10.62-3.26 2.33 2.33 0 00-.62 3.26z"/><path d="M123.82 159.46a2.34 2.34 0 10.62-3.26 2.35 2.35 0 00-.62 3.26z" fill="url(#a3813480-0c58-4854-a807-f3f424fe7ffd)" opacity=".7"/><path class="2dd5b2f2-eefb-483c-9014-cc9fc968238b" d="M96.73 167.14a3.22 3.22 0 10.86-4.47 3.22 3.22 0 00-.86 4.47z"/><path d="M89.74 164.51c-4.1 5.12-12.51 4.58-13.89-1.54s3.47-7.97 3.47-7.97a16.77 16.77 0 01-13.53-7.89c-3.05-4.74.57-10.95.57-10.95a1.73 1.73 0 01.2-.12c-.7.29-3.68 1.12-6-3.35-3.13-6 2.23-11.31 2.23-11.31-3.45 1.2-6.66-.74-8.56-3.36a15.7 15.7 0 001 2 13.88 13.88 0 00-9 9.43 14.13 14.13 0 004.55 14.32 12.25 12.25 0 00-5.84 9.14c-.42 4.76 2.19 9.18 6.42 11.8a16.78 16.78 0 0013.73 1.07c.11.18.25.33.36.51l.34-.1a14.41 14.41 0 004.58 4.51 16.63 16.63 0 006.57 2 17.1 17.1 0 003.2 0l-.09.44a15.51 15.51 0 008.89-3.25 10.56 10.56 0 0010.94 4.42c-11.6-2.16-10.14-9.8-10.14-9.8z" style="mix-blend-mode:multiply" fill="url(#c2225e7f-e096-42c2-9aa6-bca5089bc478)"/><path class="03aa2524-2205-4cba-86d9-d0516fcf4c83" d="M139.46 197.85s.79 17.41-1.54 23.4l7.82-.89s-4.32-7.42-3.5-22.89z"/><g class="76caf9db-5053-4e52-b1f3-3a32393330e8"><path class="03aa2524-2205-4cba-86d9-d0516fcf4c83" d="M145.74 220.36s-4.32-7.42-3.5-22.89l-2.78.38s.13 2.91.12 6.74.29-2.07.94-2.17.64 1.54.91 6.11c.39 6.55-.79 9.77-2.38 7.28a23.54 23.54 0 01-1.14 5.44z"/></g><path d="M142.5 211.35a4.05 4.05 0 01-.12 1.83 4 4 0 01-.29-1.81 4 4 0 01.12-1.82 4.36 4.36 0 01.29 1.8z" style="mix-blend-mode:multiply" fill="url(#67336841-897a-4846-b47e-0ae2c568619a)" opacity=".4"/><path d="M142.34 214.84c0 .49-.06.91-.17.91s-.23-.4-.25-.89.05-.91.17-.92.22.4.25.9z" style="mix-blend-mode:multiply" fill="url(#e8e101b1-f42f-41bc-a67d-929290fe1f2a)" opacity=".4"/><path class="9c90c500-845a-4f2b-a011-6a40d588245e" d="M141.77 203.91c0 .5-.06.91-.17.91s-.23-.4-.25-.89.05-.91.17-.92.22.39.25.9z"/><path class="83037c56-fafc-4681-8c14-7a91ee231176" d="M169.13 201.48c.7-2.55-.79-4.71-2.41-6.84 3.47-1.3 6.88-4.86 7.24-8.66a9.65 9.65 0 00-3.54-8.28c4.57-3.65 5.56-8.31 2-13.38a11.79 11.79 0 00-9.41-5 7.81 7.81 0 00-1.4-3.71 7.12 7.12 0 00-8.69-2.64 10.6 10.6 0 00-16.6-7 10.86 10.86 0 00-2.44 2.44 4.53 4.53 0 00-7.27 1.55 10.59 10.59 0 00-15.39 13.41 4.34 4.34 0 00-2.74.83 4.53 4.53 0 00-1.84 4.45 7.85 7.85 0 00-5 2.11c-3.54 3.39-3.13 9.57.9 13.81a11.6 11.6 0 007.61 3.68 5.57 5.57 0 00.36 5.82 5.51 5.51 0 005.66 2.21 5.52 5.52 0 008.44 6.22 6.08 6.08 0 001.25-1.23 8.49 8.49 0 00.58 1 7.3 7.3 0 0010.2 1.73c1.34 2.22 3 3 5.88 3.87 4.57 1.35 7.46-1 9.87-2.82a11.59 11.59 0 004.44 2.34c5.52 1.48 11.01-1.15 12.3-5.91z"/><path d="M166.72 194.64c3.47-1.3 6.88-4.86 7.24-8.66a9.65 9.65 0 00-3.54-8.28c4.57-3.65 5.56-8.31 2-13.38-.21-.29-.43-.57-.65-.83l-.12-.15q-.34-.39-.72-.75c-.26-.26-.54-.5-.82-.73a9 9 0 00-.88-.64c1.89 1.76 4.5 5.11 3.15 9.52-2.24 7.27-9.16 5.43-9.16 5.43a5.82 5.82 0 01.06 7c-2.21 3.23-6.14.86-6.14.86s4.7 9.81-5.16 12-10.77-7.47-10.77-7.47a5.72 5.72 0 01-7.2 3.76 5.09 5.09 0 01-3.9-6.66s-3.51 2.26-8.18-1.36c-3.86-3-1.61-6.92-.86-8.5 0 0-6.38-2-4-8.07a9.08 9.08 0 012.26-3.81s-10.6-1.51-7.07-11.28a10.64 10.64 0 00-1 10.79 4.34 4.34 0 00-2.74.83 4.53 4.53 0 00-1.84 4.45 7.85 7.85 0 00-5 2.11 7.73 7.73 0 00-2.25 4.3 8.73 8.73 0 00-.15 1.78 9.93 9.93 0 00.18 1.71v.27c0 .09.11.46.18.7a3.59 3.59 0 00.14.43c0 .13.08.26.13.39a5 5 0 00.2.49c0 .09.07.19.11.29s.23.48.37.73c0 .08.09.17.15.25s.25.44.4.67l.06.1c.18.25.36.51.55.74l.15.19c.21.25.41.49.63.72a11.6 11.6 0 007.61 3.68 5.57 5.57 0 00.36 5.82 5.51 5.51 0 005.66 2.21 5.52 5.52 0 008.44 6.22 6.08 6.08 0 001.25-1.23 8.49 8.49 0 00.58 1 7.3 7.3 0 0010.2 1.73c1.34 2.22 3.07 3.14 5.88 3.87 4.45 1.15 7.46-1 9.87-2.82a11.59 11.59 0 004.44 2.34c5.47 1.49 11-1.14 12.25-5.9.76-2.57-.73-4.73-2.35-6.86z" fill="url(#2aa006f3-02e8-4d5e-86a8-940f69aea51d)" opacity=".5"/><path class="21ad9b71-9a6e-4409-b5bf-ee900dad49ae" d="M145.1 154.55a4.81 4.81 0 111.13-6.71 4.8 4.8 0 01-1.13 6.71z"/><path d="M134.74 158.19a2.41 2.41 0 11.56-3.36 2.41 2.41 0 01-.56 3.36z" style="mix-blend-mode:screen" fill="url(#4c31416a-8d6e-4099-bc58-7ad710f5fac7)" opacity=".2"/><path class="31edd12b-f24a-481f-baab-18d3123f8a55" d="M119 155.77a1.18 1.18 0 01-1.67-.28 1.2 1.2 0 111.67.28z"/><path class="2374a0eb-8591-4d20-9b1b-b2ec3fd1bc0c" d="M162.77 165.18a1.61 1.61 0 01-2.25-.38 1.62 1.62 0 01.38-2.26 1.62 1.62 0 111.87 2.64z"/><path class="456166e4-805a-41ea-8916-542bf0a7b95a" d="M165.24 190.91a2.3 2.3 0 11.55-3.22 2.32 2.32 0 01-.55 3.22z"/><path class="8e3a387e-3492-4804-866d-a7f84b63ab19" d="M160.6 196.13a1.13 1.13 0 11.26-1.58 1.12 1.12 0 01-.26 1.58z"/><path class="2c64b68a-69b6-46eb-a9bd-7cc63e6e9ac1" d="M137.12 200.6s-2.67 3.3-7.59.38c-5.28-3.13-2.77-9.4-2.77-9.4s-3.44.77-7.3-2.36a6.77 6.77 0 01-2.67-7 8.15 8.15 0 011.26-4.63s-7.76-2.14-4.08-10.88a17.86 17.86 0 01-3-3.75c.06.13.11.28.18.42a4.34 4.34 0 00-2.74.83 4.53 4.53 0 00-1.84 4.45 7.85 7.85 0 00-5 2.11 7.73 7.73 0 00-2.25 4.3c0 .26-.08.53-.11.8V177.78c0 .26.06.52.11.78a2.38 2.38 0 010 .26c.05.23.11.45.18.68 0 .14.09.29.14.43s.08.26.13.39a4.19 4.19 0 00.2.49c0 .1.08.21.12.31s.23.46.36.71a.54.54 0 01.06.11l.09.14c.12.22.25.44.4.67l.06.1c.18.25.36.51.55.74l.15.19c.21.25.41.49.63.72a11.6 11.6 0 007.61 3.68 5.57 5.57 0 00.36 5.82 5.51 5.51 0 005.66 2.21 5.52 5.52 0 008.44 6.22 6.08 6.08 0 001.25-1.23 8.49 8.49 0 00.58 1 7.3 7.3 0 0010.2 1.73c.11.16.21.31.32.45l.1.11a2.16 2.16 0 00.25.27.94.94 0 00.1.1c.11.1.23.18.34.27.12.09.27.16.4.24h.09l.36.16h.11l.41.13a4.39 4.39 0 00.52.13 4.32 4.32 0 00.54.1c-2.03-1.13-2.91-5.29-2.91-5.29z"/><path class="1ee21666-ea00-4606-af15-f735a60a06d2" d="M78.8 180.71l-8.45 6.6c0-1.4-.08-4.63-.21-7.9-.11-3.11-.76-.34-.76-.34l-.58 9.46-10.09 7.87v-1.14s2.92-12.24 4.93-20.92c1.12-.62 5-2.82 8.13-4.86 2.58-1.7-.12-.82-.12-.82L64 172.54c.82-3.52 1.4-6.17 1.45-6.63.17-1.62-.49-.46-.49-.46l-8.56 27.66-3.9-19.43c1.06-1.67 3.23-6 4.9-9 1.4-2.52-.45-.74-.45-.74l-4.83 7.82-1.79-9c-.88-1.08-1 .43-1 .43l1.59 9.56-7.69-5.7c-1.57-.57-.64.89-.64.89l8.62 7.15c1.13 4.88 3.08 18.68 3.08 18.68s-3.07-2.65-6.51-5.58c0-2.74-.14-7.56-.31-11.14-.11-2.12-.92-.49-.92-.49L46.28 187c-3.69-3.15-7.37-6.23-7.83-6.48-1-.51-.91.92-.91.92l8.7 8.26s-9.68-.81-11.71-.82-.58 1-.58 1l15.19 2.68 6.33 6.91s2 33.39.34 41.11l6.4-.83c-2.23-11-3.13-32.3-3.41-40.8 3.91-3.4 19.2-16.51 20.2-17.58 1-1.23-.2-.66-.2-.66z"/><path d="M28.63 156.22s-12.24-3.73-16.39 8.89 6.16 19 12 18c0 0-7.19 2.53-5.65 11.24s12.19 11.89 18.86 6.47a7 7 0 004.81 8.66c6.67 2.34 11.35.38 13.7-2.65 0 0 3.11 5.23 12.19 4.13a13.23 13.23 0 0011.15-9.43s3.17 4.81 9.5 2.62 4.63-9.31 4.63-9.31A11.28 11.28 0 00104 191c4.61-5.22 5.12-14.14-.66-17.2 0 0 4.59-8.9.52-16.66s-13.11-7.09-13.11-7.09 5-6.92-3.09-13.37a12.62 12.62 0 00-15.82-.43s.83-8.08-10.44-9.25-16.67 7.64-14.8 13.13c0 0-9.69-4.68-15.8 3.24s-2.17 12.85-2.17 12.85z" fill="#1c7933"/><path class="42e6d578-f927-4950-b88f-a549947031fb" d="M103.32 173.8s4.41-8.58.7-16.24c3.06 11.2-6.13 15-6.13 15s5.76 3.32 1.59 10.78c-4.5 8-10.83 2.39-10.83 2.39s3.32 7.16-2.15 10.12-10.53-3-10.53-3 3.28 10.14-8 11.67-11.7-7.52-11.7-7.52-.47 7-9.5 5.26-7-8.88-7-8.88c-5.68 5.12-11.32-.65-10.93-4.41s6.35-3.69 6.35-3.69c-6.87-1.81-4.88-7.86-4.88-7.86s-5.34 4.34-13.42-1.4-3.46-13.68-3.46-13.68h-.06a16.85 16.85 0 00-1.17 2.73c-4.17 12.62 6.16 19 12 18 0 0-7.19 2.53-5.65 11.24s12.19 11.89 18.86 6.47a7 7 0 004.81 8.66c6.67 2.34 11.35.38 13.7-2.65 0 0 3.11 5.23 12.19 4.13a13.23 13.23 0 0011.15-9.43s3.17 4.81 9.5 2.62 4.63-9.31 4.63-9.31A11.28 11.28 0 00104 191c4.59-5.22 5.1-14.14-.68-17.2z"/><path class="85690cf3-5887-4163-ab1d-a7f4b8f8f52c" d="M88.31 151.93a12.6 12.6 0 00-11-12.72 13.22 13.22 0 00-6.35.63 11 11 0 00-21.72-1.74 10.29 10.29 0 00.24 4.15 12.2 12.2 0 00-1.81-.42 12.53 12.53 0 00-14.4 10.33c-.18 1.21 1.17 4.74 1.36 5.91a6.46 6.46 0 00-8.11 6.46 8.4 8.4 0 009 7.79 8.09 8.09 0 002.2-.49 8.6 8.6 0 00.64 3.79c2 4.91 8.22 7 13.79 4.68a12.76 12.76 0 003-1.77 9.68 9.68 0 0018 1.46 7.63 7.63 0 004.19.91 7.72 7.72 0 007.19-6.9c6.82.81 13-3.27 13.84-9.29.87-5.86-3.59-11.4-10.06-12.78z"/><path d="M56 140.26a5 5 0 102.46-6.61 5 5 0 00-2.46 6.61z" style="mix-blend-mode:screen" fill="url(#e312bb38-1731-4cd6-a95c-8e1aa116b2be)" opacity=".3"/><path d="M45.65 191.13a5 5 0 102.45-6.61 5 5 0 00-2.45 6.61z" style="mix-blend-mode:screen" fill="url(#3d9dff30-ce03-4bdd-92d9-36491074bb53)" opacity=".3"/><path class="1eb1b224-806c-4756-9885-429024d09b44" d="M59.21 192.41a2.32 2.32 0 104.22-1.92 2.3 2.3 0 00-3.07-1.15 2.33 2.33 0 00-1.15 3.07z"/><path class="67b386d9-34f2-4e57-9301-26c4fee2e87e" d="M18.82 169.83a2.32 2.32 0 101.18-3.08 2.34 2.34 0 00-1.18 3.08z"/><path d="M67.63 148.14a2.49 2.49 0 101.22-3.3 2.49 2.49 0 00-1.22 3.3z" style="mix-blend-mode:screen" fill="url(#f8131091-7c55-4f95-83d3-a9b63775e8ab)" opacity=".3"/><ellipse class="66c4792d-f989-426f-9708-e32b4f4f2564" cx="134.41" cy="240.3" rx="118.02" ry="26.36"/><path class="b44b8e08-a9c8-47fe-a936-c69e0555d993" d="M226.83 241.11s-2.35-1.1-.52-1.58a1.85 1.85 0 012.34 1.23s2.35-1.4 4.22.22-2.21.8-2.21.8 2.48.56.46 1.24-2.28-.89-2.28-.89-.2 1.61-2.25 1.27-.36-1.23-.36-1.23-2 .54-2.21-.62 2.81-.44 2.81-.44z"/><path class="d8d3057e-e3d2-404d-8d8e-759dc7306130" d="M226.76 240.56s-2.35-1.1-.52-1.58a1.87 1.87 0 012.35 1.24s2.34-1.41 4.21.21-2.21.81-2.21.81 2.48.55.46 1.23-2.28-.89-2.28-.89-.2 1.62-2.25 1.28-.36-1.24-.36-1.24-2 .55-2.21-.61 2.81-.45 2.81-.45z"/><path class="132ed397-389e-4a15-b260-5484b6c35ff0" d="M229.71 241c0 .23-.57.39-1.24.37s-1.2-.23-1.19-.45.57-.39 1.24-.37 1.2.23 1.19.45z"/><path class="b44b8e08-a9c8-47fe-a936-c69e0555d993" d="M161.2 235s-3.07-1-.84-1.63a2.53 2.53 0 013.08 1.18 5.44 5.44 0 015.29 0c2.53 1.61-2.67 1-2.67 1s3.17.46.71 1.28-3-.82-3-.82-.06 1.71-2.66 1.46-.6-1.28-.6-1.28-2.46.67-2.83-.54 3.52-.65 3.52-.65z"/><path class="d8d3057e-e3d2-404d-8d8e-759dc7306130" d="M161.05 234.41s-3.07-1-.84-1.63a2.53 2.53 0 013.08 1.17 5.47 5.47 0 015.3 0c2.52 1.61-2.68 1-2.68 1s3.17.46.72 1.28-3-.82-3-.82-.06 1.71-2.66 1.46-.6-1.28-.6-1.28-2.45.67-2.83-.54 3.51-.64 3.51-.64z"/><path class="132ed397-389e-4a15-b260-5484b6c35ff0" d="M164.78 234.72c0 .24-.67.44-1.51.45s-1.52-.18-1.53-.41.66-.44 1.51-.45 1.52.17 1.53.41z"/><path class="b44b8e08-a9c8-47fe-a936-c69e0555d993" d="M199.09 231.07s-4.74-1.2-1.63-2.3a4.09 4.09 0 014.8 1.41 7.82 7.82 0 017.75-.51c4.1 2.1-3.67 1.67-3.67 1.67s4.74.36 1.36 1.79-4.53-.9-4.53-.9.34 2.51-3.53 2.4-1.19-1.81-1.19-1.81-3.43 1.23-4.28-.5 4.92-1.25 4.92-1.25z"/><path class="d8d3057e-e3d2-404d-8d8e-759dc7306130" d="M198.74 230.25s-4.76-1.2-1.63-2.3a4.08 4.08 0 014.79 1.41 7.82 7.82 0 017.75-.51c4.1 2.1-3.67 1.67-3.67 1.67s4.74.35 1.36 1.79-4.53-.9-4.53-.9.34 2.51-3.52 2.39-1.2-1.8-1.2-1.8-3.44 1.23-4.28-.51 4.93-1.24 4.93-1.24z"/><path class="132ed397-389e-4a15-b260-5484b6c35ff0" d="M204.27 230.34c.07.34-.87.7-2.09.8s-2.28-.1-2.35-.45.87-.7 2.09-.8 2.28.11 2.35.45z"/><path class="b44b8e08-a9c8-47fe-a936-c69e0555d993" d="M138.91 250.08s-2.35-.93-.52-1.32a1.88 1.88 0 012.34 1s2.35-1.18 4.22.2-2.22.67-2.22.67 2.48.47.46 1-2.28-.75-2.28-.75-.2 1.36-2.25 1.06-.36-1-.36-1-2 .45-2.21-.52 2.82-.34 2.82-.34z"/><path class="d8d3057e-e3d2-404d-8d8e-759dc7306130" d="M138.84 249.62s-2.35-.93-.52-1.33a1.89 1.89 0 012.34 1.05s2.35-1.18 4.22.2-2.21.66-2.21.66 2.48.48.45 1.05-2.28-.76-2.28-.76-.2 1.36-2.25 1.06-.36-1-.36-1-2 .45-2.21-.52 2.82-.41 2.82-.41z"/><path class="132ed397-389e-4a15-b260-5484b6c35ff0" d="M141.78 250c0 .18-.57.32-1.24.3s-1.19-.2-1.18-.39.57-.32 1.24-.3 1.2.21 1.18.39z"/><path class="b44b8e08-a9c8-47fe-a936-c69e0555d993" d="M169.42 248.34s-3.67-1.14-1.09-1.9a3.08 3.08 0 013.69 1.3 6.37 6.37 0 016.21-.13c3.08 1.82-3.07 1.2-3.07 1.2s3.75.45.93 1.48-3.52-.89-3.52-.89 0 2-3 1.78-.79-1.48-.79-1.48-2.84.86-3.36-.55 4-.81 4-.81z"/><path class="d8d3057e-e3d2-404d-8d8e-759dc7306130" d="M169.21 247.67s-3.67-1.13-1.09-1.89a3.08 3.08 0 013.69 1.3 6.36 6.36 0 016.21-.14c3.08 1.82-3.07 1.2-3.07 1.2s3.75.45.92 1.48-3.52-.89-3.52-.89.05 2-3 1.79-.79-1.49-.79-1.49-2.84.86-3.36-.55 4.01-.81 4.01-.81z"/><path class="132ed397-389e-4a15-b260-5484b6c35ff0" d="M173.6 247.94c0 .27-.75.52-1.73.56s-1.81-.16-1.83-.44.75-.53 1.74-.56 1.8.15 1.82.44z"/><path class="b44b8e08-a9c8-47fe-a936-c69e0555d993" d="M84.34 233s-3.07-1.09-.84-1.72a2.5 2.5 0 013.08 1.24 5.22 5.22 0 015.3 0c2.52 1.7-2.68 1-2.68 1s3.17.49.71 1.35-3-.87-3-.87-.06 1.81-2.65 1.54-.61-1.34-.61-1.34-2.45.7-2.83-.57 3.52-.63 3.52-.63z"/><path class="d8d3057e-e3d2-404d-8d8e-759dc7306130" d="M84.19 232.43s-3.07-1.09-.83-1.72a2.49 2.49 0 013.07 1.29 5.22 5.22 0 015.3 0c2.52 1.69-2.67 1-2.67 1s3.16.48.71 1.34-3-.86-3-.86-.06 1.81-2.65 1.54-.61-1.35-.61-1.35-2.45.71-2.83-.57 3.51-.67 3.51-.67z"/><path class="132ed397-389e-4a15-b260-5484b6c35ff0" d="M87.92 232.76c0 .25-.67.46-1.51.47s-1.52-.19-1.53-.43.67-.46 1.51-.47 1.52.18 1.53.43z"/><path class="b44b8e08-a9c8-47fe-a936-c69e0555d993" d="M122.24 228.91s-4.75-1.27-1.63-2.43a4 4 0 014.79 1.52 7.5 7.5 0 017.75-.54c4.1 2.22-3.67 1.76-3.67 1.76s4.75.38 1.36 1.89-4.53-1-4.53-1 .34 2.65-3.53 2.53-1.19-1.91-1.19-1.91-3.43 1.3-4.28-.53 4.93-1.29 4.93-1.29z"/><path class="d8d3057e-e3d2-404d-8d8e-759dc7306130" d="M121.88 228.05s-4.75-1.28-1.63-2.43a4 4 0 014.79 1.49 7.49 7.49 0 017.75-.55c4.1 2.22-3.67 1.76-3.67 1.76s4.75.38 1.36 1.9-4.53-1-4.53-1 .34 2.65-3.53 2.53-1.19-1.9-1.19-1.9-3.43 1.29-4.28-.54 4.93-1.26 4.93-1.26z"/><path class="132ed397-389e-4a15-b260-5484b6c35ff0" d="M127.41 228.13c.07.37-.87.75-2.09.85s-2.28-.1-2.35-.47.87-.74 2.1-.85 2.27.11 2.34.47z"/><path class="b44b8e08-a9c8-47fe-a936-c69e0555d993" d="M62.05 249s-2.35-1-.52-1.4a1.87 1.87 0 012.34 1.1s2.35-1.24 4.22.21-2.21.7-2.21.7 2.47.51.45 1.1-2.28-.8-2.28-.8-.2 1.43-2.25 1.12-.36-1.09-.36-1.09-2 .47-2.21-.56 2.82-.38 2.82-.38z"/><path class="d8d3057e-e3d2-404d-8d8e-759dc7306130" d="M62 248.47s-2.35-1-.52-1.4a1.9 1.9 0 012.35 1.11s2.34-1.25 4.21.2-2.21.71-2.21.71 2.48.5.45 1.1-2.28-.81-2.28-.81-.19 1.44-2.24 1.13-.36-1.1-.36-1.1-2 .48-2.22-.55 2.82-.39 2.82-.39z"/><path class="132ed397-389e-4a15-b260-5484b6c35ff0" d="M64.93 248.88c0 .19-.58.34-1.25.31s-1.19-.2-1.18-.4.57-.34 1.24-.32 1.2.21 1.19.41z"/><path class="b44b8e08-a9c8-47fe-a936-c69e0555d993" d="M92.56 247.12s-3.67-1.2-1.09-2a3 3 0 013.69 1.37 6.1 6.1 0 016.22-.14c3.07 1.92-3.08 1.26-3.08 1.26s3.75.48.93 1.56-3.52-.93-3.52-.93 0 2.12-3 1.88-.79-1.56-.79-1.56-2.84.9-3.36-.59 4-.85 4-.85z"/><path class="d8d3057e-e3d2-404d-8d8e-759dc7306130" d="M92.35 246.41s-3.67-1.19-1.09-2a3 3 0 013.74 1.38 6.07 6.07 0 016.22-.14c3.07 1.92-3.08 1.26-3.08 1.26s3.75.48.93 1.56-3.53-.93-3.53-.93.05 2.12-3 1.88-.79-1.57-.79-1.57-2.84.91-3.36-.58 3.96-.86 3.96-.86z"/><path class="132ed397-389e-4a15-b260-5484b6c35ff0" d="M96.75 246.69c0 .3-.76.56-1.74.6s-1.8-.17-1.83-.46.76-.56 1.74-.6 1.8.17 1.83.46z"/><path class="ef98261f-9fc6-482b-bd0c-18b912a55a7f" d="M226.87 226.51S224 217.44 216.74 216c0 0 7.38 0 9.67 5.24 0 0-1-6.53-6.07-9.19 0 0 8.26 1.42 8.89 6.42 0 0 1.69-8.94 4.68-9.16 0 0-1.65 8 0 13.65 0 0 2.45-7.39 6.65-8 0 0-4.82 9.13-3.83 13.31l-2.12-2a3.43 3.43 0 00-1.05 2.38c0 1.51-3-2.37-3-2.37a8.18 8.18 0 01-4.29 3.17 2.49 2.49 0 00.6-2.94zM175.22 258s-3.6-11.44-12.77-13.2c0 0 9.3 0 12.19 6.6 0 0-1.33-8.23-7.65-11.58 0 0 10.4 1.78 11.21 8.08 0 0 2.12-11.27 5.89-11.54 0 0-2.08 10 0 17.21 0 0 3.09-9.32 8.38-10 0 0-6.07 11.51-4.82 16.78l-2.65-2.56a4.31 4.31 0 00-1.31 3c0 1.9-3.81-3-3.81-3a10.36 10.36 0 01-5.42 4 3.14 3.14 0 00.76-3.79zM34.78 229s-3-9.36-10.44-10.8c0 0 7.61 0 10 5.4 0 0-1.09-6.74-6.26-9.48 0 0 8.51 1.46 9.17 6.62 0 0 1.74-9.22 4.82-9.45 0 0-1.7 8.22 0 14.08 0 0 2.53-7.62 6.86-8.2 0 0-5 9.41-3.94 13.72l-2.2-2.07a3.48 3.48 0 00-1.07 2.45c0 1.56-3.12-2.45-3.12-2.45a8.47 8.47 0 01-4.43 3.28 2.57 2.57 0 00.61-3.1zM148 220.25s-2.95-9.35-10.45-10.8c0 0 7.62 0 10 5.4 0 0-1.09-6.73-6.26-9.47 0 0 8.51 1.46 9.17 6.62 0 0 1.74-9.22 4.82-9.45 0 0-1.7 8.22 0 14.08 0 0 2.53-7.62 6.85-8.21 0 0-5 9.42-3.94 13.73l-2.19-2.07a3.51 3.51 0 00-1.08 2.45c0 1.55-3.12-2.45-3.12-2.45a8.42 8.42 0 01-4.42 3.28 2.59 2.59 0 00.62-3.11z"/><path d="M164.75 53.57c-1.11-2-3.6-2.14-5.6-1.72a6.6 6.6 0 00.1-1.64 6.61 6.61 0 00-2.33-4.13 9.21 9.21 0 00-9.7-2.08 5.48 5.48 0 00-1.09-4c-1.21-1.47-3.47-2.31-5.27-2.72a9 9 0 00-5.8 1.09 6 6 0 00-1.38 1 5.11 5.11 0 00-2.87-4 10.44 10.44 0 00-6.76-.34 9.83 9.83 0 00-7.54 7.39c-.45-.49-1-.94-1.39-1.33-1.75-1.62-4.17-2-6.47-2.11-4.51-.27-7.72 1.87-9.83 5.62A8.2 8.2 0 0092 42.93c-.54.11-1.06.21-1.57.35-2.66 1.43-5.23 3.09-5.71 6.4a8.86 8.86 0 002.66 8 7.44 7.44 0 004.87 1.23 5.64 5.64 0 00.12 1.09c.41 1.9 2.43 3.14 4 3.91 3.29 1.56 9 2.12 11.84-.73 0 .06 0 .12.07.17a7.78 7.78 0 002.2 2.79c1.84 1.56 4.51 2.34 6.8 2.92 4.25 1.07 9.53-1.37 10.89-5.58a5.68 5.68 0 002.55 2.89 7.82 7.82 0 005.83.88c2.55-.53 5.21-2.49 5.84-5 1.31 2.51 5.36 2.36 7.7 1.36a7.28 7.28 0 003.58-3.29c.77.92 2.88 1.27 3.76 1.29a8.49 8.49 0 006.11-2.29 5 5 0 001.21-5.75z" fill="#999"/><path class="6f0e4fef-fe91-4bb5-8f75-4553f68cd714" d="M162.4 59.18a7.72 7.72 0 01-5 1.39 4.68 4.68 0 01-2-.56c-.51-.26-.79-.74-1.27-.94a3 3 0 00-.29-1.54 5.83 5.83 0 01-.72 1.75c-.27 1.69-1.6 2.86-3.44 3.66a6.79 6.79 0 01-3.68.4 5.83 5.83 0 01-3.37-1.82 4.59 4.59 0 00-.23-1.81 5.84 5.84 0 01-.35 1.9 4.85 4.85 0 01-.77 1.3 4.86 4.86 0 01-.78 1.19 7.63 7.63 0 01-4.19 2.26c-2.74.58-6.82-1-7.77-3.85a4.27 4.27 0 00.84-.37 2.7 2.7 0 001.35-1.45 7.05 7.05 0 01-1.3.84l-.4.19a3.8 3.8 0 01-1.09.53c-.29.13-.59.25-.89.35a2.33 2.33 0 001 0 8.61 8.61 0 01-3.34 4.16 9.84 9.84 0 01-6.86 1 19.09 19.09 0 01-5.2-1.94 9.13 9.13 0 01-2.47-2 4 4 0 01-1-2.31 8.88 8.88 0 01-1.16 1.13 10.4 10.4 0 01-6.95 1.91 8.86 8.86 0 01-6-2.32 4.3 4.3 0 01-1.1-1.11 6.43 6.43 0 01-1.07-4.61 5.94 5.94 0 00-.48 1.64A17.62 17.62 0 0090 57.8a5.59 5.59 0 01-3.1-2c-1.75-1.82-2.73-5.75-1-7.94a24.71 24.71 0 012.24-2.34A6.69 6.69 0 0192 43.89c2.12-.38 5.08.13 6.59 1.89a.33.33 0 00.3.08 9.52 9.52 0 013.65-4.52 9.17 9.17 0 015.4-1.45 14 14 0 015 .83 8.91 8.91 0 012.49 1.59 5.22 5.22 0 011.86 2.69 2.38 2.38 0 00-.65-2.44A9.61 9.61 0 01124 35.7a10.12 10.12 0 015.35.26c2.16.7 2.72 2.13 3.29 4.11a.4.4 0 00.19.27 13.69 13.69 0 00-.86 1.44 6.89 6.89 0 013.18-2.33 7.77 7.77 0 014.86-1 10.36 10.36 0 014.49 2c1.49 1 1.78 2.5 1.78 4.21l.6-.26a6.18 6.18 0 014.38-.11 7.12 7.12 0 011.25.57 8.53 8.53 0 014.61 3.12.83.83 0 01.36.38 8.35 8.35 0 01.94 5 2.54 2.54 0 00.57-1 6.14 6.14 0 014.29 1.19c1.91 1.61.72 4.32-.88 5.63z"/><path class="86d29610-1b9f-4075-b9f2-9a5b02354cb0" d="M163.31 53.53a6.14 6.14 0 00-4.31-1.19 2.54 2.54 0 01-.57 1 8.35 8.35 0 00-.94-5 .83.83 0 00-.36-.38 8.53 8.53 0 00-4.61-3.12 7.12 7.12 0 00-1.25-.57 6.18 6.18 0 00-4.38.11l-.6.26v-.07c0-.07-.13.17-.18.26 5.06 0 10.41 6.81 6.95 11.94-1.92 2.86-5.95 3.47-8.95 2.21a5.65 5.65 0 01-1.69-1.27 7.29 7.29 0 01-4.07 3.85c-4.12 1.65-6.49-.59-7-3.62a11.24 11.24 0 01-6.53 3c-1.48.12-3.7.1-4.75-1.21a8.55 8.55 0 01-2.32.48c-4.12.25-6.62-1.84-7.71-4.76a12.15 12.15 0 01-9.32 3.92c-2.66-.18-6.18-.91-7-3.94a7 7 0 01-.22-1.94 4.74 4.74 0 01-5.39-1.29 5.35 5.35 0 01-1.01-5.6c-.41.42-.8.85-1.17 1.3-1.73 2.19-.75 6.12 1 7.94a5.59 5.59 0 003.1 2 17.62 17.62 0 012.29.37 5.94 5.94 0 01.48-1.64 6.43 6.43 0 001.07 4.61A4.3 4.3 0 0095 62.25a8.86 8.86 0 006 2.32 10.4 10.4 0 006.95-1.91 8.88 8.88 0 001.05-1.13 4 4 0 001 2.31 9.13 9.13 0 002.47 2 19.09 19.09 0 005.2 1.94 9.84 9.84 0 006.86-1 8.61 8.61 0 003.34-4.16 2.33 2.33 0 01-1 0c.3-.1.6-.22.89-.35a3.8 3.8 0 001.09-.53l.4-.19a7.05 7.05 0 001.3-.84 2.7 2.7 0 01-1.35 1.45 4.27 4.27 0 01-.84.37c.95 2.9 5 4.43 7.77 3.85a7.63 7.63 0 004.19-2.26 4.86 4.86 0 00.78-1.19 4.85 4.85 0 00.77-1.3 5.84 5.84 0 00.35-1.9 4.59 4.59 0 01.23 1.81 5.83 5.83 0 003.37 1.82 6.79 6.79 0 003.68-.4c1.84-.8 3.17-2 3.44-3.66a5.83 5.83 0 00.72-1.75 3 3 0 01.29 1.54c.48.2.76.68 1.27.94a4.68 4.68 0 002 .56 7.72 7.72 0 005-1.39c1.78-1.33 2.97-4.04 1.09-5.67zm-1.7 1.82a5 5 0 01-2.83 3.12c-1.5.55-3.91 0-3.45-2.11.53-2.4 2.89-2.94 5-3.13a.37.37 0 01.42.22 1.38 1.38 0 01.86 1.9z"/><path class="9e3800bd-7515-4724-b43c-2cf067bc2f5d" d="M97 46.57c-.11-2-2.39-2.25-3.88-1.92a5.85 5.85 0 00-3.87 2.84 2.31 2.31 0 00-.33 2c.34 2.23 3.35 2.11 4.91 1.19a3.26 3.26 0 00.34-.22c1.55-.73 2.92-2.06 2.83-3.89zM111.53 43.75c-.48-2.24-3.38-2.14-5.14-1.81-2.13.4-5.41 2.5-5.2 5a2.21 2.21 0 002.11 2.19 5.34 5.34 0 003.44.08c2.26-.7 5.39-2.64 4.79-5.46zM127.37 38a2.06 2.06 0 00-.35-.12 4.31 4.31 0 00-3.25.18 8.34 8.34 0 00-2.28 1.69 3.09 3.09 0 00-.73 2.3 2.86 2.86 0 000 1.2c.21.94 1.33 1.08 2.1 1a6.49 6.49 0 002.4-.93 6.75 6.75 0 002.16-1.38c1.11-1.05 1.64-3.18-.05-3.94z"/><path class="17a0e876-6cae-4505-9508-11e4614fc06f" d="M161.05 225.86a3.31 3.31 0 001 2.47 12.2 12.2 0 012.22 3.59c.67 1.59 2.4 1.82 2.21-.23s-3.83-9.01-5.43-5.83z"/><path class="20a7c345-65e0-424e-b798-11b5a1925dc2" d="M164.2 232a12.1 12.1 0 00-2.2-3.56 3.43 3.43 0 01-1.07-2.57 1.32 1.32 0 011.15-.89c1.9 0 4.4 5.07 4.56 6.76a1.73 1.73 0 01-.31 1.35.79.79 0 01-.6.26 1.91 1.91 0 01-1.53-1.35zm-3-6.07a3.42 3.42 0 001 2.36 12 12 0 012.24 3.62c.35.8.92 1.17 1.32 1.17a.54.54 0 00.42-.18 1.5 1.5 0 00.25-1.17c-.16-1.75-2.71-6.54-4.32-6.54-.39-.03-.7.22-.95.71zM125.31 208.74v-.47c8.78-.52 14.57-8.22 14.63-8.3l.4.27c-.05.08-6.05 8-15 8.5zM156 203.66a16.84 16.84 0 01-11-3.84.37.37 0 00-.52 0l-.35-.34a.9.9 0 011.22 0c.06.06 6.15 5.72 16.22 2.93l.14.45a20.93 20.93 0 01-5.64.79z"/><path class="20a7c345-65e0-424e-b798-11b5a1925dc2" d="M155.08 229.81a2.67 2.67 0 01-1.25-.32c-1.81-1-2.61-3.67-2.64-3.78a.23.23 0 01.17-.29.24.24 0 01.3.16s.78 2.62 2.41 3.5a2.1 2.1 0 001.57.18 43.55 43.55 0 006-2.44.25.25 0 01.34.08.23.23 0 01-.1.32 42.27 42.27 0 01-6.1 2.5 2.8 2.8 0 01-.7.09zM139.21 241.61a.85.85 0 01-.86-.74 47.33 47.33 0 01.59-14.7l.48.1a47 47 0 00-.58 14.55.37.37 0 00.37.32v.47z"/><path class="6b1d6dc4-7851-4686-a2e0-49482a84df10" d="M142.16 201.72c1 0 1.46-1.08 1.72-2.08l-3.14-.1c-.01.71.14 2.12 1.42 2.18z"/><path class="20a7c345-65e0-424e-b798-11b5a1925dc2" d="M142.16 201.84c-1-.05-1.56-.89-1.54-2.3v-.13l3.41.11v.15c-.37 1.42-1 2.17-1.78 2.17zm-1.29-2.18c0 .75.2 1.89 1.3 1.94h.05c.81 0 1.26-1 1.5-1.85z"/><path class="d202fbde-1632-43c5-8ab2-f648022d4ebb" d="M147.09 221.72a17.78 17.78 0 01-10-.23l-2.54 2s2.2 5.73 13 4.31c7.14-.94 12.15-7.29 12.81-11.29l-3.7-1.1s-2.58 4.66-9.57 6.31z"/><path class="20a7c345-65e0-424e-b798-11b5a1925dc2" d="M144.25 228.19c-8 0-9.82-4.57-9.83-4.62v-.08l2.67-2.14h.07a15.2 15.2 0 005.16.8 21.3 21.3 0 004.78-.57c6.85-1.62 9.42-6.18 9.45-6.22v-.09l3.89 1.16v.1c-.67 4.06-5.65 10.44-12.91 11.4a25.49 25.49 0 01-3.27.23zm12.42-12.6c-.39.64-3.11 4.73-9.55 6.25a21.24 21.24 0 01-4.84.57 16 16 0 01-5.18-.78l-2.42 1.93c.28.6 2.35 4.39 9.57 4.39a24.78 24.78 0 003.23-.23c7.09-.93 12-7.11 12.69-11.09z"/><path class="a9bb8ed8-5b3f-4d89-a407-7cadde21f55b" d="M144.38 199.65h-.5c-.26 1-.76 2.12-1.72 2.08-1.28-.06-1.43-1.47-1.42-2.18 0 0-3 12.06-.23 22.67a20.35 20.35 0 006.58-.49 18.36 18.36 0 003.5-1.2 75.39 75.39 0 01-6.21-20.84z"/><path class="20a7c345-65e0-424e-b798-11b5a1925dc2" d="M140.5 222.33h-.08v-.08c-2.75-10.52.2-22.61.23-22.73h.24c0 .75.14 2 1.3 2.06h.05c.85 0 1.31-1.08 1.54-2v-.09h.73v.12a75.84 75.84 0 006.2 20.79l.05.1-.11.06a18.26 18.26 0 01-3.52 1.21 21.24 21.24 0 01-4.84.57 17.41 17.41 0 01-1.79-.01zm3.77-22.56H144c-.37 1.36-1 2.08-1.75 2.08h-.06a1.57 1.57 0 01-1.47-1.49c-.6 2.83-2.38 12.84-.08 21.75a20.35 20.35 0 006.45-.49 18.32 18.32 0 003.37-1.15 76.54 76.54 0 01-6.19-20.7z"/><path class="a886879d-f556-4b3a-8f71-de4a945a38ab" d="M140.74 199.54h-.55s-.18.38-.47 1.07c-.61 2.95-2.31 12.69-.09 21.51l.88.11c-2.77-10.63.23-22.69.23-22.69z"/><path class="20a7c345-65e0-424e-b798-11b5a1925dc2" d="M140.5 222.33l-.89-.11h-.08v-.08c-2.24-8.89-.49-18.75.1-21.58.28-.69.47-1.08.47-1.08v-.07h.78v.15c0 .12-3 12.15-.23 22.61v.17zm-.23-22.69c-.07.14-.22.48-.43 1-.58 2.79-2.31 12.56-.12 21.37.23 0 .44.06.63.08-2.51-9.85-.08-21 .24-22.42z"/><path class="a9bb8ed8-5b3f-4d89-a407-7cadde21f55b" d="M139.72 200.59c-1.24 3-4.38 11.85-2.65 20.9a12.78 12.78 0 002.56.61c-2.22-8.82-.52-18.56.09-21.51z"/><path class="20a7c345-65e0-424e-b798-11b5a1925dc2" d="M139.61 222.22a12.91 12.91 0 01-2.58-.62h-.06v-.06c-1.72-9 1.28-17.65 2.65-21l.23.07c-.58 2.8-2.32 12.62-.1 21.45v.18zm-2.43-.82a12.72 12.72 0 002.28.56c-1.9-7.78-.8-16.27-.1-20.1-1.46 3.89-3.68 11.6-2.18 19.54z"/><path class="a9bb8ed8-5b3f-4d89-a407-7cadde21f55b" d="M156.61 215.45s-8-7.07-11.57-15.77a77.67 77.67 0 006.44 20.39 13.26 13.26 0 005.13-4.62z"/><path class="20a7c345-65e0-424e-b798-11b5a1925dc2" d="M151.37 220.12a78.36 78.36 0 01-6.45-20.43l.23-.06c3.48 8.58 11.46 15.66 11.54 15.73l.07.06v.08a13.57 13.57 0 01-5.18 4.68h-.12zm-6.05-19.47a79.74 79.74 0 006.21 19.25 13.54 13.54 0 004.93-4.43c-.79-.71-7.66-7.05-11.14-14.82z"/><path class="a886879d-f556-4b3a-8f71-de4a945a38ab" d="M144.38 199.65a75.39 75.39 0 006.21 20.84l.89-.45a77.67 77.67 0 01-6.48-20.36z"/><path class="20a7c345-65e0-424e-b798-11b5a1925dc2" d="M150.48 220.57a76.07 76.07 0 01-6.22-20.88v-.16h.86v.1a77.89 77.89 0 006.47 20.37v.1l-.1.06-.9.45-.1.05zm-5.55-20.78h-.41a75.61 75.61 0 006.13 20.58l.67-.34a78.81 78.81 0 01-6.39-20.24z"/><path class="17a0e876-6cae-4505-9508-11e4614fc06f" d="M138.33 240.69s-.56.64-2.28.53-4.13-2.24-5.42-1.89-.25 2.77 3.69 3.54 5.42-.06 5.3-1.12-.74-1.24-1.29-1.06z"/><path class="20a7c345-65e0-424e-b798-11b5a1925dc2" d="M134.3 243c-2.75-.53-4.28-1.92-4.32-2.95a.78.78 0 01.62-.81 1.25 1.25 0 01.35 0 6.56 6.56 0 012.49.92 7.73 7.73 0 002.62 1c1.62.11 2.17-.48 2.17-.49a1.39 1.39 0 01.4-.06c.34 0 .92.16 1.05 1.22a1.06 1.06 0 01-.27.85 3.34 3.34 0 01-2.46.71 14.61 14.61 0 01-2.65-.39zm4.09-2.19a3 3 0 01-2.35.55 7.81 7.81 0 01-2.71-1 6.37 6.37 0 00-2.38-.89 1.29 1.29 0 00-.29 0 .52.52 0 00-.43.57c0 .81 1.33 2.19 4.12 2.73a14 14 0 002.66.3c1.42 0 2-.34 2.28-.63a.81.81 0 00.21-.66c-.08-.66-.36-1-.81-1a1 1 0 00-.3.01z"/><path class="30c86c1f-b7eb-4e13-b2e1-47635f31d7c7" d="M139.73 218.2c.06.44.13.89.21 1.33a23.89 23.89 0 009.37-1.84c-.15-.36-.29-.72-.43-1.07a25.64 25.64 0 01-9.15 1.58zM146.23 208.57a26.68 26.68 0 01-6.83 1.14v.94a24.68 24.68 0 007.12-1.17c-.13-.31-.21-.61-.29-.91zM145.76 206.75l-.21-.88a28.13 28.13 0 01-6 1c0 .3-.06.6-.08.91a25.83 25.83 0 006.29-1.03zM147 211.29a26.13 26.13 0 01-7.67 1.38v1a24.52 24.52 0 007.94-1.43zM139.44 215.33c0 .32.05.64.08 1a23.85 23.85 0 008.64-1.58c-.11-.3-.22-.6-.32-.9a25.83 25.83 0 01-8.4 1.48zM138.71 207.76c0-.31 0-.61.08-.9h-1.09c-.07.28-.14.57-.2.87zM138.52 212.68c-.63 0-1.23 0-1.8-.05 0 .29-.05.59-.07.89.59.06 1.22.1 1.89.11-.01-.32-.01-.63-.02-.95zM138.58 209.72h-1.47c-.05.29-.09.59-.14.9.5 0 1 .05 1.57.06.01-.34.03-.68.04-.96zM138.89 218.18c-.83 0-1.59-.09-2.26-.17q0 .66.12 1.32c.7.09 1.48.16 2.34.19-.09-.45-.09-.89-.2-1.34zM138.61 215.33c-.73 0-1.41-.05-2-.11v.91c.64.07 1.35.12 2.11.15-.07-.28-.09-.64-.11-.95zM149.79 216.25c.14.35.28.69.43 1a23.45 23.45 0 005-3.19l-.58-.58a23.25 23.25 0 01-4.85 2.77zM148.15 211.87a23.38 23.38 0 003.41-1.74l-.54-.66a23.25 23.25 0 01-3.17 1.5l.3.9zM147.28 209.2a21.55 21.55 0 002.64-1.15c-.18-.23-.35-.47-.53-.71a22.32 22.32 0 01-2.37 1c.08.26.17.56.26.86zM149 214.36a22.45 22.45 0 004.2-2.36l-.55-.61a23 23 0 01-3.94 2.08zM146.52 206.52c.6-.2 1.22-.42 1.83-.68l-.48-.74c-.53.2-1.06.39-1.58.55.07.28.15.57.23.87z"/><path class="20a7c345-65e0-424e-b798-11b5a1925dc2" d="M140.5 222.33h-.08v-.08c-2.75-10.52.2-22.61.23-22.73h.24c0 .75.14 2 1.3 2.06h.05c.85 0 1.31-1.08 1.54-2v-.09h.73v.12a75.84 75.84 0 006.2 20.79l.05.1-.11.06a18.26 18.26 0 01-3.52 1.21 21.24 21.24 0 01-4.84.57 17.41 17.41 0 01-1.79-.01zm3.77-22.56H144c-.37 1.36-1 2.08-1.75 2.08h-.06a1.57 1.57 0 01-1.47-1.49c-.6 2.83-2.38 12.84-.08 21.75a20.35 20.35 0 006.45-.49 18.32 18.32 0 003.37-1.15 76.54 76.54 0 01-6.19-20.7z"/><path class="20a7c345-65e0-424e-b798-11b5a1925dc2" d="M140.5 222.33l-.89-.11h-.08v-.08c-2.24-8.89-.49-18.75.1-21.58.28-.69.47-1.08.47-1.08v-.07h.78v.15c0 .12-3 12.15-.23 22.61v.17zm-.23-22.69c-.07.14-.22.48-.43 1-.58 2.79-2.31 12.56-.12 21.37.23 0 .44.06.63.08-2.51-9.85-.08-21 .24-22.42z"/><path class="20a7c345-65e0-424e-b798-11b5a1925dc2" d="M139.61 222.22a12.91 12.91 0 01-2.58-.62h-.06v-.06c-1.72-9 1.28-17.65 2.65-21l.23.07c-.58 2.8-2.32 12.62-.1 21.45v.18zm-2.43-.82a12.72 12.72 0 002.28.56c-1.9-7.78-.8-16.27-.1-20.1-1.46 3.89-3.68 11.6-2.18 19.54zM151.37 220.12a78.36 78.36 0 01-6.45-20.43l.23-.06c3.48 8.58 11.46 15.66 11.54 15.73l.07.06v.08a13.57 13.57 0 01-5.18 4.68h-.12zm-6.05-19.47a79.74 79.74 0 006.21 19.25 13.54 13.54 0 004.93-4.43c-.79-.71-7.66-7.05-11.14-14.82z"/><path class="20a7c345-65e0-424e-b798-11b5a1925dc2" d="M150.48 220.57a76.07 76.07 0 01-6.22-20.88v-.16h.86v.1a77.89 77.89 0 006.47 20.37v.1l-.1.06-.9.45-.1.05zm-5.55-20.78h-.41a75.61 75.61 0 006.13 20.58l.67-.34a78.81 78.81 0 01-6.39-20.24z"/><g class="7c8315d0-8eca-41f4-92a8-7401c7e3f563"><path class="d202fbde-1632-43c5-8ab2-f648022d4ebb" d="M160.31 216.55l-3.7-1.1a14 14 0 01-7.11 5.55c1.61-.53 4.06-1.06 5 .23.74 1 .49 2.53-.46 4 3.55-2.45 5.84-6.07 6.27-8.68z"/></g><path class="6b1d6dc4-7851-4686-a2e0-49482a84df10" d="M166.71 201.85c-.61.2-2.21.63-2.21.63a15.07 15.07 0 001.39-1.22c.58-.58.45-1.1-.08-.86a14.42 14.42 0 00-1.89 1.41l.37-.94c.49-1.45 0-1.76-.33-1.1s-1 1.81-1 1.81.29-1.77-.25-2-.41.82-.66 1.61a1.55 1.55 0 01-.38.65 1.07 1.07 0 00.21 1.49l.06.06a6.31 6.31 0 01.81.58c1.07.91 2.26 1.61 2.34 1.1s-.66-1-.66-1.41 1.24-.47 2.14-.82.76-1.18.14-.99z"/><path class="20a7c345-65e0-424e-b798-11b5a1925dc2" d="M162.65 204a5.39 5.39 0 00-.79-.56v-.06a1.19 1.19 0 01-.22-1.65 1.4 1.4 0 00.36-.61 4.4 4.4 0 00.15-.79c.08-.51.14-.94.47-.94a.63.63 0 01.21.05c.4.21.41 1 .37 1.61.23-.39.55-.94.73-1.32s.29-.4.45-.4a.25.25 0 01.22.12c.17.23.12.77-.11 1.48l-.2.49a10 10 0 011.55-1.12c.28-.12.52-.07.6.13s-.05.59-.38.93a10.46 10.46 0 01-1 .86c.52-.14 1.28-.35 1.66-.47s.58 0 .63.28-.15.66-.72.89a9.88 9.88 0 01-1.06.31c-.44.11-1 .24-1 .4a1.27 1.27 0 00.27.51 1.35 1.35 0 01.38.92.31.31 0 01-.34.27 5.25 5.25 0 01-2.23-1.33zm4.1-2.05c-.61.19-2.2.62-2.22.63l-.11-.22a13.74 13.74 0 001.39-1.2c.31-.32.37-.58.33-.67s0 0-.09 0a.54.54 0 00-.19 0 14.93 14.93 0 00-1.86 1.41l-.19-.13.37-.93c.26-.79.22-1.17.12-1.28s-.12.05-.23.27c-.33.66-1 1.8-1 1.81l-.22-.08c.1-.65.15-1.74-.19-1.91a.13.13 0 00-.09 0c-.12 0-.18.4-.23.73a5.79 5.79 0 01-.16.83 1.75 1.75 0 01-.4.69.94.94 0 00.2 1.33l.05.06a6.34 6.34 0 01.81.58 5.15 5.15 0 002 1.24c.08 0 .09 0 .1-.07 0-.23-.15-.49-.33-.74a1.26 1.26 0 01-.33-.65c0-.34.53-.47 1.18-.64a7.7 7.7 0 001-.3c.47-.18.59-.46.57-.61a.17.17 0 00-.18-.13.4.4 0 00-.1.03z"/><path class="e2c38a8e-dace-45d2-9a82-eae0c3f6f89c" d="M128.04 178.84l4.05.62-2.28 2.61-1.84-3.02-3.81-1.36 2.28-2.62 1.6 3.77z"/><path class="20a7c345-65e0-424e-b798-11b5a1925dc2" d="M127.89 179.15l-3.89-1.41 2.53-2.89 1.65 3.88 4.2.64-2.54 2.9zm.17-.18l1.77 2.9 2-2.33zm-3.7-1.34l3.58 1.28-1.53-3.61z"/><path class="de901720-f507-4659-a9a4-f8b908b8fdf4" d="M160.22 187a13.78 13.78 0 00.17 9.8l2.21-.94-.49-3.61 1.73 1.88 2.3-1.72-1.4-2 2.13 1.33 1.48-2.12a20.06 20.06 0 00-8.13-2.62z"/><path class="20a7c345-65e0-424e-b798-11b5a1925dc2" d="M160.28 196.82a14.07 14.07 0 01-.17-9.9v-.08h.08a20.55 20.55 0 018.19 2.6l.1.07-1.61 2.32-1.75-1.09 1.14 1.66-2.48 1.86-1.54-1.68.46 3.32-2.42 1zm1.66-5l1.91 2.08 2.12-1.59-1.33-1.94.16-.17 2 1.27 1.34-1.92a20.18 20.18 0 00-7.88-2.5 13.9 13.9 0 00.15 9.53l2-.86z"/><path class="de901720-f507-4659-a9a4-f8b908b8fdf4" d="M127.71 178.89a30.74 30.74 0 00-8.94 2.74l1 2 3-1.88-2.05 2.27 1.15 1.1 2-2.19-1.56 3.6 3.2 1.34z"/><path class="20a7c345-65e0-424e-b798-11b5a1925dc2" d="M122.22 186.64l1.33-3.09-1.66 1.78-1.32-1.26 1.56-1.73-2.43 1.5-1.09-2.26.1-.05a30.94 30.94 0 019-2.76h.17l-2.2 9.33zm-3.29-5l.87 1.82 2.93-1.81.15.18-2 2.19 1 .93 2-2.11.2.13-1.51 3.5 3 1.23 2.06-8.71a30.47 30.47 0 00-8.7 2.69z"/><path class="6b1d6dc4-7851-4686-a2e0-49482a84df10" d="M151 171a30.71 30.71 0 01-22.39 6.64 8.12 8.12 0 00-.52.74c-8.21 14.82 11.91 29.1 26.6 16.63a16.69 16.69 0 005.71-8.5C151.44 182.42 151 171 151 171z"/><path class="20a7c345-65e0-424e-b798-11b5a1925dc2" d="M127.9 192.12a13.35 13.35 0 010-13.76 3.38 3.38 0 01.36-.54l.16-.21v-.06h.07a29.55 29.55 0 003.13.16 30.76 30.76 0 0019.17-6.78l.19-.14v.21c0 .12.59 11.35 9.33 15.41h.09v.1a17 17 0 01-5.75 8.56 19.13 19.13 0 01-12.43 4.8 16.89 16.89 0 01-14.32-7.75zm22.94-20.85A31 31 0 01131.7 178a28.61 28.61 0 01-3.08-.16l-.13.17a4.39 4.39 0 00-.34.5 13.12 13.12 0 000 13.53 16.66 16.66 0 0014.18 7.7 18.88 18.88 0 0012.23-4.74 16.8 16.8 0 005.65-8.34c-8.1-3.87-9.21-13.75-9.37-15.39z"/><path class="de901720-f507-4659-a9a4-f8b908b8fdf4" d="M150.86 170.26s-13.79-4.59-22.3 7.42A30.71 30.71 0 00151 171s.49 11.38 9.4 15.51c2.27-8.87-6.95-15.65-9.54-16.25z"/><path class="20a7c345-65e0-424e-b798-11b5a1925dc2" d="M160.3 186.66c-8.18-3.79-9.32-13.75-9.46-15.39A31 31 0 01131.7 178a30.12 30.12 0 01-3.16-.16h-.2l.12-.16a19.13 19.13 0 0116.19-8.33 21.84 21.84 0 016.24.86c1.57.36 5.58 3 8 7a12 12 0 011.6 9.49v.14zm-31.52-9.08c1 .09 1.94.14 2.92.14a30.76 30.76 0 0019.17-6.78l.19-.14v.2c0 .12.58 11.24 9.2 15.35a11.71 11.71 0 00-1.61-9.16c-2.37-3.9-6.29-6.49-7.83-6.85a21.89 21.89 0 00-6.18-.85 18.88 18.88 0 00-15.86 8.09zM138.81 195.74a11.56 11.56 0 01-2.34-.26c-7-1.5-5.69-7.46-5.67-7.52h.24c-.06.24-1.24 5.79 5.49 7.24a7.73 7.73 0 006-.77 6.42 6.42 0 002.72-3.94h.25a6.72 6.72 0 01-2.83 4.09 7 7 0 01-3.86 1.07z"/><path d="M143.81 184.1a.68.68 0 11-1.32 0 .68.68 0 111.32 0zM133.29 183.67a.79.79 0 01-.81.72.76.76 0 01-.48-.95.78.78 0 01.8-.72.76.76 0 01.49.95z"/><path class="6b1d6dc4-7851-4686-a2e0-49482a84df10" d="M125.47 207.72a1.6 1.6 0 01-.59-.76c-.29-.77-.24-1.87-.76-1.57s-.11 2.06-.11 2.06-.77-1.1-1.14-1.74-.84-.31-.26 1.11l.43.92a13.8 13.8 0 00-2-1.3c-.55-.2-.64.31 0 .87a15.88 15.88 0 001.47 1.13s-1.62-.34-2.25-.5-.7.63.23.93 2.15.31 2.18.7-.68.94-.56 1.45 1.25-.27 2.26-1.24a5.77 5.77 0 01.95-.74.27.27 0 01.06-.1.83.83 0 00.09-1.22z"/><path class="20a7c345-65e0-424e-b798-11b5a1925dc2" d="M122 211.05a1.3 1.3 0 01.32-1 1.17 1.17 0 00.24-.52c0-.16-.57-.26-1-.35a8 8 0 01-1.08-.24c-.6-.19-.82-.58-.78-.86s.3-.38.62-.3 1.15.26 1.68.37a11.19 11.19 0 01-1-.81c-.36-.32-.53-.67-.44-.91s.3-.26.59-.15a10 10 0 011.62 1l-.23-.48c-.29-.7-.36-1.24-.2-1.48a.25.25 0 01.22-.12c.15 0 .31.13.45.37s.57.9.82 1.28c-.08-.57-.12-1.4.27-1.63a.51.51 0 01.22-.07c.32 0 .41.42.51.91a4.18 4.18 0 00.21.79 1.51 1.51 0 00.56.72 1 1 0 01-.09 1.38.07.07 0 000 .06 6.2 6.2 0 00-.93.73 5 5 0 01-2.14 1.43.31.31 0 01-.44-.12zm3.3-2.2a.71.71 0 00.11-1 1.77 1.77 0 01-.63-.82 5.84 5.84 0 01-.22-.82c-.06-.32-.15-.72-.27-.72a.2.2 0 00-.09 0c-.32.19-.21 1.28-.06 1.92l-.22.09s-.78-1.1-1.15-1.75c-.12-.2-.21-.25-.26-.23s-.09.47.22 1.24l.43.92-.18.14a13.93 13.93 0 00-2-1.28h-.27s0 .35.37.66a16.48 16.48 0 001.46 1.12l-.09.21s-1.64-.33-2.26-.49h-.13a.18.18 0 00-.19.13c0 .14.12.43.61.59a9.39 9.39 0 001 .24c.67.12 1.2.22 1.22.56a1.27 1.27 0 01-.28.67 1.16 1.16 0 00-.29.76s0 .06.09.06a4.93 4.93 0 002-1.35 5.3 5.3 0 01.93-.74zM159.85 186.35c-5.63-5.27-5.94-11.09-5.95-11.15h.25c0 .06.31 5.79 5.87 11l-.17.17zM128.56 177.79v-.23a31.49 31.49 0 0016.33-5.17l.15.18a31.52 31.52 0 01-16.47 5.22zM129.36 176.86l-.17-.18a26.06 26.06 0 0112.05-5.68v.23a25.76 25.76 0 00-11.92 5.63z"/><path class="56599b0c-f123-44b2-a3f0-7297a84b85f4" d="M153.3 179.52c1.15 3.78 3.41 8.72-1.78 14.59-5.42 6.12-13.9 5.69-19.23 2.54 5.83 4.15 14.81 4.8 22.35-1.6a16.69 16.69 0 005.71-8.5 15.08 15.08 0 01-7.05-7.03z" opacity=".46"/><path class="e2c38a8e-dace-45d2-9a82-eae0c3f6f89c" d="M160.46 186.67l2.11-3.36 1.68 3.01-3.62.5-2.75 2.86-1.68-3 4.26-.01z"/><path class="20a7c345-65e0-424e-b798-11b5a1925dc2" d="M156 186.55h4.4l2.19-3.47 1.86 3.33-3.75.52-2.84 2.95zm.41.24l1.5 2.69 2.58-2.69zm6.17-3.24l-2 3.15 3.48-.48z"/><path class="f2b6681a-12e9-4469-ba56-1334dcd2cd86" d="M195.2 242.31c1.75-.09 5.91-.06 5.79 1.49s-2.1 1.84-4.5.8c-2.83-1.23-1.69-2.26-1.29-2.29z"/><path class="20a7c345-65e0-424e-b798-11b5a1925dc2" d="M199.34 245.34a6.22 6.22 0 01-2.91-.61c-1.73-.76-2-1.44-1.93-1.88a.87.87 0 01.7-.68c.75 0 4.57-.2 5.64.89a1 1 0 01.29.74 1.69 1.69 0 01-1.79 1.54zm-4.13-2.89a.58.58 0 00-.43.45c0 .23.06.83 1.76 1.57a6.16 6.16 0 002.78.59c.93-.07 1.47-.53 1.53-1.28a.64.64 0 00-.21-.52c-.82-.83-3.8-.9-5.43-.81z"/><path d="M174.4 238.63c1.39 1.69 3.48 4.49 3.09 5.29-1 .18-2.23-.88-3.52-2.5s-1.44-3-.83-3.61c.29-.06.71.19 1.26.82z" fill="#0ab679"/><path class="20a7c345-65e0-424e-b798-11b5a1925dc2" d="M177.38 244.08c-.93.07-2.08-.77-3.52-2.58-1.22-1.53-1.55-3.09-.82-3.79h.07c.38-.09.86.2 1.4.86 1.65 2 3.53 4.59 3.1 5.44v.07h-.2zm0-.28c.16-.63-1-2.55-3.09-5.08-.55-.66-.88-.78-1.09-.77-.49.53-.34 1.84.88 3.38 1.37 1.72 2.46 2.57 3.3 2.47z"/><path class="f2b6681a-12e9-4469-ba56-1334dcd2cd86" d="M178.25 240.87a1.83 1.83 0 01-.22 2.81 1.09 1.09 0 01-.54.24c.39-.8-1.7-3.6-3.09-5.29-.55-.67-1-.88-1.26-.82a1 1 0 01.52-.25c1.16-.22 3.97 2.66 4.59 3.31z"/><path class="20a7c345-65e0-424e-b798-11b5a1925dc2" d="M177.24 244.11l.12-.25c.27-.54-.91-2.51-3.07-5.14-.57-.69-.91-.79-1.11-.77l-.49.11.36-.35a1.14 1.14 0 01.59-.29c1.15-.2 3.7 2.29 4.72 3.36a2 2 0 01-.23 3 1.4 1.4 0 01-.61.27l-.27.05zm-3.55-6.41a.32.32 0 00-.14 0 2.63 2.63 0 011 .81c1.51 1.84 3.21 4.15 3.16 5.19a1.17 1.17 0 00.27-.15 1.75 1.75 0 00.72-1.26 1.77 1.77 0 00-.51-1.35c-1.56-1.63-3.53-3.35-4.46-3.27zM195.45 242.45c3.56-6.35 3-17.52 3-18h-.56c0 .11.56 11.48-2.92 17.69l.49.27z"/><path class="20a7c345-65e0-424e-b798-11b5a1925dc2" d="M178.6 241.17c3.69-5.08 4.89-17 4.94-17.47h-.56c0 .12-1.23 12.23-4.84 17.2l.46.32zM172 202.77a24.74 24.74 0 0014.81-6.29l1.83-.14c6 3.23 15 2.18 17.44 1.45a34.19 34.19 0 017-.91v-.56a34.52 34.52 0 00-7.19.93c-2.4.72-11.26 1.75-17.08-1.44h-.08l-2.2.17-.08.08a24.46 24.46 0 01-18.79 6.18l-1.38-.1-.05.55 1.39.11a26.35 26.35 0 004.35 0z"/><path class="4c7f7aee-db94-4736-8bfa-25419f2eba17" d="M162.25 203.41c.69-.1 2.46-.45 2.46-.45a16.69 16.69 0 01-2-.54c-.86-.3-1-.88-.37-.9a14.51 14.51 0 012.55.49l-.84-.76c-1.22-1.21-.91-1.77-.25-1.26s1.92 1.31 1.92 1.31-1.19-1.63-.81-2.17.81.63 1.46 1.29a1.72 1.72 0 00.71.47 1.75 1.75 0 01.87 1.87c-.13.37-.56.47-.74.86-.65 1.38-1.43 2.65-1.78 2.18s.11-1.34-.09-1.74-1.43.13-2.48.22-1.31-.76-.61-.87z"/><path class="20a7c345-65e0-424e-b798-11b5a1925dc2" d="M165.67 206a.37.37 0 01-.32-.16 1.56 1.56 0 01-.11-1.11 1.3 1.3 0 000-.65c-.07-.12-.59 0-1.16.09a10.69 10.69 0 01-1.2.21c-.7.05-1.12-.28-1.16-.62s.12-.47.5-.52L164 203a12.35 12.35 0 01-1.34-.4c-.55-.19-.89-.53-.85-.82 0-.1.08-.32.52-.35a10 10 0 012 .36l-.43-.39c-.65-.65-1-1.2-.85-1.5s.42-.25.79 0 .92.66 1.34.93c-.34-.56-.72-1.36-.44-1.76a.42.42 0 01.3-.19c.28 0 .52.32.82.75a5.65 5.65 0 00.56.71 1.66 1.66 0 00.68.45 1.88 1.88 0 01.93 2 1.22 1.22 0 01-.4.49 1 1 0 00-.34.38c-.72 1.53-1.3 2.32-1.7 2.36zm-.53-6.91a.3.3 0 00-.09.08c-.22.32.35 1.36.81 2l-.19.19s-1.27-.8-1.92-1.31a.6.6 0 00-.35-.15s0 .42.77 1.2l.84.76-.13.24a14.75 14.75 0 00-2.54-.49c-.12 0-.21.05-.22.1s.19.36.67.53a17 17 0 001.94.53v.28s-1.77.35-2.46.45c-.17 0-.27.11-.26.22s.31.41.87.36a7.26 7.26 0 001.15-.19 6.87 6.87 0 01.85-.16c.21 0 .5 0 .62.22a1.37 1.37 0 010 .81 1.31 1.31 0 00.06.91h.07c.2 0 .71-.61 1.47-2.2a1.35 1.35 0 01.4-.47.85.85 0 00.32-.37 1.57 1.57 0 00-.78-1.69 2.16 2.16 0 01-.77-.51 7.94 7.94 0 01-.58-.75c-.19-.27-.45-.64-.57-.64z"/><path class="4c7f7aee-db94-4736-8bfa-25419f2eba17" d="M211.57 196.06a1.91 1.91 0 00.56-.9c.25-.89.09-2.11.68-1.82s.3 2.29.3 2.29.74-1.29 1.08-2 .88-.41.37 1.23l-.38 1.07a14.87 14.87 0 012-1.63c.57-.27.71.3.1 1a17.27 17.27 0 01-1.48 1.39s1.72-.51 2.39-.74.81.64-.16 1.06-2.3.52-2.3 1 .82 1 .74 1.58-1.38-.2-2.55-1.19a6.32 6.32 0 00-1.09-.75.38.38 0 00-.08-.11 1 1 0 01-.18-1.48z"/><path class="20a7c345-65e0-424e-b798-11b5a1925dc2" d="M215.29 199.8a5.29 5.29 0 01-2.44-1.42 6.27 6.27 0 00-1.07-.72h-.05a.21.21 0 000-.06 1.1 1.1 0 01-.19-1.56 1.72 1.72 0 00.51-.84 5.34 5.34 0 00.15-.89c.07-.58.13-1 .48-1.07a.4.4 0 01.25.06c.44.22.48 1.1.44 1.76.24-.44.56-1 .75-1.46s.54-.57.72-.35.17.86-.08 1.69l-.19.53a10 10 0 011.63-1.26c.3-.15.55-.1.66.11s0 .67-.39 1.07-.7.71-1 1c.56-.17 1.35-.42 1.75-.56a.49.49 0 01.7.29c.08.31-.12.76-.76 1a8.4 8.4 0 01-1.14.37c-.48.14-1.07.3-1.07.47a1.48 1.48 0 00.31.57 1.49 1.49 0 01.43 1 .34.34 0 01-.34.31zm2.09-3.83h-.13c-.66.23-2.37.74-2.39.75l-.13-.24a19.35 19.35 0 001.47-1.38c.34-.38.39-.67.34-.77s-.1-.07-.28 0a13.77 13.77 0 00-2 1.6l-.23-.15.38-1.06c.33-1.06.16-1.41.12-1.43s-.13.08-.23.3c-.34.75-1.08 2-1.08 2.06l-.27-.09c.11-.78.11-2-.23-2.14h-.1c-.12 0-.18.49-.22.83a5.13 5.13 0 01-.16.94 1.89 1.89 0 01-.58.94.84.84 0 00.19 1.18.44.44 0 01.08.11 6.69 6.69 0 011.08.74 5.37 5.37 0 002.24 1.36c.06 0 .08 0 .08-.08 0-.27-.17-.55-.38-.83a1.51 1.51 0 01-.36-.73c0-.38.56-.54 1.27-.73a11 11 0 001.11-.36c.51-.22.64-.55.6-.71a.18.18 0 00-.21-.12z"/><path class="e436471e-9013-4f57-8c51-b38fcc7338c8" d="M195.82 213.83c.72.13 4.59.24 4.87 1.95s1.42 7.69.71 8.77-8.72 1.59-9.21 1.39-.65-4.57-.65-4.57-1 4.19-1.38 4.55-7.56.15-10.37-1.42c-1-.53.26-9.6 1.17-10.51s14.86-.16 14.86-.16z"/><path class="20a7c345-65e0-424e-b798-11b5a1925dc2" d="M195.29 226a16.64 16.64 0 01-3.15.07c-.42-.16-.61-2.21-.7-3.71a16 16 0 01-1.18 3.66c-.06.06-.19.12-.67.16-1.86.15-7.45-.21-9.87-1.56-.18-.09-.3-.36-.36-.82-.33-2.35.7-9.11 1.5-9.91.12-.12.43-.29 1.74-.39 3.88-.31 13.14.18 13.25.19l.51.06c1.36.15 4.21.45 4.47 2 0 .2.07.45.12.74.64 3.71 1.15 7.25.57 8.14s-4.54 1.24-6.23 1.37zm-12.66-12.22c-1.24.09-1.51.24-1.57.3-.75.75-1.73 7.45-1.42 9.68.07.5.18.6.22.62 2.36 1.33 7.87 1.67 9.7 1.52a1.32 1.32 0 00.51-.09 24.28 24.28 0 001.33-4.47h.28c.07 2 .31 4.28.56 4.45a15.92 15.92 0 003-.09c3.33-.26 5.69-.75 6-1.24.6-.92-.24-5.84-.61-7.94 0-.29-.09-.54-.12-.74-.22-1.34-3-1.64-4.22-1.77l-.51-.06c-.1 0-9.34-.5-13.19-.19z"/><path d="M189.81 195.68a28.49 28.49 0 014.94 5.29c2.47 3.37 6.16 10.65 5.94 14.81 0 0-3.92 3.89-11.84 2.91s-10-4.61-10-5.52 3.58-8.77 4.75-12c2.24-6.17 2.88-6.55 6.21-5.49z" fill="#1d3a54"/><path class="20a7c345-65e0-424e-b798-11b5a1925dc2" d="M192.82 218.92a19.2 19.2 0 01-4-.1c-7.7-.95-10.09-4.47-10.1-5.65 0-.52.93-2.78 2.47-6.43.88-2.11 1.8-4.28 2.29-5.63 1.58-4.41 2.37-5.9 3.94-6a6.64 6.64 0 012.47.48 29.44 29.44 0 015 5.31c2.64 3.62 6.18 10.81 6 14.9v.06a13.42 13.42 0 01-8 3zm7.73-3.2c.19-4-3.3-11.1-5.91-14.67a29.13 29.13 0 00-4.87-5.24c-3.28-1.05-3.82-.72-6 5.39-.49 1.36-1.41 3.54-2.29 5.65a51 51 0 00-2.45 6.32c0 .68 1.73 4.37 9.86 5.38a19.29 19.29 0 003.93.1 13.36 13.36 0 007.75-2.93z"/><path class="c52f2436-f65c-4c66-96b9-3fa4815fb53e" d="M182 205.45l.56-1.36c6 2.54 10.74 1.83 14.16.3q.34.63.69 1.29c-3.52 1.79-8.72 2.79-15.41-.23z"/><path class="c52f2436-f65c-4c66-96b9-3fa4815fb53e" d="M183.12 202.79c.16-.39.3-.76.43-1.1a16.73 16.73 0 0011.55 0c.28.42.58.89.89 1.39a17 17 0 01-12.87-.29zM184.07 200.25c.19-.5.37-1 .54-1.37a16.93 16.93 0 008.47.22c.34.4.7.83 1.07 1.3a16.83 16.83 0 01-10.08-.15zM181 207.88q.26-.6.51-1.23c7.32 3.73 13 2.61 16.71.65.21.44.4.88.59 1.33-3.81 2.15-9.81 3.55-17.81-.75zM179 213.15a5.07 5.07 0 01.32-1.12c9.65 5.52 16.77 3.37 20.89.8a14 14 0 01.26 1.48c-4.16 2.65-11.48 4.94-21.45-1a1.68 1.68 0 01-.02-.16z"/><path class="c52f2436-f65c-4c66-96b9-3fa4815fb53e" d="M180 210.38l.49-1.2c8.58 4.88 15 3.13 18.88.77.17.45.33.9.46 1.35-3.97 2.52-10.71 4.56-19.83-.92z"/><path class="4c7f7aee-db94-4736-8bfa-25419f2eba17" d="M190.24 195.32s-.83-.08.21.9a2.07 2.07 0 01-1.31 3.48c-1.95.19-4.65-3.1-2.12-4.44s3.6-.51 3.22.06z"/><path class="20a7c345-65e0-424e-b798-11b5a1925dc2" d="M189.12 199.84a3.54 3.54 0 01-3.18-2.44 1.81 1.81 0 011-2.26 5.75 5.75 0 012.17-.74 1.3 1.3 0 011.25.41.53.53 0 010 .58l-.05.07H190.07s0 .15.48.63a2.16 2.16 0 01.48 2.26 2.1 2.1 0 01-1.87 1.45zm1-4.66a.25.25 0 000-.22c-.1-.17-.41-.33-1-.28a5.74 5.74 0 00-2.07.7 1.54 1.54 0 00-.88 1.94 3.27 3.27 0 002.89 2.24v.14-.14a1.83 1.83 0 001.63-1.27 1.88 1.88 0 00-.4-2c-.46-.43-.63-.71-.56-.93a.37.37 0 01.35-.21z"/><path class="4c7f7aee-db94-4736-8bfa-25419f2eba17" d="M200.48 184.45s3.57-.37 3.09 2.41a2.5 2.5 0 01-4.33 1.47c-.94-1.18 1.24-3.88 1.24-3.88z"/><path class="20a7c345-65e0-424e-b798-11b5a1925dc2" d="M201.33 189.26a2.66 2.66 0 01-2.2-.84c-1-1.26 1.15-3.94 1.24-4l.08-.05h.06a3.74 3.74 0 012.78.79 2 2 0 01.42 1.79 2.63 2.63 0 01-2.38 2.37zm-.77-4.67c-.28.36-2 2.66-1.2 3.65a2.35 2.35 0 004.07-1.4 1.73 1.73 0 00-.34-1.55 3.48 3.48 0 00-2.53-.7z"/><path class="4c7f7aee-db94-4736-8bfa-25419f2eba17" d="M173.36 185.37s-3.58.2-2.66 2.87a2.51 2.51 0 004.51.76c.79-1.31-1.85-3.63-1.85-3.63z"/><path class="20a7c345-65e0-424e-b798-11b5a1925dc2" d="M173.3 190.24a2.61 2.61 0 01-2.73-2 2 2 0 01.12-1.83 3.77 3.77 0 012.66-1.22h.11c.1.1 2.66 2.41 1.87 3.8a2.62 2.62 0 01-2 1.17zm0-4.73a3.55 3.55 0 00-2.39 1.1 1.75 1.75 0 00-.09 1.58 2.36 2.36 0 004.25.74c.63-1.11-1.44-3.11-1.77-3.42z"/><path class="4c7f7aee-db94-4736-8bfa-25419f2eba17" d="M195.07 170.41a17.35 17.35 0 00-12.68-1.41 15.55 15.55 0 00-4.08 1.76c-6.57 4.13-8.72 11.76-4.38 19s17.93 11.13 26-.34a12.8 12.8 0 00-2-17 16.31 16.31 0 00-2.86-2.01z"/><path class="20a7c345-65e0-424e-b798-11b5a1925dc2" d="M188.14 196.73c-5.71.46-11.61-2.39-14.33-6.92-4.21-7-2.39-14.9 4.43-19.19a16 16 0 014.11-1.78 17.75 17.75 0 0112.79 1.45 15.53 15.53 0 012.91 2 13 13 0 012 17.18c-3.9 5.52-8.65 7-12 7.25zm-2.61-28.16a16.75 16.75 0 00-3.1.54 15.83 15.83 0 00-4 1.75c-6.79 4.26-8.53 11.82-4.33 18.81 2.66 4.44 8.45 7.23 14.06 6.78 3.24-.25 7.9-1.7 11.74-7.13a12.72 12.72 0 00-2-16.81 15.57 15.57 0 00-2.87-2 17.39 17.39 0 00-9.47-2z"/><path d="M178.32 170.74a15.49 15.49 0 014.07-1.76 17.35 17.35 0 0112.68 1.43 15.8 15.8 0 012.89 2 12.68 12.68 0 013.88 13.06 18.36 18.36 0 00-1.78-6.23c-2.09-4.79-6.79-7.55-11.83-8.38-6.78-1.12-13.56 2.73-14.88 9.61a28.2 28.2 0 00-.59 7.21c-3.01-6.44-.37-13.22 5.56-16.94z" fill="#683c32"/><path class="20a7c345-65e0-424e-b798-11b5a1925dc2" d="M202 185.5h-.27a18 18 0 00-1.77-6.19c-1.9-4.36-6.18-7.39-11.72-8.3a14.1 14.1 0 00-3.43-.15 12.17 12.17 0 00-11.3 9.64 28.66 28.66 0 00-.58 7.18l-.27.07c-2.94-6.28-.68-13.15 5.61-17.11a16 16 0 014.11-1.78 17.75 17.75 0 0112.79 1.45 15.53 15.53 0 012.91 2A12.73 12.73 0 01202 185.5zm-16.44-16.93a16.9 16.9 0 00-3.1.54 15.83 15.83 0 00-4 1.75c-5.93 3.73-8.2 10.1-5.81 16a31.19 31.19 0 01.62-6.48 12.46 12.46 0 0111.56-9.87 14.57 14.57 0 013.49.15c5.65.93 10 4 11.95 8.47a18.67 18.67 0 011.68 5.48 12.37 12.37 0 00-4-12.15 15.24 15.24 0 00-2.87-2 17.38 17.38 0 00-9.47-2z"/><path d="M194.61 188.7s-5.93 3.5-12.68-1.37c0 0-.8 7.43 5 8.13s7.68-6.76 7.68-6.76z" fill="#d92231"/><path class="20a7c345-65e0-424e-b798-11b5a1925dc2" d="M188.13 195.63a6.57 6.57 0 01-1.25 0c-5.84-.71-5.09-8.2-5.08-8.28v-.24l.2.14a12.36 12.36 0 008.37 2.52 10.6 10.6 0 004.15-1.16l.29-.17-.08.32c0 .07-1.75 6.51-6.62 6.9zm6.25-6.65a11.31 11.31 0 01-4 1 12.54 12.54 0 01-8.35-2.43c-.08 1.28-.13 7.13 4.86 7.73a5.86 5.86 0 001.18 0c4.07-.33 5.87-5.09 6.28-6.37z"/><path d="M182.45 182.42c.07.75.49 1.33 1 1.29s.79-.67.73-1.42-.49-1.33-.95-1.29-.84.67-.78 1.42zM193.3 182.85c0 .75.36 1.37.83 1.37s.85-.6.86-1.36-.37-1.36-.84-1.37-.85.6-.85 1.36z"/><path class="20a7c345-65e0-424e-b798-11b5a1925dc2" d="M187.41 171.46a1.6 1.6 0 001.13-.58l-.22-.17a1.33 1.33 0 01-1 .47c-.64 0-1.71-.37-3.2-2.25a7 7 0 01-1.27-3.08h-.28a7.06 7.06 0 001.33 3.23c1.25 1.59 2.4 2.38 3.42 2.37z"/><path class="20a7c345-65e0-424e-b798-11b5a1925dc2" d="M185.82 171.93a5 5 0 001.83-.5l-.14-.25a4.34 4.34 0 01-5.33-1 8.64 8.64 0 01-1.88-2.71l-.26.11a9 9 0 001.94 2.79 4.59 4.59 0 003.84 1.59z"/><path class="20a7c345-65e0-424e-b798-11b5a1925dc2" d="M183 172.73a4.67 4.67 0 002.18-.82l-.16-.23a3.7 3.7 0 01-3.22.64c-2.16-.68-3.33-3.57-3.34-3.6l-.26.1c.05.12 1.23 3.05 3.52 3.77a3.48 3.48 0 001.28.14z"/><path class="56599b0c-f123-44b2-a3f0-7297a84b85f4" d="M194.19 172.9s7.8 7.81 3.78 15.8-12.52 8-17.54 6.55c0 0 7.41 3.2 14.09-.69s7.3-9.3 7.3-9.3-.5-8.09-7.63-12.36z" opacity=".5"/><g class="0552d7df-cfe5-49ae-868f-70f36c302f07"><path class="e436471e-9013-4f57-8c51-b38fcc7338c8" d="M199.11 217.07s2.29 7.58-4.38 8.83c0 0 6.53-.24 6.8-1.67s-.65-7.65-.82-8.29a13.11 13.11 0 01-1.6 1.13z"/></g><path class="20a7c345-65e0-424e-b798-11b5a1925dc2" d="M83.46 243a.32.32 0 01-.24-.37c1.56-6.75 4.51-19.64 4.57-20.1a.32.32 0 01.33-.27.32.32 0 01.29.32c0 .3-3.51 15.53-4.58 20.19a.32.32 0 01-.32.24z"/><path class="17a0e876-6cae-4505-9508-11e4614fc06f" d="M76.49 240.47a7.62 7.62 0 002.75 4.16 6.22 6.22 0 003.51 1.72 19.47 19.47 0 00-6.26-5.88z"/><path class="20a7c345-65e0-424e-b798-11b5a1925dc2" d="M82.71 246.51a6.49 6.49 0 01-3.57-1.77 7.81 7.81 0 01-2.81-4.25.15.15 0 01.07-.15.14.14 0 01.16 0 20.05 20.05 0 016.33 5.94.14.14 0 010 .15.13.13 0 01-.13.08zm-6-5.73a8 8 0 002.63 3.73 7 7 0 003.11 1.67 19.56 19.56 0 00-5.74-5.4z"/><path class="17a0e876-6cae-4505-9508-11e4614fc06f" d="M83.41 242.39a7.61 7.61 0 00-5.08-3.69c-1.5-.24-2 .57-1.84 1.77a19.47 19.47 0 016.26 5.88c.18.25 1-.54 1.07-.67a2.56 2.56 0 00.17-1.57 5 5 0 00-.58-1.72z"/><path class="20a7c345-65e0-424e-b798-11b5a1925dc2" d="M82.86 246.56a.28.28 0 01-.23-.12 19.51 19.51 0 00-6.22-5.84.18.18 0 01-.08-.11 1.85 1.85 0 01.3-1.52 1.76 1.76 0 011.72-.42 7.78 7.78 0 015.2 3.77 5.35 5.35 0 01.59 1.77 2.67 2.67 0 01-.18 1.66c-.07.13-.73.81-1.1.81zm-6.23-6.19a19.91 19.91 0 016.24 5.88 2.41 2.41 0 00.82-.65 2.36 2.36 0 00.15-1.47 5.17 5.17 0 00-.56-1.66 7.44 7.44 0 00-5-3.62 1.23 1.23 0 00-1.67 1.52zM116.21 237.16c-10.66-.88-13.38-13.78-13.4-13.91a.3.3 0 01.24-.36.31.31 0 01.36.24c0 .13 2.66 12.58 12.86 13.42a.31.31 0 11-.05.61z"/><path class="17a0e876-6cae-4505-9508-11e4614fc06f" d="M116.45 236.56s-3.8 7.25-1.42 7.82c4.28 1.01 3.35-8.84 1.42-7.82z"/><path class="20a7c345-65e0-424e-b798-11b5a1925dc2" d="M115.62 244.6a.15.15 0 01-.15-.15.15.15 0 01.15-.15c1.69 0 2.3-2.12 2.3-4.09a8 8 0 00-.37-2.52c-.23-.66-.53-1.05-.82-1.05a.15.15 0 01-.16-.15.16.16 0 01.16-.15c.45 0 .83.43 1.11 1.25a8.3 8.3 0 01.39 2.62c0 2.12-.69 4.39-2.61 4.39z"/><path class="e2c38a8e-dace-45d2-9a82-eae0c3f6f89c" d="M106.79 216.8l-1.12-6.23-4.08.39c.04.57.67 7.67 5.2 5.84z"/><path class="20a7c345-65e0-424e-b798-11b5a1925dc2" d="M105.39 217.25c-3.39 0-3.91-5.64-4-6.28a.16.16 0 01.14-.17l4.09-.39a.15.15 0 01.16.13l1.13 6.23a.16.16 0 01-.1.17 3.84 3.84 0 01-1.42.31zm-3.64-6.15c.1 1.05.71 5.84 3.64 5.84a3.57 3.57 0 001.23-.24l-1.07-6z"/><path class="e2c38a8e-dace-45d2-9a82-eae0c3f6f89c" d="M88.22 212.23l-2.12.2-.72 4.27c2.51.05 2.83-2.95 2.84-4.47z"/><path class="20a7c345-65e0-424e-b798-11b5a1925dc2" d="M85.44 216.85h-.07a.14.14 0 01-.11 0 .16.16 0 010-.13l.72-4.26a.17.17 0 01.14-.13l2.12-.2a.14.14 0 01.12 0 .16.16 0 01.05.11c-.04 1.38-.34 4.61-2.97 4.61zm.79-4.28l-.67 4c2.09-.09 2.47-2.55 2.5-4.14z"/><path class="f0f7c546-c6d0-4c9f-91ab-a83914d1b56a" d="M106.79 216.8c-4.53 1.83-5.16-5.27-5.2-5.84l-13.37 1.27c0 1.52-.33 4.52-2.84 4.47l-1 5.79 9.79 2.3 2.34-5.94 1 5.88 10.4-1.88z"/><path class="20a7c345-65e0-424e-b798-11b5a1925dc2" d="M94.18 224.94l-9.79-2.29a.16.16 0 01-.12-.17l1-5.8a.17.17 0 01.16-.13h.06c2.27 0 2.61-2.71 2.62-4.32a.15.15 0 01.14-.15l13.37-1.28a.15.15 0 01.11 0 .11.11 0 01.06.11c.05.61.55 6 3.65 6a3.42 3.42 0 001.34-.29.17.17 0 01.14 0 .18.18 0 01.08.11l1.08 6a.15.15 0 01-.12.18l-10.4 1.88a.14.14 0 01-.11 0 .2.2 0 01-.07-.1l-.87-5.33-2.13 5.41a.15.15 0 01-.2.17zm-9.61-2.56l9.52 2.22 2.29-5.8a.14.14 0 01.16-.1.16.16 0 01.14.12l.93 5.73 10.1-1.82-1-5.72a3.89 3.89 0 01-1.29.24c-3.19 0-3.84-5-4-6.13l-13.07 1.25c0 1.44-.38 4.43-2.86 4.48z"/><g class="04cc9762-7ecf-437e-bdd9-964595ed9829"><path class="f0f7c546-c6d0-4c9f-91ab-a83914d1b56a" d="M107.88 222.85l-1.09-6-1.12-6.23-4.08.39-13.37 1.27-2.12.2-.27 1.52a19.83 19.83 0 0016.9-.08c2.55-.88 6.64 9-5.29 10.55v.27z"/></g><path class="20a7c345-65e0-424e-b798-11b5a1925dc2" d="M69.86 229.05a.16.16 0 01-.15-.14l-3.42-21.86a.17.17 0 01.13-.18.16.16 0 01.18.13l3.4 21.86a.16.16 0 01-.13.18z"/><path class="20a7c345-65e0-424e-b798-11b5a1925dc2" d="M75.29 227.55a.14.14 0 01-.13-.09l-9.22-21.41a.17.17 0 01.08-.21.18.18 0 01.21.08l9.21 21.42a.16.16 0 01-.08.2zM69.39 203.68a.32.32 0 01-.3-.27.31.31 0 01.28-.34c8.34-.83 16.65-5.29 16.73-5.34a.31.31 0 01.42.13.29.29 0 01-.12.41c-.09 0-8.51 4.57-17 5.41z"/><path class="6b1d6dc4-7851-4686-a2e0-49482a84df10" d="M69.78 204s.16-3.38-1.93-2.86c-.89-.7-4.68-.06-4.74 2.24s.71 3.57 3.34 3.64a3 3 0 003.33-3.02z"/><path class="20a7c345-65e0-424e-b798-11b5a1925dc2" d="M66.59 207.18h-.15c-2.5-.06-3.55-1.2-3.49-3.79 0-1.82 2.28-2.66 3.77-2.66a2.2 2.2 0 011.17.26 1.36 1.36 0 011.34.36 4.27 4.27 0 01.71 2.66 3.1 3.1 0 01-3.35 3.17zm.13-6.15c-1.37 0-3.42.75-3.45 2.36-.06 2.45.83 3.42 3.18 3.48h.14a2.8 2.8 0 003-2.86 4.1 4.1 0 00-.62-2.45 1.1 1.1 0 00-1.12-.26.15.15 0 01-.13 0 1.81 1.81 0 00-1-.3zM120.76 207.68h-.09c-6.79-2.46-16-11.89-16.36-12.29a.31.31 0 010-.44.32.32 0 01.44 0c.09.1 9.47 9.73 16.12 12.14a.3.3 0 01.18.39.31.31 0 01-.3.21z"/><path class="4d460d83-cb2b-4cf7-b577-194592038029" d="M93.28 195.36c1.26 0 1.64-1.45 1.82-3.89l-3.14.74c-.02 1.34.18 3.09 1.32 3.15z"/><path class="20a7c345-65e0-424e-b798-11b5a1925dc2" d="M93.35 195.51h-.07c-1 0-1.5-1.19-1.48-3.31a.14.14 0 01.12-.14l3.15-.74a.16.16 0 01.14 0 .17.17 0 01.05.12c-.19 2.56-.57 4.07-1.91 4.07zm-1.24-3.18c0 1.11.16 2.83 1.18 2.87h.06c1.06 0 1.41-1.41 1.58-3.54z"/><path class="7b3f716b-dc45-4bd5-95f7-4a487437675d" d="M103.6 197.37l2-3.39s-4.51-2.87-6.75-3.38l-3.1.72-.67.15c-.18 2.44-.56 3.94-1.82 3.89s-1.34-1.81-1.32-3.15l-1.54.35s-2.15 1.85-3.87 3.41l-1.72 1.56 2 1.73.66-.89s-2.81 9.59-3.2 13.57c0 0 10.34 8.15 25-2.95z"/><path class="20a7c345-65e0-424e-b798-11b5a1925dc2" d="M94 215a17 17 0 01-9.8-2.92.18.18 0 01-.06-.14c.32-3.26 2.29-10.36 3-12.77l-.15.2a.16.16 0 01-.23 0l-2-1.73a.14.14 0 010-.11.13.13 0 010-.11l1.72-1.56c1.7-1.55 3.85-3.39 3.87-3.41a.11.11 0 01.07 0l1.53-.36a.18.18 0 01.13 0 .18.18 0 01.06.13c0 1.1.13 2.94 1.18 3h.06c1.1 0 1.43-1.5 1.6-3.75a.16.16 0 01.12-.14l3.76-.87h.07c2.25.51 6.62 3.28 6.8 3.4a.15.15 0 010 .2l-2 3.32 5.61 11.55a.15.15 0 010 .19C104.21 213 99 215 94 215zm-9.55-3.11a16.82 16.82 0 009.54 2.8c5 0 10-1.93 15.08-5.73l-5.59-11.51a.12.12 0 010-.14l1.94-3.26c-.74-.47-4.55-2.8-6.54-3.28l-3.62.85c-.19 2.42-.58 3.91-1.9 3.91h-.07c-1 0-1.47-1.12-1.48-3.11l-1.31.31c-.26.22-2.24 1.93-3.83 3.37l-1.6 1.45 1.73 1.5.56-.75a.14.14 0 01.19-.05.15.15 0 01.08.18c-.04.07-2.79 9.47-3.2 13.44zM65.66 201.82a.16.16 0 01-.15-.12C61.12 181 61 156.4 61 156.15a.15.15 0 01.15-.15.14.14 0 01.16.15c0 .25.14 24.8 4.53 45.49a.16.16 0 01-.12.18z"/><path class="20a7c345-65e0-424e-b798-11b5a1925dc2" d="M65.44 202.07a.16.16 0 01-.14-.13c-1.95-10.53-14.1-28.32-14.22-28.5a.15.15 0 010-.21.16.16 0 01.21 0c.13.18 12.31 18 14.27 28.61a.15.15 0 01-.12.18zM103.6 197.52a.17.17 0 01-.12-.06l-1.89-2.57a.16.16 0 010-.22.16.16 0 01.22 0l1.89 2.57a.16.16 0 010 .21h-.1zM87.46 198.52h-.07a.16.16 0 010-.21l1.6-2.77a.16.16 0 01.21-.06.16.16 0 010 .22l-1.6 2.76a.15.15 0 01-.14.08z"/><path class="e2c38a8e-dace-45d2-9a82-eae0c3f6f89c" d="M92.75 197.92l-1.85 3.14-2.57.49 2.32 1.72-.05 2.73 1.94-2s2.78 1.89 2.79 1.67-.32-3-.32-3l1.77-1.53-3.15-.61z"/><path class="20a7c345-65e0-424e-b798-11b5a1925dc2" d="M90.6 206.19h-.06a.16.16 0 01-.1-.15v-2.68l-2.25-1.67a.17.17 0 01-.06-.16.15.15 0 01.12-.12l2.51-.48 1.81-3.08a.18.18 0 01.15-.08.16.16 0 01.13.11l.85 2.57 3.06.58a.19.19 0 01.12.11.18.18 0 01-.05.16l-1.71 1.48c.06.51.32 2.73.31 2.95a.2.2 0 01-.18.17 16.15 16.15 0 01-2.74-1.64l-1.85 1.89a.16.16 0 01-.06.04zm-1.9-4.55l2 1.51a.16.16 0 01.06.13v2.37l1.67-1.71a.16.16 0 01.2 0c1 .68 2.11 1.39 2.53 1.6 0-.52-.2-1.9-.31-2.81a.14.14 0 01.05-.13l1.53-1.33-2.83-.54a.16.16 0 01-.11-.1l-.78-2.33-1.71 2.84a.14.14 0 01-.11.07z"/><path class="6b1d6dc4-7851-4686-a2e0-49482a84df10" d="M120.36 207.3a3 3 0 00.17-.72c0-.49-.11-1.83.67-1.85s.44 1.7.44 1.7 1-1.38 1.91-1.08-.86 1.8-.86 1.8 2.3.36 2.21 1.28-2.12.16-2.12.16 1.47 1.5.67 2.18-1.94-1.53-1.94-1.53a7.41 7.41 0 01-.43 1.55c-.14.33-.59 1.15-1 .86s.1-1.73.13-2.18 0-1.06 0-1.59a3.75 3.75 0 01.15-.58z"/><path class="20a7c345-65e0-424e-b798-11b5a1925dc2" d="M120.24 211.86a.57.57 0 01-.28-.08c-.47-.31-.24-1.14 0-1.81a3.2 3.2 0 00.12-.51 5.63 5.63 0 000-.71 8.63 8.63 0 010-.88 3.75 3.75 0 01.15-.62v-.05a3.77 3.77 0 00.14-.63v-.32c0-.62 0-1.65.81-1.68a.47.47 0 01.38.17 2 2 0 01.25 1.23 2.29 2.29 0 011.45-.82 1 1 0 01.31 0 .49.49 0 01.37.36c.09.46-.55 1.13-.94 1.49.67.15 2.12.55 2 1.4 0 .21-.16.59-.87.59a4.1 4.1 0 01-.94-.15 2.5 2.5 0 01.61 1.4.83.83 0 01-.3.59.67.67 0 01-.44.17c-.61 0-1.22-.85-1.53-1.37a6.18 6.18 0 01-.36 1.17c-.02.2-.4 1.06-.93 1.06zm1-7c-.46 0-.51.69-.51 1.38v.33a2.65 2.65 0 01-.15.69v.06a3.27 3.27 0 00-.13.56 8 8 0 000 .85v.73a4 4 0 01-.13.58c-.15.51-.36 1.27-.08 1.46a.17.17 0 00.11 0c.24 0 .55-.48.69-.82a6.89 6.89 0 00.43-1.51.15.15 0 01.13-.13.19.19 0 01.16.08c.31.61 1 1.57 1.46 1.57a.32.32 0 00.24-.09.5.5 0 00.19-.38c0-.65-.86-1.57-.87-1.58a.15.15 0 010-.19.16.16 0 01.18-.06 4.49 4.49 0 001.35.29c.53 0 .55-.23.56-.32.07-.63-1.52-1-2.07-1.11a.16.16 0 01-.13-.11.14.14 0 010-.16c.48-.4 1.12-1.11 1.06-1.41 0 0 0-.08-.15-.13a.78.78 0 00-.22 0c-.74 0-1.5 1-1.51 1.07a.18.18 0 01-.19.05.17.17 0 01-.09-.17 2.56 2.56 0 00-.14-1.47.18.18 0 00-.22-.04zM66.12 204.49h-.15a.65.65 0 01-.45-.63c-.17-1.27 2.15-2.75 2.25-2.82a.16.16 0 01.21 0 .15.15 0 010 .21c-.63.4-2.23 1.63-2.12 2.52 0 .32.19.36.23.38.39.11 1.18-.47 1.31-.63a.15.15 0 01.22 0 .15.15 0 010 .21 2.56 2.56 0 01-1.48.75z"/><g class="04cc9762-7ecf-437e-bdd9-964595ed9829"><path class="7b3f716b-dc45-4bd5-95f7-4a487437675d" d="M103.6 197.37l2-3.39s-4.51-2.87-6.75-3.38l-.57.13c2.9 5 15.74 29.06-14 21.15v.06s10.34 8.15 25-2.95z"/></g><path class="6b1d6dc4-7851-4686-a2e0-49482a84df10" d="M104.9 184c.87 0 2.43-1.42 2.08-3.64s-2.3-2.87-4-1.11c-.37-2-1.58-11.43-2.09-10.43a30.72 30.72 0 00-1.27 3.93s-3.49-5.84-4-7.71-.29-1.55-2 .42-1.47 1.67-2.29-.61-1.23-1.19-4.27.93-3.13 1.75-1.86-2.08a15.52 15.52 0 00-3.3 2.66c-1.29 2-7.4 12.7-1.37 22.31 4.21 5.87 14.67 5.51 19.38 2.19 2.65-1.07 4.97-4.34 4.99-6.86z"/><path class="20a7c345-65e0-424e-b798-11b5a1925dc2" d="M91.14 193.41c-4.73 0-8.65-1.69-10.77-4.64-6.07-9.69.07-20.43 1.37-22.48a15.91 15.91 0 013.34-2.72.19.19 0 01.18 0 .16.16 0 010 .17c-.39 1.19-.93 2.82-.71 3.13h.11a7.28 7.28 0 002.23-1.26c.65-.45 1.18-.86 1.61-1.19.84-.65 1.36-1 1.79-1s.8.53 1.11 1.37l.25.75c.2.58.37 1.08.51 1.08s.66-.55 1.26-1.26c.34-.38.59-.71.8-1 .42-.53.59-.75.8-.75s.35.3.56 1l.09.34c.45 1.58 3.09 6.11 3.82 7.36a25.77 25.77 0 011.18-3.61.26.26 0 01.22-.16c.4 0 .73 1.23 1.77 8.14.14.9.26 1.69.34 2.21a2.91 2.91 0 011.92-.85c1.1 0 1.93.86 2.16 2.25a3.63 3.63 0 01-.76 3 2.3 2.3 0 01-1.32.84c-.1 2.62-2.45 5.79-5.11 6.86a15.83 15.83 0 01-8.75 2.42zm-6.25-29.35a15.62 15.62 0 00-2.89 2.41c-1.26 2-7.32 12.6-1.35 22.13 2.05 2.86 5.88 4.5 10.51 4.5a15.7 15.7 0 008.66-2.35c2.59-1.05 4.93-4.25 4.94-6.74a.15.15 0 01.15-.15 1.87 1.87 0 001.24-.75 3.26 3.26 0 00.69-2.72c-.2-1.22-.9-2-1.85-2a2.78 2.78 0 00-1.91 1 .14.14 0 01-.15 0 .15.15 0 01-.11-.12c-.09-.49-.23-1.42-.4-2.5A62.4 62.4 0 00101 169a31.45 31.45 0 00-1.21 3.81.16.16 0 01-.29 0c-.14-.24-3.51-5.88-4-7.75l-.09-.33a3 3 0 00-.28-.8 6.18 6.18 0 00-.54.64c-.2.25-.47.58-.8 1-.87 1-1.18 1.36-1.5 1.36-.36 0-.51-.43-.8-1.29-.07-.21-.16-.46-.26-.73-.3-.84-.53-1.17-.81-1.17s-.83.39-1.6 1c-.43.33-1 .74-1.62 1.19-1.39 1-2 1.31-2.41 1.31a.41.41 0 01-.35-.16c-.34-.37-.14-1.2.45-3.02z"/><path class="3e00b5ea-83d0-492d-ad10-0738383e0bfe" d="M115.28 169.16c.1-.54-1.65-1.08-1.65-1.08s.64-2.12-.21-2.16-1 1.42-1 1.42-9.51-20-28.46-6.76l-3.25-1.53a11.86 11.86 0 001.29 3.13c-2.74.48-4.2 2-4.56 3.09 2.35-.59 2.91-1.1 2.67-.8a19.32 19.32 0 00-1.26 3.71c-.29 1.21 3.27-2.16 3.27-2.16l-.22.35a15.52 15.52 0 013.3-2.66c-1.3 3.83-1.2 4.19 1.8 2.08s3.45-3.22 4.27-.93.6 2.59 2.29.61 1.45-2.28 2-.42 4 7.71 4 7.71a30.72 30.72 0 011.27-3.93c.51-1 1.72 8.42 2.09 10.43 1.73-1.76 3.66-1.11 4 1.11s-1.15 3.63-2.02 3.63c0 2.51-2.34 5.78-5 6.86 1.84.4 6.61-.62 11.75-8.14s2.47-13.24 2.47-13.24 1.06.21 1.16-.32z"/><path class="20a7c345-65e0-424e-b798-11b5a1925dc2" d="M100.63 191.1a3.81 3.81 0 01-.78-.08.15.15 0 01-.12-.13.15.15 0 01.1-.16c2.56-1 4.9-4.23 4.91-6.72a.15.15 0 01.15-.15 1.87 1.87 0 001.24-.75 3.26 3.26 0 00.69-2.72c-.2-1.22-.9-2-1.85-2a2.83 2.83 0 00-1.91 1 .14.14 0 01-.15 0 .15.15 0 01-.11-.12c-.09-.49-.23-1.42-.4-2.5A62.4 62.4 0 00101 169a31.45 31.45 0 00-1.21 3.81.16.16 0 01-.29 0c-.14-.24-3.51-5.88-4-7.75l-.09-.33a3 3 0 00-.28-.8 6.18 6.18 0 00-.54.64c-.2.25-.47.58-.8 1-.87 1-1.18 1.36-1.5 1.36s-.51-.43-.8-1.29c-.07-.21-.16-.46-.26-.73-.3-.84-.53-1.17-.81-1.17s-.83.39-1.6 1c-.43.33-1 .74-1.62 1.19-1.39 1-2 1.31-2.41 1.31a.41.41 0 01-.35-.16c-.26-.35-.06-1.18.53-3a15.62 15.62 0 00-2.97 2.39.14.14 0 01-.18 0c-.8.72-2.35 2.08-2.87 2.08a.24.24 0 01-.21-.1.36.36 0 010-.35 24.84 24.84 0 011.12-3.47 16.18 16.18 0 01-2.34.75.17.17 0 01-.15 0 .14.14 0 010-.15c.3-.91 1.58-2.56 4.42-3.15a14.16 14.16 0 01-1.12-3 .14.14 0 01.05-.16.16.16 0 01.16 0L84 160.4c4.3-3 8.47-4.51 12.4-4.51 9.52 0 14.91 9 16 11 .12-.46.4-1.1 1-1.1a.52.52 0 01.42.23c.33.46.08 1.57 0 2 .55.18 1.72.64 1.61 1.21 0 .22-.23.49-.89.49h-.19c.43 1.19 2 6.52-2.59 13.15-5.25 7.63-9.85 8.23-11.13 8.23zm-.18-.31h.18c1.25 0 5.7-.59 10.87-8.14 5-7.36 2.49-13 2.46-13.1a.18.18 0 010-.16.15.15 0 01.15 0 3.14 3.14 0 00.41 0c.2 0 .55 0 .59-.24s-.78-.66-1.55-.9a.15.15 0 01-.1-.19 3.16 3.16 0 00.12-1.87.23.23 0 00-.19-.09c-.68 0-.83 1.26-.83 1.27a.16.16 0 01-.13.14.15.15 0 01-.16-.09c-.06-.11-5.45-11.21-15.93-11.21-3.89 0-8 1.52-12.3 4.51a.15.15 0 01-.16 0L81 159.33a9.33 9.33 0 001.12 2.74.16.16 0 010 .15.15.15 0 01-.12.11 5.89 5.89 0 00-4.33 2.67 14.55 14.55 0 002.17-.72.79.79 0 01.28-.09.17.17 0 01.15.09c0 .1 0 .19-.07.25a20.18 20.18 0 00-1.2 3.68.56.56 0 010 .07 13.87 13.87 0 003-2.37.15.15 0 01.14 0 17.3 17.3 0 013-2.3.19.19 0 01.18 0 .16.16 0 010 .17c-.39 1.19-.93 2.82-.71 3.13h.11a7.28 7.28 0 002.23-1.26c.65-.45 1.18-.86 1.61-1.19.84-.65 1.36-1 1.79-1s.8.53 1.11 1.37l.25.75c.2.58.37 1.08.51 1.08s.66-.55 1.26-1.26c.34-.38.59-.71.8-1 .42-.53.59-.75.8-.75s.35.3.56 1l.09.34c.45 1.58 3.09 6.11 3.82 7.36a25.77 25.77 0 011.18-3.61.26.26 0 01.22-.16c.4 0 .73 1.23 1.77 8.14.14.9.26 1.69.34 2.21a2.91 2.91 0 011.92-.85c1.1 0 1.93.86 2.16 2.25a3.63 3.63 0 01-.76 3 2.3 2.3 0 01-1.32.84c-.06 2.43-2.17 5.37-4.61 6.62z"/><path d="M92.13 174.66a.89.89 0 01-.93.84.88.88 0 11.93-.84zM82.2 173.67a.89.89 0 11-.84-.93.89.89 0 01.84.93z"/><path class="20a7c345-65e0-424e-b798-11b5a1925dc2" d="M85.61 187.06a7.24 7.24 0 01-1.1-.12c-4.38-.75-4.66-5.9-4.66-6a.16.16 0 01.15-.16.14.14 0 01.16.15c0 .05.28 5 4.4 5.67a7.72 7.72 0 007.65-3.11.15.15 0 11.25.17 8 8 0 01-6.85 3.36z"/><g class="4dee0aaa-3a32-496a-8a53-4188c102ccf7"><path class="56599b0c-f123-44b2-a3f0-7297a84b85f4" d="M107 180.37c-.37-2.22-2.3-2.87-4-1.11-.37-2-1.58-11.43-2.09-10.43a16.65 16.65 0 00-.84 2.4c1.56 7.39 2.64 19.77-7.23 20.93-7.8 1-12.14-3-13.71-6.28a17.57 17.57 0 001.42 2.8c4.21 5.87 14.67 5.51 19.38 2.19 2.68-1.08 5-4.35 5-6.86.84-.01 2.4-1.42 2.07-3.64z"/></g><path class="af13ab11-c7eb-4269-9705-b9b48c4c5e89" d="M76 132.26c-.62 13.29-8.93 23.7-18.56 23.26S40.51 144 41.13 130.66 50.05 107 59.69 107.4 76.63 119 76 132.26z"/><path class="20a7c345-65e0-424e-b798-11b5a1925dc2" d="M58 155.69h-.6c-4.71-.22-9-3-12.12-7.69A29.22 29.22 0 0141 130.65c.63-13.4 8.92-23.86 18.72-23.4 4.72.21 9 2.94 12.13 7.68a29.29 29.29 0 014.34 17.34c-.64 13.13-8.6 23.42-18.19 23.42zm1.06-48.15c-9.39 0-17.21 10.16-17.82 23.13a29 29 0 004.29 17.15c3.06 4.66 7.28 7.34 11.89 7.55 9.63.43 17.78-9.88 18.39-23.12a28.91 28.91 0 00-4.29-17.15c-3-4.66-7.27-7.33-11.88-7.54z"/><path class="9e3800bd-7515-4724-b43c-2cf067bc2f5d" d="M54.34 119.29c-.13 2.88-1.8 5.14-3.71 5s-3.37-2.49-3.23-5.37 1.79-5.14 3.71-5 3.36 2.49 3.23 5.37zM48.11 130.14c0 1.22-.76 2.19-1.57 2.15s-1.42-1.06-1.36-2.29.76-2.19 1.57-2.15 1.42 1.06 1.36 2.29z"/><path class="af13ab11-c7eb-4269-9705-b9b48c4c5e89" d="M61.03 155l-.94 1.87 2.32.11-1.38-1.98z"/><path class="20a7c345-65e0-424e-b798-11b5a1925dc2" d="M62.41 157.13l-2.32-.13a.14.14 0 01-.09 0 .16.16 0 010-.15l.95-1.87a.14.14 0 01.12-.09.17.17 0 01.14.07l1.38 2a.15.15 0 010 .16.13.13 0 01-.18.01zm-2.07-.4l1.76.08-1.05-1.51z"/><g class="9d5a11d3-1111-434c-a9d0-3a193fa3ff5d"><path class="af13ab11-c7eb-4269-9705-b9b48c4c5e89" d="M60.85 107.51c5.64 3.17 12.77 10.4 11.05 26.56-2.72 25.71-28.27 17.74-30.71.66.87 11.42 7.63 20.39 16.26 20.79 9.63.44 17.94-10 18.56-23.26.59-12.75-6.11-23.51-15.16-24.75z"/></g><path class="e2c38a8e-dace-45d2-9a82-eae0c3f6f89c" d="M50 151.51c5.34 8.62 4.57 18.72-1.72 22.56s-15.72 0-21-8.66-4.58-18.72 1.72-22.55 15.7.03 21 8.65z"/><path class="20a7c345-65e0-424e-b798-11b5a1925dc2" d="M42.86 175.71c-5.71 0-11.88-4-15.73-10.22a22.31 22.31 0 01-3.52-13.16c.34-4.31 2.21-7.72 5.3-9.61a10.53 10.53 0 015.54-1.5c5.71 0 11.88 4 15.72 10.21 5.38 8.68 4.58 18.9-1.77 22.78a10.55 10.55 0 01-5.54 1.5zm-8.41-34.18a10.25 10.25 0 00-5.38 1.47c-3 1.83-4.83 5.16-5.15 9.37a21.93 21.93 0 003.48 13c3.78 6.11 9.85 10.06 15.46 10.06a10.17 10.17 0 005.38-1.46c6.2-3.79 6.95-13.81 1.67-22.35-3.79-6.14-9.85-10.09-15.46-10.09z"/><path class="9e3800bd-7515-4724-b43c-2cf067bc2f5d" d="M31.93 154.69c.14 2.88-1.3 5.28-3.22 5.38s-3.59-2.17-3.73-5 1.3-5.29 3.22-5.38 3.58 2.12 3.73 5zM31.1 162.53c.38 1.17.06 2.32-.72 2.57s-1.7-.51-2.07-1.67-.07-2.32.71-2.57 1.7.5 2.08 1.67z"/><path class="f0f7c546-c6d0-4c9f-91ab-a83914d1b56a" d="M50.11 172.59l1 2.81 1.74-1.97-2.74-.84z"/><path class="20a7c345-65e0-424e-b798-11b5a1925dc2" d="M51.11 175.55a.14.14 0 01-.11-.1l-1-2.81a.15.15 0 01.19-.19l2.75.84a.13.13 0 01.1.1.16.16 0 010 .15l-1.74 2a.18.18 0 01-.19.01zm-.76-2.72l.82 2.27 1.41-1.59z"/><g class="7c8315d0-8eca-41f4-92a8-7401c7e3f563"><path class="6e1a0551-8edb-407e-83ae-d2ec2a2c799e" d="M50 151.51c-5.24-8.46-14.42-12.35-20.7-8.85 5-.57 10-1 15.59 6 8.23 10.36 8.75 24.06-1.45 26.88a10.21 10.21 0 004.84-1.46c6.33-3.85 7.1-13.95 1.72-22.57z"/></g><path class="b62ad2c9-8c38-47cc-b6f6-1908d0481a42" d="M179 62.49l-1.31-.59-1.23.75.16-1.43-1.09-.94 1.4-.29.56-1.33.71 1.25 1.43.12-.96 1.06.33 1.4zM196.1 24.07l-1.31-.59-1.23.74.16-1.42-1.09-.94 1.41-.29.55-1.33.71 1.25 1.43.12-.96 1.06.33 1.4zM140.62 84.74l-1.31-.59-1.22.74.15-1.42-1.09-.94 1.41-.29.55-1.33.72 1.25 1.43.12-.97 1.06.33 1.4zM174.12 104.1l-1.31-.59-1.22.75.15-1.43-1.09-.94 1.41-.29.55-1.32.72 1.24 1.43.12-.97 1.07.33 1.39zM245.19 91.09l-1.31-.59-1.23.75.16-1.43-1.09-.93 1.41-.3.55-1.32.71 1.24 1.43.12-.96 1.07.33 1.39zM208 115.75l-1.31-.59-1.23.74.16-1.42-1.09-.94 1.4-.29.56-1.33.71 1.25 1.43.12-.96 1.06.33 1.4zM194 143.49l-1.31-.59-1.23.75.16-1.43-1.09-.94 1.4-.29.56-1.33.71 1.25 1.43.12-.96 1.06.33 1.4zM249.29 162.32l-1.31-.58-1.23.74.16-1.43-1.09-.93 1.41-.3.55-1.32.72 1.25 1.43.12-.97 1.06.33 1.39zM72.66 86.15l-1.31-.59-1.23.74.16-1.42-1.09-.94 1.4-.29.56-1.33.71 1.25 1.43.12-.96 1.06.33 1.4zM247 203.49l-1.31-.59-1.23.75.16-1.43-1.09-.94 1.4-.29.56-1.33.71 1.25 1.43.12-.96 1.06.33 1.4z"/></g></g></svg>